{
.appVersion = "1075";
copyright = "Copyright 2018 Google Inc. All Rights Reserved.";
customParameters = (
{
name = glyphOrder;
value = (
.notdef,
NULL,
CR,
uni0020,
uni00A0,
uni200C,
uni200D,
uni118A0,
uni118A1,
uni118A2,
uni118A3,
uni118A4,
uni118A5,
uni118A6,
uni118A7,
uni118A8,
uni118A9,
uni118AA,
uni118AB,
uni118AC,
uni118AD,
uni118AE,
uni118AF,
uni118B0,
uni118B1,
uni118B2,
uni118B3,
uni118B4,
uni118B5,
uni118B6,
uni118B7,
uni118B8,
uni118B9,
uni118BA,
uni118BB,
uni118BC,
uni118BD,
uni118BE,
uni118BF,
uni118C0,
uni118C1,
uni118C2,
uni118C3,
uni118C4,
uni118C5,
uni118C6,
uni118C7,
uni118C8,
uni118C9,
uni118CA,
uni118CB,
uni118CC,
uni118CD,
uni118CE,
uni118CF,
uni118D0,
uni118D1,
uni118D2,
uni118D3,
uni118D4,
uni118D5,
uni118D6,
uni118D7,
uni118D8,
uni118D9,
uni118DA,
uni118DB,
uni118DC,
uni118DD,
uni118DE,
uni118DF,
uni118E0,
uni118E1,
uni118E2,
uni118E3,
uni118E4,
uni118E5,
uni118E6,
uni118E7,
uni118E8,
uni118E9,
uni118EA,
uni118EB,
uni118EC,
uni118ED,
uni118EE,
uni118EF,
uni118F0,
uni118F1,
uni118F2,
uni118FF,
uni118AA.sm,
uni118AB.sm,
uni118AC.sm,
uni118AD.sm,
uni118AE.sm,
uni118AF.sm,
uni118B0.sm,
uni118B1.sm,
uni118B2.sm,
uni118B3.sm,
uni118B4.sm,
uni118B5.sm,
uni118B6.sm,
uni118B7.sm,
uni118B8.sm,
uni118B9.sm,
uni118BA.sm,
uni118BB.sm,
uni118BC.sm,
uni118BD.sm,
uni118BE.sm,
uni118BF.sm,
uni118CA.sm,
uni118CB.sm,
uni118CC.sm,
uni118CD.sm,
uni118CE.sm,
uni118CF.sm,
uni118D0.sm,
uni118D1.sm,
uni118D2.sm,
uni118D3.sm,
uni118D4.sm,
uni118D5.sm,
uni118D6.sm,
uni118D7.sm,
uni118D8.sm,
uni118D9.sm,
uni118DA.sm,
uni118DB.sm,
uni118DC.sm,
uni118DD.sm,
uni118DE.sm,
uni118DF.sm,
uni118A1.sm,
uni118A2.sm,
uni118A3.sm,
uni118A4.sm,
uni118A5.sm,
uni118A6.sm,
uni118A7.sm,
uni118A8.sm,
uni118A9.sm,
uni118C1.sm,
uni118C2.sm,
uni118C3.sm,
uni118C4.sm,
uni118C5.sm,
uni118C6.sm,
uni118C7.sm,
uni118C8.sm,
uni118C9.sm,
uni118C0.abv,
uni118CA.abv,
uni118CB.abv,
uni118CC.abv,
uni118CD.abv,
uni118CE.abv,
uni118CF.abv,
uni118D0.abv,
uni118D1.abv,
uni118D2.abv,
uni118D3.abv,

glyphs = (
{
glyphname = .notdef;
lastChange = "2018-04-10 19:53:07 +0000";
layers = (
{
layerId = UUID0;
paths = (
{
closed = 1;
nodes = (
"505 0 LINE",
"505 714 LINE",
"94 714 LINE",
"94 0 LINE"
);
},
{
closed = 1;
nodes = (
"145 663 LINE",
"454 663 LINE",
"454 51 LINE",
"145 51 LINE"
);
}
);
width = 600;
}
);
},
{
glyphname = uni118A0;
lastChange = "2018-04-10 19:53:07 +0000";
layers = (
{
layerId = UUID0;
paths = (
{
closed = 1;
nodes = (
"350 0 LINE",
"601 702 LINE",
"515 728 LINE",
"350 258 LINE SMOOTH",
"329 198 OFFCURVE",
"314 147 OFFCURVE",
"305 100 CURVE",
"295 147 OFFCURVE",
"281 197 OFFCURVE",
"260 256 CURVE SMOOTH",
"94 728 LINE",
"10 702 LINE",
"260 0 LINE"
);
}
);
width = 611;
}
);
unicode = 118A0;
category = Letter;
},
{
glyphname = uni118A1;
lastChange = "2018-04-10 19:53:07 +0000";
layers = (
{
layerId = UUID0;
paths = (
{
closed = 1;
nodes = (
"369 0 LINE",
"369 635 LINE",
"648 635 LINE",
"648 714 LINE",
"279 714 LINE",
"279 79 LINE",
"30 79 LINE",
"30 0 LINE"
);
}
);
width = 678;
}
);
unicode = 118A1;
category = Letter;
},
{
glyphname = uni118A2;
lastChange = "2018-04-10 19:53:07 +0000";
layers = (
{
layerId = UUID0;
paths = (
{
closed = 1;
nodes = (
"271 0 LINE",
"271 373 LINE",
"591 373 LINE",
"591 452 LINE",
"271 452 LINE",
"271 635 LINE",
"590 635 LINE",
"590 714 LINE",
"181 714 LINE",
"181 452 LINE",
"30 452 LINE",
"30 373 LINE",
"181 373 LINE",
"181 0 LINE"
);
}
);
width = 621;
}
);
unicode = 118A2;
category = Letter;
},
{
glyphname = uni118A3;
lastChange = "2018-04-10 19:53:07 +0000";
layers = (
{
layerId = UUID0;
paths = (
{
closed = 1;
nodes = (
"682 0 LINE",
"682 80 LINE",
"180 80 LINE",
"180 714 LINE",
"90 714 LINE",
"90 0 LINE"
);
}
);
width = 712;
}
);
unicode = 118A3;
category = Letter;
},
{
glyphname = uni118A4;
lastChange = "2018-04-10 19:53:07 +0000";
layers = (
{
layerId = UUID0;
paths = (
{
closed = 1;
nodes = (
"369 0 LINE",
"369 416 LINE",
"612 674 LINE",
"551 726 LINE",
"324 482 LINE",
"97 726 LINE",
"36 674 LINE",
"279 415 LINE",
"279 79 LINE",
"30 79 LINE",
"30 0 LINE"
);
}
);
width = 642;
}
);
unicode = 118A4;
category = Letter;
},
{
glyphname = uni118A5;
lastChange = "2018-04-10 19:53:07 +0000";
layers = (
{
layerId = UUID0;
paths = (
{
closed = 1;
nodes = (
"269 0 LINE",
"269 373 LINE",
"479 373 LINE",
"479 79 LINE",
"330 79 LINE",
"330 0 LINE",
"569 0 LINE",
"569 635 LINE",
"728 635 LINE",
"728 714 LINE",
"479 714 LINE",
"479 452 LINE",
"269 452 LINE",
"269 635 LINE",
"428 635 LINE",
"428 714 LINE",
"179 714 LINE",
"179 79 LINE",
"30 79 LINE",
"30 0 LINE"
);
}
);
width = 758;
}
);
unicode = 118A5;
category = Letter;
},
{
glyphname = uni118A6;
lastChange = "2018-04-10 19:53:07 +0000";
layers = (
{
layerId = UUID0;
paths = (
{
closed = 1;
nodes = (
"680 0 LINE",
"680 79 LINE",
"271 79 LINE",
"271 373 LINE",
"680 373 LINE",
"680 452 LINE",
"271 452 LINE",
"271 635 LINE",
"680 635 LINE",
"680 714 LINE",
"181 714 LINE",
"181 452 LINE",
"30 452 LINE",
"30 373 LINE",
"181 373 LINE",
"181 0 LINE"
);
}
);
width = 710;
}
);
unicode = 118A6;
category = Letter;
},
{
glyphname = uni118A7;
lastChange = "2018-04-10 19:53:07 +0000";
layers = (
{
layerId = UUID0;
paths = (
{
closed = 1;
nodes = (
"180 0 LINE",
"180 373 LINE",
"487 373 LINE",
"572 260 LINE",
"726 260 LINE",
"726 339 LINE",
"609 339 LINE",
"530 452 LINE",
"180 452 LINE",
"180 714 LINE",
"90 714 LINE",
"90 0 LINE"
);
}
);
width = 756;
}
);
unicode = 118A7;
category = Letter;
},
{
glyphname = uni118A8;
lastChange = "2018-04-10 19:53:07 +0000";
layers = (
{
layerId = UUID0;
paths = (
{
closed = 1;
nodes = (
"247 0 LINE",
"642 714 LINE",
"10 714 LINE",
"159 0 LINE"
);
},
{
closed = 1;
nodes = (
"119 635 LINE",
"499 635 LINE",
"220 119 LINE"
);
}
);
width = 652;
}
);
unicode = 118A8;
category = Letter;
},
{
glyphname = uni118A9;
lastChange = "2018-04-10 19:53:07 +0000";
layers = (
{
layerId = UUID0;
paths = (
{
closed = 1;
nodes = (
"618 0 LINE",
"618 204 LINE",
"528 204 LINE",
"528 80 LINE",
"180 80 LINE",
"596 646 LINE",
"596 714 LINE",
"50 714 LINE",
"50 500 LINE",
"140 500 LINE",
"140 634 LINE",
"487 634 LINE",
"71 68 LINE",
"71 0 LINE"
);
}
);
width = 668;
}
);
unicode = 118A9;
category = Letter;
},
{
glyphname = uni118AA;
lastChange = "2018-04-10 19:53:07 +0000";
layers = (
{
layerId = UUID0;
paths = (
{
closed = 1;
nodes = (
"444 -10 OFFCURVE",
"609 172 OFFCURVE",
"609 372 CURVE SMOOTH",
"609 498 OFFCURVE",
"526 551 OFFCURVE",
"420 551 CURVE SMOOTH",
"393 551 OFFCURVE",
"368 547 OFFCURVE",
"346 541 CURVE",
"401 663 LINE",
"348 730 LINE",
"40 579 LINE",
"115 411 LINE",
"190 444 LINE",
"150 536 LINE",
"322 626 LINE",
"306 642 LINE",
"230 475 LINE",
"297 433 LINE",
"309 445 OFFCURVE",
"358 473 OFFCURVE",
"410 473 CURVE SMOOTH",
"457 473 OFFCURVE",
"514 459 OFFCURVE",
"514 372 CURVE SMOOTH",
"514 242 OFFCURVE",
"402 68 OFFCURVE",
"249 68 CURVE SMOOTH",
"195 68 OFFCURVE",
"160 92 OFFCURVE",
"160 133 CURVE SMOOTH",
"160 230 OFFCURVE",
"292 296 OFFCURVE",
"402 343 CURVE",
"368 419 LINE",
"246 374 OFFCURVE",
"64 269 OFFCURVE",
"64 133 CURVE SMOOTH",
"64 54 OFFCURVE",
"118 -10 OFFCURVE",
"249 -10 CURVE SMOOTH"
);
}
);
width = 669;
}
);
unicode = 118AA;
category = Letter;
},
{
glyphname = uni118AB;
lastChange = "2018-04-10 19:53:07 +0000";
layers = (
{
layerId = UUID0;
paths = (
{
closed = 1;
nodes = (
"180 0 LINE",
"180 443 LINE",
"500 611 LINE",
"500 0 LINE",
"590 0 LINE",
"590 658 LINE",
"533 724 LINE",
"90 490 LINE",
"90 0 LINE"
);
}
);
width = 680;
}
);
unicode = 118AB;
category = Letter;
},
{
glyphname = uni118AC;
lastChange = "2018-04-10 19:53:07 +0000";
layers = (
{
layerId = UUID0;
paths = (
{
closed = 1;
nodes = (
"509 0 LINE",
"509 373 LINE",
"640 373 LINE",
"640 452 LINE",
"509 452 LINE",
"509 714 LINE",
"90 714 LINE",
"90 373 LINE",
"419 373 LINE",
"419 79 LINE",
"90 79 LINE",
"90 0 LINE"
);
},
{
closed = 1;
nodes = (
"180 635 LINE",
"419 635 LINE",
"419 452 LINE",
"180 452 LINE"
);
}
);
width = 670;
}
);
unicode = 118AC;
category = Letter;
},
{
glyphname = uni118AD;
lastChange = "2018-04-10 19:53:07 +0000";
layers = (
{
layerId = UUID0;
paths = (
{
closed = 1;
nodes = (
"316 -10 OFFCURVE",
"373 22 OFFCURVE",
"408 72 CURVE",
"444 22 OFFCURVE",
"501 -10 OFFCURVE",
"572 -10 CURVE SMOOTH",
"695 -10 OFFCURVE",
"777 87 OFFCURVE",
"777 205 CURVE SMOOTH",
"777 324 OFFCURVE",
"695 421 OFFCURVE",
"572 421 CURVE SMOOTH",
"526 421 OFFCURVE",
"486 407 OFFCURVE",
"454 384 CURVE",
"454 714 LINE",
"364 714 LINE",
"364 383 LINE",
"331 407 OFFCURVE",
"291 421 OFFCURVE",
"245 421 CURVE SMOOTH",
"122 421 OFFCURVE",
"40 324 OFFCURVE",
"40 205 CURVE SMOOTH",
"40 87 OFFCURVE",
"122 -10 OFFCURVE",
"245 -10 CURVE SMOOTH"
);
},
{
closed = 1;
nodes = (
"171 64 OFFCURVE",
"123 127 OFFCURVE",
"123 205 CURVE SMOOTH",
"123 283 OFFCURVE",
"171 346 OFFCURVE",
"245 346 CURVE SMOOTH",
"319 346 OFFCURVE",
"367 283 OFFCURVE",
"367 205 CURVE SMOOTH",
"367 127 OFFCURVE",
"319 64 OFFCURVE",
"245 64 CURVE SMOOTH"
);
},
{
closed = 1;
nodes = (
"498 64 OFFCURVE",
"450 127 OFFCURVE",
"450 205 CURVE SMOOTH",
"450 283 OFFCURVE",
"498 346 OFFCURVE",
"572 346 CURVE SMOOTH",
"646 346 OFFCURVE",
"694 283 OFFCURVE",
"694 205 CURVE SMOOTH",
"694 127 OFFCURVE",
"646 64 OFFCURVE",
"572 64 CURVE SMOOTH"
);
}
);
width = 817;
}
);
unicode = 118AD;
category = Letter;
},
{
glyphname = uni118AE;
lastChange = "2018-04-10 19:53:07 +0000";
layers = (
{
layerId = UUID0;
paths = (
{
closed = 1;
nodes = (
"589 0 LINE",
"589 79 LINE",
"180 79 LINE",
"180 373 LINE",
"589 373 LINE",
"589 452 LINE",
"180 452 LINE",
"180 635 LINE",
"589 635 LINE",
"589 714 LINE",
"90 714 LINE",
"90 0 LINE"
);
}
);
width = 619;
}
);
unicode = 118AE;
category = Letter;
},
{
glyphname = uni118AF;
lastChange = "2018-04-10 19:53:07 +0000";
layers = (
{
layerId = UUID0;
paths = (
{
closed = 1;
nodes = (
"639 0 LINE",
"639 714 LINE",
"549 714 LINE",
"549 452 LINE",
"180 452 LINE",
"180 635 LINE",
"442 635 LINE",
"442 714 LINE",
"90 714 LINE",
"90 373 LINE",
"549 373 LINE",
"549 0 LINE"
);
}
);
width = 729;
}
);
unicode = 118AF;
category = Letter;
},
{
glyphname = uni118B0;
lastChange = "2018-04-10 19:53:07 +0000";
layers = (
{
layerId = UUID0;
paths = (
{
closed = 1;
nodes = (
"614 -10 OFFCURVE",
"658 60 OFFCURVE",
"658 227 CURVE SMOOTH",
"658 714 LINE",
"569 714 LINE",
"569 229 LINE SMOOTH",
"569 129 OFFCURVE",
"563 68 OFFCURVE",
"492 68 CURVE SMOOTH",
"423 68 OFFCURVE",
"419 123 OFFCURVE",
"419 229 CURVE SMOOTH",
"419 485 LINE SMOOTH",
"419 662 OFFCURVE",
"384 724 OFFCURVE",
"261 724 CURVE SMOOTH",
"134 724 OFFCURVE",
"90 654 OFFCURVE",
"90 487 CURVE SMOOTH",
"90 0 LINE",
"179 0 LINE",
"179 485 LINE SMOOTH",
"179 585 OFFCURVE",
"185 646 OFFCURVE",
"256 646 CURVE SMOOTH",
"325 646 OFFCURVE",
"329 591 OFFCURVE",
"329 485 CURVE SMOOTH",
"329 229 LINE SMOOTH",
"329 52 OFFCURVE",
"364 -10 OFFCURVE",
"487 -10 CURVE SMOOTH"
);
}
);
width = 748;
}
);
unicode = 118B0;
category = Letter;
},
{
glyphname = uni118B1;
lastChange = "2018-04-10 19:53:07 +0000";
layers = (
{
layerId = UUID0;
paths = (
{
closed = 1;
nodes = (
"180 0 LINE",
"180 457 LINE",
"222 457 LINE SMOOTH",
"390 457 OFFCURVE",
"499 587 OFFCURVE",
"505 717 CURVE",
"415 728 LINE",
"413 637 OFFCURVE",
"340 536 OFFCURVE",
"223 536 CURVE SMOOTH",
"119 536 LINE",
"90 470 LINE",
"90 0 LINE"
);
}
);
width = 535;
}
);
unicode = 118B1;
category = Letter;
},
{
glyphname = uni118B2;
lastChange = "2018-04-10 19:53:07 +0000";
layers = (
{
layerId = UUID0;
paths = (
{
closed = 1;
nodes = (
"620 0 LINE",
"683 298 LINE",
"594 298 LINE",
"546 80 LINE",
"240 80 LINE",
"240 714 LINE",
"150 714 LINE",
"150 79 LINE",
"30 79 LINE",
"30 0 LINE"
);
}
);
width = 713;
}
);
unicode = 118B2;
category = Letter;
},
{
glyphname = uni118B3;
lastChange = "2018-04-10 19:53:07 +0000";
layers = (
{
layerId = UUID0;
paths = (
{
closed = 1;
nodes = (
"684 221 LINE",
"630 283 LINE",
"420 103 LINE",
"420 698 LINE",
"347 724 LINE",
"30 571 LINE",
"30 541 LINE",
"139 360 LINE",
"212 406 LINE",
"135 529 LINE",
"330 626 LINE",
"330 16 LINE",
"422 -10 LINE"
);
}
);
width = 714;
}
);
unicode = 118B3;
category = Letter;
},
{
glyphname = uni118B4;
lastChange = "2018-04-10 19:53:07 +0000";
layers = (
{
layerId = UUID0;
paths = (
{
closed = 1;
nodes = (
"551 -10 OFFCURVE",
"640 104 OFFCURVE",
"640 252 CURVE SMOOTH",
"640 714 LINE",
"551 714 LINE",
"551 452 LINE",
"281 452 LINE",
"281 373 LINE",
"551 373 LINE",
"551 252 LINE SMOOTH",
"551 144 OFFCURVE",
"496 68 OFFCURVE",
"367 68 CURVE SMOOTH",
"242 68 OFFCURVE",
"180 135 OFFCURVE",
"180 251 CURVE SMOOTH",
"180 714 LINE",
"90 714 LINE",
"90 254 LINE SMOOTH",
"90 95 OFFCURVE",
"184 -10 OFFCURVE",
"362 -10 CURVE SMOOTH"
);
}
);
width = 730;
}
);
unicode = 118B4;
category = Letter;
},
{
glyphname = uni118B5;
lastChange = "2018-04-10 19:53:07 +0000";
layers = (
{
layerId = UUID0;
paths = (
{
closed = 1;
nodes = (
"639 -10 OFFCURVE",
"793 156 OFFCURVE",
"793 359 CURVE SMOOTH",
"793 562 OFFCURVE",
"639 726 OFFCURVE",
"426 726 CURVE SMOOTH",
"213 726 OFFCURVE",
"60 562 OFFCURVE",
"60 359 CURVE SMOOTH",
"60 156 OFFCURVE",
"213 -10 OFFCURVE",
"426 -10 CURVE SMOOTH"
);
},
{
closed = 1;
nodes = (
"265 68 OFFCURVE",
"153 196 OFFCURVE",
"153 357 CURVE SMOOTH",
"153 518 OFFCURVE",
"265 647 OFFCURVE",
"426 647 CURVE SMOOTH",
"587 647 OFFCURVE",
"700 518 OFFCURVE",
"700 357 CURVE SMOOTH",
"700 196 OFFCURVE",
"587 68 OFFCURVE",
"426 68 CURVE SMOOTH"
);
}
);
width = 853;
}
);
unicode = 118B5;
category = Letter;
},
{
glyphname = uni118B6;
lastChange = "2018-04-10 19:53:07 +0000";
layers = (
{
layerId = UUID0;
paths = (
{
closed = 1;
nodes = (
"485 0 LINE",
"485 176 LINE",
"638 57 LINE",
"692 119 LINE",
"485 280 LINE",
"485 686 LINE",
"394 724 LINE",
"97 502 LINE",
"97 478 LINE",
"395 246 LINE",
"395 80 LINE",
"30 80 LINE",
"30 0 LINE"
);
},
{
closed = 1;
nodes = (
"215 490 LINE",
"395 628 LINE",
"395 350 LINE"
);
}
);
width = 722;
}
);
unicode = 118B6;
category = Letter;
},
{
glyphname = uni118B7;
lastChange = "2018-04-10 19:53:07 +0000";
layers = (
{
layerId = UUID0;
paths = (
{
closed = 1;
nodes = (
"427 -10 LINE",
"781 346 LINE",
"781 368 LINE",
"427 724 LINE",
"384 724 LINE",
"30 368 LINE",
"30 346 LINE",
"384 -10 LINE"
);
},
{
closed = 1;
nodes = (
"136 357 LINE",
"405 626 LINE",
"675 357 LINE",
"405 88 LINE"
);
}
);
width = 811;
}
);
unicode = 118B7;
category = Letter;
},
{
glyphname = uni118B8;
lastChange = "2018-04-10 19:53:07 +0000";
layers = (
{
layerId = UUID0;
paths = (
{
closed = 1;
nodes = (
"597 -10 OFFCURVE",
"686 104 OFFCURVE",
"686 252 CURVE SMOOTH",
"686 635 LINE",
"777 635 LINE",
"777 714 LINE",
"495 714 LINE",
"495 635 LINE",
"597 635 LINE",
"597 252 LINE SMOOTH",
"597 144 OFFCURVE",
"542 68 OFFCURVE",
"413 68 CURVE SMOOTH",
"288 68 OFFCURVE",
"226 135 OFFCURVE",
"226 251 CURVE SMOOTH",
"226 635 LINE",
"328 635 LINE",
"328 714 LINE",
"46 714 LINE",
"46 635 LINE",
"136 635 LINE",
"136 254 LINE SMOOTH",
"136 95 OFFCURVE",
"230 -10 OFFCURVE",
"408 -10 CURVE SMOOTH"
);
}
);
width = 791;
}
);
unicode = 118B8;
category = Letter;
},
{
glyphname = uni118B9;
lastChange = "2018-04-10 19:53:07 +0000";
layers = (
{
layerId = UUID0;
paths = (
{
closed = 1;
nodes = (
"575 -10 OFFCURVE",
"664 104 OFFCURVE",
"664 252 CURVE SMOOTH",
"664 525 LINE SMOOTH",
"664 591 OFFCURVE",
"670 646 OFFCURVE",
"721 646 CURVE SMOOTH",
"760 646 OFFCURVE",
"785 599 OFFCURVE",
"794 497 CURVE",
"883 513 LINE",
"869 635 OFFCURVE",
"823 724 OFFCURVE",
"719 724 CURVE SMOOTH",
"619 724 OFFCURVE",
"575 665 OFFCURVE",
"575 523 CURVE SMOOTH",
"575 252 LINE SMOOTH",
"575 144 OFFCURVE",
"520 68 OFFCURVE",
"391 68 CURVE SMOOTH",
"266 68 OFFCURVE",
"174 135 OFFCURVE",
"174 293 CURVE SMOOTH",
"174 438 OFFCURVE",
"245 547 OFFCURVE",
"464 635 CURVE",
"464 714 LINE",
"30 714 LINE",
"30 635 LINE",
"325 635 LINE",
"325 645 LINE",
"166 576 OFFCURVE",
"84 446 OFFCURVE",
"84 292 CURVE SMOOTH",
"84 80 OFFCURVE",
"217 -10 OFFCURVE",
"386 -10 CURVE SMOOTH"
);
}
);
width = 913;
}
);
unicode = 118B9;
category = Letter;
},
{
glyphname = uni118BA;
lastChange = "2018-04-10 19:53:07 +0000";
layers = (
{
layerId = UUID0;
paths = (
{
closed = 1;
nodes = (
"593 -10 OFFCURVE",
"674 130 OFFCURVE",
"674 280 CURVE SMOOTH",
"674 483 OFFCURVE",
"492 638 OFFCURVE",
"224 743 CURVE",
"188 665 LINE",
"402 571 OFFCURVE",
"579 461 OFFCURVE",
"579 272 CURVE SMOOTH",
"579 169 OFFCURVE",
"533 68 OFFCURVE",
"397 68 CURVE SMOOTH",
"291 68 OFFCURVE",
"228 129 OFFCURVE",
"228 207 CURVE SMOOTH",
"228 283 OFFCURVE",
"263 347 OFFCURVE",
"364 373 CURVE",
"364 452 LINE",
"30 452 LINE",
"30 373 LINE",
"240 373 LINE",
"244 386 LINE",
"182 367 OFFCURVE",
"133 291 OFFCURVE",
"133 205 CURVE SMOOTH",
"133 87 OFFCURVE",
"220 -10 OFFCURVE",
"388 -10 CURVE SMOOTH"
);
}
);
width = 734;
}
);
unicode = 118BA;
category = Letter;
},
{
glyphname = uni118BB;
lastChange = "2018-04-10 19:53:07 +0000";
layers = (
{
layerId = UUID0;
paths = (
{
closed = 1;
nodes = (
"248 10 OFFCURVE",
"552 131 OFFCURVE",
"552 304 CURVE SMOOTH",
"552 398 OFFCURVE",
"500 444 OFFCURVE",
"387 444 CURVE SMOOTH",
"329 444 OFFCURVE",
"285 426 OFFCURVE",
"247 406 CURVE",
"268 555 LINE",
"571 651 LINE",
"545 730 LINE",
"189 620 LINE",
"147 343 LINE",
"210 287 LINE",
"256 331 OFFCURVE",
"314 360 OFFCURVE",
"377 360 CURVE SMOOTH",
"433 360 OFFCURVE",
"456 341 OFFCURVE",
"456 303 CURVE SMOOTH",
"456 176 OFFCURVE",
"165 71 OFFCURVE",
"30 46 CURVE",
"49 -31 LINE"
);
}
);
width = 651;
}
);
unicode = 118BB;
category = Letter;
},
{
glyphname = uni118BC;
lastChange = "2018-04-10 19:53:07 +0000";
layers = (
{
layerId = UUID0;
paths = (
{
closed = 1;
nodes = (
"323 0 LINE",
"323 635 LINE",
"545 635 LINE",
"545 714 LINE",
"10 714 LINE",
"10 635 LINE",
"233 635 LINE",
"233 0 LINE"
);
}
);
width = 556;
}
);
unicode = 118BC;
category = Letter;
},
{
glyphname = uni118BD;
lastChange = "2018-04-10 19:53:07 +0000";
layers = (
{
layerId = UUID0;
paths = (
{
closed = 1;
nodes = (
"621 -10 OFFCURVE",
"710 104 OFFCURVE",
"710 252 CURVE SMOOTH",
"710 714 LINE",
"621 714 LINE",
"621 382 LINE",
"250 382 LINE",
"250 714 LINE",
"30 714 LINE",
"30 635 LINE",
"160 635 LINE",
"160 254 LINE SMOOTH",
"160 95 OFFCURVE",
"254 -10 OFFCURVE",
"432 -10 CURVE SMOOTH"
);
},
{
closed = 1;
nodes = (
"312 68 OFFCURVE",
"250 135 OFFCURVE",
"250 251 CURVE SMOOTH",
"250 303 LINE",
"621 303 LINE",
"621 252 LINE SMOOTH",
"621 144 OFFCURVE",
"566 68 OFFCURVE",
"437 68 CURVE SMOOTH"
);
}
);
width = 801;
}
);
unicode = 118BD;
category = Letter;
},
{
glyphname = uni118BE;
lastChange = "2018-04-10 19:53:07 +0000";
layers = (
{
layerId = UUID0;
paths = (
{
closed = 1;
nodes = (
"523 60 LINE",
"284 169 LINE",
"696 425 LINE",
"655 494 LINE",
"240 237 LINE",
"240 587 LINE",
"90 733 LINE",
"30 675 LINE",
"150 560 LINE",
"150 137 LINE",
"485 -12 LINE"
);
}
);
width = 726;
}
);
unicode = 118BE;
category = Letter;
},
{
glyphname = uni118BF;
lastChange = "2018-04-10 19:53:07 +0000";
layers = (
{
layerId = UUID0;
paths = (
{
closed = 1;
nodes = (
"724 32 OFFCURVE",
"751 110 OFFCURVE",
"751 182 CURVE SMOOTH",
"751 315 OFFCURVE",
"641 452 OFFCURVE",
"443 452 CURVE SMOOTH",
"369 452 LINE",
"369 635 LINE",
"648 635 LINE",
"648 714 LINE",
"279 714 LINE",
"279 79 LINE",
"30 79 LINE",
"30 0 LINE",
"369 0 LINE",
"369 373 LINE",
"435 373 LINE SMOOTH",
"587 373 OFFCURVE",
"661 270 OFFCURVE",
"661 178 CURVE SMOOTH",
"661 123 OFFCURVE",
"642 78 OFFCURVE",
"604 49 CURVE",
"656 -16 LINE"
);
}
);
width = 801;
}
);
unicode = 118BF;
category = Letter;
},
{
glyphname = uni118C0;
lastChange = "2018-04-10 19:53:07 +0000";
layers = (
{
layerId = UUID0;
paths = (
{
closed = 1;
nodes = (
"321 -10 OFFCURVE",
"354 62 OFFCURVE",
"384 151 CURVE SMOOTH",
"443 327 LINE SMOOTH",
"456 366 OFFCURVE",
"488 427 OFFCURVE",
"513 451 CURVE",
"454 499 LINE",
"420 469 OFFCURVE",
"393 412 OFFCURVE",
"372 349 CURVE SMOOTH",
"317 182 LINE SMOOTH",
"299 126 OFFCURVE",
"277 64 OFFCURVE",
"235 64 CURVE SMOOTH",
"210 64 OFFCURVE",
"197 94 OFFCURVE",
"197 139 CURVE SMOOTH",
"197 154 OFFCURVE",
"198 171 OFFCURVE",
"200 191 CURVE SMOOTH",
"216 325 LINE SMOOTH",
"218 343 OFFCURVE",
"219 360 OFFCURVE",
"219 389 CURVE SMOOTH",
"219 469 OFFCURVE",
"179 504 OFFCURVE",
"124 504 CURVE SMOOTH",
"76 504 OFFCURVE",
"34 473 OFFCURVE",
"10 406 CURVE",
"74 372 LINE",
"87 418 OFFCURVE",
"105 430 OFFCURVE",
"119 430 CURVE SMOOTH",
"133 430 OFFCURVE",
"142 419 OFFCURVE",
"142 391 CURVE SMOOTH",
"142 373 OFFCURVE",
"140 350 OFFCURVE",
"136 318 CURVE SMOOTH",
"121 185 LINE SMOOTH",
"119 169 OFFCURVE",
"119 153 OFFCURVE",
"119 131 CURVE SMOOTH",
"119 46 OFFCURVE",
"161 -10 OFFCURVE",
"234 -10 CURVE SMOOTH"
);
}
);
width = 492;
}
);
unicode = 118C0;
category = Letter;
},
{
glyphname = uni118C1;
lastChange = "2018-04-10 19:53:07 +0000";
layers = (
{
layerId = UUID0;
paths = (
{
closed = 1;
nodes = (
"199 -10 OFFCURVE",
"232 58 OFFCURVE",
"265 151 CURVE SMOOTH",
"326 321 LINE SMOOTH",
"344 371 OFFCURVE",
"366 430 OFFCURVE",
"391 430 CURVE SMOOTH",
"416 430 OFFCURVE",
"427 417 OFFCURVE",
"440 371 CURVE",
"504 406 LINE",
"480 473 OFFCURVE",
"448 504 OFFCURVE",
"391 504 CURVE SMOOTH",
"327 504 OFFCURVE",
"288 436 OFFCURVE",
"255 343 CURVE SMOOTH",
"194 173 LINE SMOOTH",
"173 114 OFFCURVE",
"155 64 OFFCURVE",
"124 64 CURVE SMOOTH",
"89 64 OFFCURVE",
"66 78 OFFCURVE",
"33 104 CURVE",
"0 38 LINE",
"40 9 OFFCURVE",
"68 -10 OFFCURVE",
"125 -10 CURVE SMOOTH"
);
}
);
width = 504;
}
);
unicode = 118C1;
category = Letter;
},
{
glyphname = uni118C2;
lastChange = "2018-04-10 19:53:07 +0000";
layers = (
{
layerId = UUID0;
paths = (
{
closed = 1;
nodes = (
"170 0 LINE",
"195 224 LINE",
"378 224 LINE",
"378 292 LINE",
"203 292 LINE",
"208 336 LINE SMOOTH",
"217 411 OFFCURVE",
"264 430 OFFCURVE",
"323 430 CURVE SMOOTH",
"349 430 OFFCURVE",
"400 425 OFFCURVE",
"417 419 CURVE",
"424 488 LINE",
"406 497 OFFCURVE",
"348 504 OFFCURVE",
"316 504 CURVE SMOOTH",
"202 504 OFFCURVE",
"141 440 OFFCURVE",
"130 343 CURVE SMOOTH",
"124 292 LINE",
"10 292 LINE",
"10 224 LINE",
"117 224 LINE",
"92 0 LINE"
);
}
);
width = 444;
}
);
unicode = 118C2;
category = Letter;
},
{
glyphname = uni118C3;
lastChange = "2018-04-10 19:53:07 +0000";
layers = (
{
layerId = UUID0;
paths = (
{
closed = 1;
nodes = (
"251 -10 OFFCURVE",
"290 48 OFFCURVE",
"330 114 CURVE",
"271 156 LINE",
"248 113 OFFCURVE",
"218 64 OFFCURVE",
"180 64 CURVE SMOOTH",
"141 64 OFFCURVE",
"118 88 OFFCURVE",
"118 139 CURVE SMOOTH",
"118 154 OFFCURVE",
"119 171 OFFCURVE",
"121 191 CURVE SMOOTH",
"151 494 LINE",
"72 494 LINE",
"42 185 LINE SMOOTH",
"40 169 OFFCURVE",
"40 153 OFFCURVE",
"40 131 CURVE SMOOTH",
"40 36 OFFCURVE",
"103 -10 OFFCURVE",
"181 -10 CURVE SMOOTH"
);
}
);
width = 350;
}
);
unicode = 118C3;
category = Letter;
},
{
glyphname = uni118C4;
lastChange = "2018-04-10 19:53:07 +0000";
layers = (
{
layerId = UUID0;
paths = (
{
closed = 1;
nodes = (
"260 -10 OFFCURVE",
"385 134 OFFCURVE",
"414 478 CURVE",
"340 494 LINE",
"334 411 OFFCURVE",
"322 343 OFFCURVE",
"308 287 CURVE",
"271 276 OFFCURVE",
"242 275 OFFCURVE",
"219 275 CURVE SMOOTH",
"181 275 OFFCURVE",
"169 288 OFFCURVE",
"169 308 CURVE SMOOTH",
"169 326 OFFCURVE",
"179 350 OFFCURVE",
"190 374 CURVE SMOOTH",
"202 399 OFFCURVE",
"208 421 OFFCURVE",
"208 440 CURVE SMOOTH",
"208 481 OFFCURVE",
"179 504 OFFCURVE",
"119 504 CURVE SMOOTH",
"98 504 OFFCURVE",
"75 501 OFFCURVE",
"53 494 CURVE",
"65 421 LINE",
"81 427 OFFCURVE",
"96 430 OFFCURVE",
"102 430 CURVE SMOOTH",
"112 430 OFFCURVE",
"130 430 OFFCURVE",
"130 414 CURVE SMOOTH",
"130 408 OFFCURVE",
"128 401 OFFCURVE",
"122 390 CURVE SMOOTH",
"113 374 OFFCURVE",
"93 329 OFFCURVE",
"93 296 CURVE SMOOTH",
"93 232 OFFCURVE",
"136 201 OFFCURVE",
"215 201 CURVE SMOOTH",
"233 201 OFFCURVE",
"257 202 OFFCURVE",
"283 208 CURVE",
"242 101 OFFCURVE",
"191 64 OFFCURVE",
"169 64 CURVE SMOOTH",
"140 64 OFFCURVE",
"109 105 OFFCURVE",
"79 156 CURVE",
"20 114 LINE",
"60 48 OFFCURVE",
"108 -10 OFFCURVE",
"169 -10 CURVE SMOOTH"
);
}
);
width = 434;
}
);
unicode = 118C4;
category = Letter;
},
{
glyphname = uni118C5;
lastChange = "2018-04-10 19:53:07 +0000";
layers = (
{
layerId = UUID0;
paths = (
{
closed = 1;
nodes = (
"175 -10 OFFCURVE",
"216 23 OFFCURVE",
"220 112 CURVE SMOOTH",
"222 156 LINE",
"374 229 LINE",
"370 153 LINE SMOOTH",
"367 90 OFFCURVE",
"363 64 OFFCURVE",
"345 64 CURVE SMOOTH",
"328 64 OFFCURVE",
"306 78 OFFCURVE",
"273 104 CURVE",
"240 38 LINE",
"281 9 OFFCURVE",
"311 -10 OFFCURVE",
"349 -10 CURVE SMOOTH",
"402 -10 OFFCURVE",
"437 23 OFFCURVE",
"442 122 CURVE SMOOTH",
"451 310 LINE SMOOTH",
"454 363 OFFCURVE",
"465 430 OFFCURVE",
"524 430 CURVE SMOOTH",
"546 430 OFFCURVE",
"564 427 OFFCURVE",
"581 422 CURVE",
"592 496 LINE",
"569 501 OFFCURVE",
"549 504 OFFCURVE",
"517 504 CURVE SMOOTH",
"433 504 OFFCURVE",
"387 431 OFFCURVE",
"380 332 CURVE SMOOTH",
"378 303 LINE",
"226 229 LINE",
"231 310 LINE SMOOTH",
"234 363 OFFCURVE",
"245 430 OFFCURVE",
"304 430 CURVE SMOOTH",
"326 430 OFFCURVE",
"344 427 OFFCURVE",
"361 422 CURVE",
"372 496 LINE",
"349 501 OFFCURVE",
"329 504 OFFCURVE",
"297 504 CURVE SMOOTH",
"213 504 OFFCURVE",
"165 431 OFFCURVE",
"160 332 CURVE SMOOTH",
"151 164 LINE SMOOTH",
"147 91 OFFCURVE",
"142 64 OFFCURVE",
"122 64 CURVE SMOOTH",
"107 64 OFFCURVE",
"86 78 OFFCURVE",
"53 104 CURVE",
"20 38 LINE",
"61 9 OFFCURVE",
"91 -10 OFFCURVE",
"129 -10 CURVE SMOOTH"
);
}
);
width = 612;
}
);
unicode = 118C5;
category = Letter;
},
{
glyphname = uni118C6;
lastChange = "2018-04-10 19:53:07 +0000";
layers = (
{
layerId = UUID0;
paths = (
{
closed = 1;
nodes = (
"242 0 LINE",
"291 224 LINE",
"435 224 LINE",
"435 292 LINE",
"307 292 LINE",
"315 327 OFFCURVE",
"322 363 OFFCURVE",
"322 385 CURVE SMOOTH",
"322 453 OFFCURVE",
"283 504 OFFCURVE",
"148 504 CURVE SMOOTH",
"98 504 OFFCURVE",
"38 497 OFFCURVE",
"20 488 CURVE",
"27 419 LINE",
"44 425 OFFCURVE",
"95 430 OFFCURVE",
"136 430 CURVE SMOOTH",
"221 430 OFFCURVE",
"244 410 OFFCURVE",
"244 371 CURVE SMOOTH",
"244 350 OFFCURVE",
"237 323 OFFCURVE",
"229 292 CURVE",
"28 292 LINE",
"28 224 LINE",
"214 224 LINE",
"164 0 LINE"
);
}
);
width = 455;
}
);
unicode = 118C6;
category = Letter;
},
{
glyphname = uni118C7;
lastChange = "2018-04-10 19:53:07 +0000";
layers = (
{
layerId = UUID0;
paths = (
{
closed = 1;
nodes = (
"203 0 LINE",
"269 173 LINE SMOOTH",
"287 220 OFFCURVE",
"309 278 OFFCURVE",
"309 339 CURVE SMOOTH",
"309 449 OFFCURVE",
"233 504 OFFCURVE",
"81 504 CURVE SMOOTH",
"62 504 OFFCURVE",
"42 503 OFFCURVE",
"20 501 CURVE",
"27 427 LINE",
"42 429 OFFCURVE",
"57 430 OFFCURVE",
"72 430 CURVE SMOOTH",
"200 430 OFFCURVE",
"231 399 OFFCURVE",
"231 335 CURVE SMOOTH",
"231 300 OFFCURVE",
"219 259 OFFCURVE",
"198 201 CURVE SMOOTH",
"126 0 LINE"
);
}
);
width = 349;
}
);
unicode = 118C7;
category = Letter;
},
{
glyphname = uni118C8;
lastChange = "2018-04-10 19:53:07 +0000";
layers = (
{
layerId = UUID0;
paths = (
{
closed = 1;
nodes = (
"318 -10 OFFCURVE",
"385 92 OFFCURVE",
"385 351 CURVE SMOOTH",
"385 443 LINE",
"359 494 LINE",
"40 494 LINE",
"40 443 LINE SMOOTH",
"40 348 OFFCURVE",
"68 -10 OFFCURVE",
"231 -10 CURVE SMOOTH"
);
},
{
closed = 1;
nodes = (
"190 64 OFFCURVE",
"125 194 OFFCURVE",
"117 426 CURVE",
"307 426 LINE",
"307 336 LINE SMOOTH",
"307 245 OFFCURVE",
"295 64 OFFCURVE",
"232 64 CURVE SMOOTH"
);
}
);
width = 425;
}
);
unicode = 118C8;
category = Letter;
},
{
glyphname = uni118C9;
lastChange = "2018-04-10 19:53:07 +0000";
layers = (
{
layerId = UUID0;
paths = (
{
closed = 1;
nodes = (
"263 -10 OFFCURVE",
"334 18 OFFCURVE",
"393 54 CURVE",
"363 118 LINE",
"317 90 OFFCURVE",
"247 64 OFFCURVE",
"193 64 CURVE SMOOTH",
"137 64 OFFCURVE",
"108 85 OFFCURVE",
"108 130 CURVE SMOOTH",
"108 180 OFFCURVE",
"146 208 OFFCURVE",
"223 245 CURVE SMOOTH",
"318 291 OFFCURVE",
"356 312 OFFCURVE",
"356 384 CURVE SMOOTH",
"356 449 OFFCURVE",
"304 504 OFFCURVE",
"183 504 CURVE SMOOTH",
"134 504 OFFCURVE",
"82 495 OFFCURVE",
"35 475 CURVE",
"55 403 LINE",
"96 421 OFFCURVE",
"145 430 OFFCURVE",
"193 430 CURVE SMOOTH",
"234 430 OFFCURVE",
"278 414 OFFCURVE",
"278 381 CURVE SMOOTH",
"278 345 OFFCURVE",
"235 324 OFFCURVE",
"185 301 CURVE SMOOTH",
"115 269 OFFCURVE",
"30 229 OFFCURVE",
"30 130 CURVE SMOOTH",
"30 35 OFFCURVE",
"91 -10 OFFCURVE",
"193 -10 CURVE SMOOTH"
);
}
);
width = 426;
}
);
unicode = 118C9;
category = Letter;
},
{
glyphname = uni118CA;
lastChange = "2018-04-10 19:53:07 +0000";
layers = (
{
layerId = UUID0;
paths = (
{
closed = 1;
nodes = (
"308 -10 OFFCURVE",
"372 100 OFFCURVE",
"372 198 CURVE SMOOTH",
"372 249 OFFCURVE",
"347 294 OFFCURVE",
"291 323 CURVE",
"303 344 OFFCURVE",
"311 368 OFFCURVE",
"311 397 CURVE SMOOTH",
"311 468 OFFCURVE",
"259 504 OFFCURVE",
"188 504 CURVE SMOOTH",
"136 504 OFFCURVE",
"73 483 OFFCURVE",
"20 364 CURVE",
"81 325 LINE",
"93 356 OFFCURVE",
"131 430 OFFCURVE",
"182 430 CURVE SMOOTH",
"213 430 OFFCURVE",
"233 421 OFFCURVE",
"233 387 CURVE SMOOTH",
"233 338 OFFCURVE",
"172 298 OFFCURVE",
"109 283 CURVE",
"122 221 LINE",
"142 225 OFFCURVE",
"197 238 OFFCURVE",
"243 272 CURVE",
"267 260 OFFCURVE",
"282 242 OFFCURVE",
"289 221 CURVE",
"112 199 OFFCURVE",
"41 137 OFFCURVE",
"41 75 CURVE SMOOTH",
"41 11 OFFCURVE",
"100 -10 OFFCURVE",
"152 -10 CURVE SMOOTH"
);
},
{
closed = 1;
nodes = (
"141 64 OFFCURVE",
"119 66 OFFCURVE",
"119 84 CURVE SMOOTH",
"119 100 OFFCURVE",
"163 143 OFFCURVE",
"289 154 CURVE",
"275 106 OFFCURVE",
"235 64 OFFCURVE",
"160 64 CURVE SMOOTH"
);
}
);
width = 412;
}
);
unicode = 118CA;
category = Letter;
},
{
glyphname = uni118CB;
lastChange = "2018-04-10 19:53:07 +0000";
layers = (
{
layerId = UUID0;
paths = (
{
closed = 1;
nodes = (
"203 -10 OFFCURVE",
"216 43 OFFCURVE",
"222 142 CURVE SMOOTH",
"227 231 LINE SMOOTH",
"230 284 OFFCURVE",
"242 335 OFFCURVE",
"301 335 CURVE SMOOTH",
"341 335 OFFCURVE",
"379 300 OFFCURVE",
"399 268 CURVE",
"372 0 LINE",
"451 0 LINE",
"481 309 LINE SMOOTH",
"487 374 OFFCURVE",
"493 435 OFFCURVE",
"568 454 CURVE",
"540 514 LINE",
"467 512 OFFCURVE",
"425 449 OFFCURVE",
"410 366 CURVE",
"386 387 OFFCURVE",
"349 409 OFFCURVE",
"294 409 CURVE SMOOTH",
"210 409 OFFCURVE",
"162 352 OFFCURVE",
"156 253 CURVE SMOOTH",
"151 164 LINE SMOOTH",
"148 111 OFFCURVE",
"144 64 OFFCURVE",
"122 64 CURVE SMOOTH",
"109 64 OFFCURVE",
"86 78 OFFCURVE",
"53 104 CURVE",
"20 38 LINE",
"62 9 OFFCURVE",
"91 -10 OFFCURVE",
"139 -10 CURVE SMOOTH"
);
}
);
width = 578;
}
);
unicode = 118CB;
category = Letter;
},
{
glyphname = uni118CC;
lastChange = "2018-04-10 19:53:07 +0000";
layers = (
{
layerId = UUID0;
paths = (
{
closed = 1;
nodes = (
"289 -10 OFFCURVE",
"388 121 OFFCURVE",
"388 247 CURVE SMOOTH",
"388 253 OFFCURVE",
"388 258 OFFCURVE",
"387 264 CURVE",
"418 278 OFFCURVE",
"447 294 OFFCURVE",
"470 308 CURVE",
"439 373 LINE",
"422 362 OFFCURVE",
"400 349 OFFCURVE",
"375 337 CURVE",
"342 443 OFFCURVE",
"262 503 OFFCURVE",
"172 503 CURVE SMOOTH",
"86 503 OFFCURVE",
"30 437 OFFCURVE",
"30 357 CURVE SMOOTH",
"30 271 OFFCURVE",
"77 202 OFFCURVE",
"166 202 CURVE SMOOTH",
"210 202 OFFCURVE",
"261 214 OFFCURVE",
"309 231 CURVE",
"303 133 OFFCURVE",
"239 64 OFFCURVE",
"166 64 CURVE SMOOTH",
"131 64 OFFCURVE",
"107 100 OFFCURVE",
"91 125 CURVE",
"36 78 LINE",
"62 33 OFFCURVE",
"109 -10 OFFCURVE",
"168 -10 CURVE SMOOTH"
);
},
{
closed = 1;
nodes = (
"134 274 OFFCURVE",
"108 305 OFFCURVE",
"108 357 CURVE SMOOTH",
"108 401 OFFCURVE",
"130 429 OFFCURVE",
"173 429 CURVE SMOOTH",
"231 429 OFFCURVE",
"285 381 OFFCURVE",
"303 304 CURVE",
"259 287 OFFCURVE",
"213 274 OFFCURVE",
"177 274 CURVE SMOOTH"
);
}
);
width = 480;
}
);
unicode = 118CC;
category = Letter;
},
{
glyphname = uni118CD;
lastChange = "2018-04-10 19:53:07 +0000";
layers = (
{
layerId = UUID0;
paths = (
{
closed = 1;
nodes = (
"216 -10 OFFCURVE",
"255 11 OFFCURVE",
"287 46 CURVE",
"301 10 OFFCURVE",
"335 -10 OFFCURVE",
"385 -10 CURVE SMOOTH",
"476 -10 OFFCURVE",
"564 72 OFFCURVE",
"564 165 CURVE SMOOTH",
"564 249 OFFCURVE",
"495 287 OFFCURVE",
"432 287 CURVE SMOOTH",
"425 287 OFFCURVE",
"418 287 OFFCURVE",
"411 286 CURVE",
"495 482 LINE",
"427 507 LINE",
"316 247 LINE",
"288 270 OFFCURVE",
"243 293 OFFCURVE",
"180 293 CURVE SMOOTH",
"80 293 OFFCURVE",
"30 216 OFFCURVE",
"30 138 CURVE SMOOTH",
"30 53 OFFCURVE",
"78 -10 OFFCURVE",
"166 -10 CURVE SMOOTH"
);
},
{
closed = 1;
nodes = (
"134 64 OFFCURVE",
"108 88 OFFCURVE",
"108 141 CURVE SMOOTH",
"108 187 OFFCURVE",
"135 219 OFFCURVE",
"183 219 CURVE SMOOTH",
"214 219 OFFCURVE",
"254 208 OFFCURVE",
"285 175 CURVE",
"251 100 OFFCURVE",
"217 64 OFFCURVE",
"171 64 CURVE SMOOTH"
);
},
{
closed = 1;
nodes = (
"357 64 OFFCURVE",
"343 81 OFFCURVE",
"343 107 CURVE SMOOTH",
"343 117 OFFCURVE",
"346 136 OFFCURVE",
"351 147 CURVE SMOOTH",
"372 195 LINE",
"379 203 OFFCURVE",
"398 213 OFFCURVE",
"422 213 CURVE SMOOTH",
"448 213 OFFCURVE",
"486 208 OFFCURVE",
"486 161 CURVE SMOOTH",
"486 102 OFFCURVE",
"429 64 OFFCURVE",
"393 64 CURVE SMOOTH"
);
}
);
width = 594;
}
);
unicode = 118CD;
category = Letter;
},
{
glyphname = uni118CE;
lastChange = "2018-04-10 19:53:07 +0000";
layers = (
{
layerId = UUID0;
paths = (
{
closed = 1;
nodes = (
"320 -10 OFFCURVE",
"368 56 OFFCURVE",
"408 158 CURVE",
"338 178 LINE",
"309 101 OFFCURVE",
"269 64 OFFCURVE",
"213 64 CURVE SMOOTH",
"176 64 OFFCURVE",
"137 87 OFFCURVE",
"137 140 CURVE SMOOTH",
"137 183 OFFCURVE",
"159 206 OFFCURVE",
"202 209 CURVE",
"202 283 LINE",
"192 282 OFFCURVE",
"182 281 OFFCURVE",
"173 281 CURVE SMOOTH",
"144 281 OFFCURVE",
"108 294 OFFCURVE",
"108 356 CURVE SMOOTH",
"108 419 OFFCURVE",
"166 429 OFFCURVE",
"204 429 CURVE SMOOTH",
"288 429 OFFCURVE",
"341 366 OFFCURVE",
"354 279 CURVE",
"429 304 LINE",
"404 425 OFFCURVE",
"317 503 OFFCURVE",
"208 503 CURVE SMOOTH",
"104 503 OFFCURVE",
"30 448 OFFCURVE",
"30 351 CURVE SMOOTH",
"30 283 OFFCURVE",
"64 243 OFFCURVE",
"131 223 CURVE",
"126 248 LINE",
"81 221 OFFCURVE",
"59 180 OFFCURVE",
"59 137 CURVE SMOOTH",
"59 52 OFFCURVE",
"120 -10 OFFCURVE",
"208 -10 CURVE SMOOTH"
);
}
);
width = 439;
}
);
unicode = 118CE;
category = Letter;
},
{
glyphname = uni118CF;
lastChange = "2018-04-10 19:53:07 +0000";
layers = (
{
layerId = UUID0;
paths = (
{
closed = 1;
nodes = (
"226 -10 OFFCURVE",
"287 47 OFFCURVE",
"292 146 CURVE SMOOTH",
"295 206 LINE",
"379 230 OFFCURVE",
"452 287 OFFCURVE",
"452 371 CURVE SMOOTH",
"452 422 OFFCURVE",
"422 452 OFFCURVE",
"367 452 CURVE SMOOTH",
"292 452 OFFCURVE",
"233 379 OFFCURVE",
"224 265 CURVE",
"210 265 LINE SMOOTH",
"150 265 OFFCURVE",
"108 299 OFFCURVE",
"108 352 CURVE SMOOTH",
"108 398 OFFCURVE",
"136 430 OFFCURVE",
"184 430 CURVE SMOOTH",
"201 430 OFFCURVE",
"219 427 OFFCURVE",
"238 419 CURVE",
"261 490 LINE",
"239 498 OFFCURVE",
"212 504 OFFCURVE",
"181 504 CURVE SMOOTH",
"81 504 OFFCURVE",
"30 427 OFFCURVE",
"30 349 CURVE SMOOTH",
"30 264 OFFCURVE",
"98 194 OFFCURVE",
"208 194 CURVE SMOOTH",
"220 194 LINE",
"219 168 LINE SMOOTH",
"217 115 OFFCURVE",
"194 64 OFFCURVE",
"135 64 CURVE SMOOTH",
"115 64 OFFCURVE",
"82 69 OFFCURVE",
"55 82 CURVE",
"37 9 LINE",
"71 -2 OFFCURVE",
"109 -10 OFFCURVE",
"142 -10 CURVE SMOOTH"
);
},
{
closed = 1;
nodes = (
"308 332 OFFCURVE",
"324 382 OFFCURVE",
"363 382 CURVE SMOOTH",
"372 382 OFFCURVE",
"380 377 OFFCURVE",
"380 365 CURVE SMOOTH",
"380 337 OFFCURVE",
"347 304 OFFCURVE",
"301 284 CURVE"
);
}
);
width = 472;
}
);
unicode = 118CF;
category = Letter;
},
{
glyphname = uni118D0;
lastChange = "2018-04-10 19:53:07 +0000";
layers = (
{
layerId = UUID0;
paths = (
{
closed = 1;
nodes = (
"187 -10 OFFCURVE",
"217 43 OFFCURVE",
"222 142 CURVE SMOOTH",
"231 310 LINE SMOOTH",
"234 363 OFFCURVE",
"245 430 OFFCURVE",
"297 430 CURVE SMOOTH",
"347 430 OFFCURVE",
"361 357 OFFCURVE",
"372 295 CURVE SMOOTH",
"399 147 LINE SMOOTH",
"424 9 OFFCURVE",
"462 -10 OFFCURVE",
"516 -10 CURVE SMOOTH",
"576 -10 OFFCURVE",
"604 43 OFFCURVE",
"609 142 CURVE SMOOTH",
"619 330 LINE SMOOTH",
"623 411 OFFCURVE",
"634 430 OFFCURVE",
"660 430 CURVE SMOOTH",
"690 430 OFFCURVE",
"714 394 OFFCURVE",
"730 369 CURVE",
"785 416 LINE",
"748 474 OFFCURVE",
"706 504 OFFCURVE",
"663 504 CURVE SMOOTH",
"583 504 OFFCURVE",
"553 451 OFFCURVE",
"548 352 CURVE SMOOTH",
"538 164 LINE SMOOTH",
"534 86 OFFCURVE",
"525 64 OFFCURVE",
"511 64 CURVE SMOOTH",
"495 64 OFFCURVE",
"482 100 OFFCURVE",
"469 168 CURVE SMOOTH",
"441 320 LINE SMOOTH",
"426 402 OFFCURVE",
"401 504 OFFCURVE",
"297 504 CURVE SMOOTH",
"213 504 OFFCURVE",
"165 431 OFFCURVE",
"160 332 CURVE SMOOTH",
"151 164 LINE SMOOTH",
"148 111 OFFCURVE",
"144 64 OFFCURVE",
"110 64 CURVE SMOOTH",
"80 64 OFFCURVE",
"56 100 OFFCURVE",
"40 125 CURVE",
"-15 78 LINE",
"22 20 OFFCURVE",
"64 -10 OFFCURVE",
"107 -10 CURVE SMOOTH"
);
}
);
width = 770;
}
);
unicode = 118D0;
category = Letter;
},
{
glyphname = uni118D1;
lastChange = "2018-04-10 19:53:07 +0000";
layers = (
{
layerId = UUID0;
paths = (
{
closed = 1;
nodes = (
"118 0 LINE",
"152 253 LINE",
"307 261 OFFCURVE",
"347 350 OFFCURVE",
"358 495 CURVE",
"285 504 LINE",
"277 390 OFFCURVE",
"260 327 OFFCURVE",
"140 327 CURVE SMOOTH",
"98 327 OFFCURVE",
"84 304 OFFCURVE",
"78 263 CURVE SMOOTH",
"40 0 LINE"
);
}
);
width = 368;
}
);
unicode = 118D1;
category = Letter;
},
{
glyphname = uni118D2;
lastChange = "2018-04-10 19:53:07 +0000";
layers = (
{
layerId = UUID0;
paths = (
{
closed = 1;
nodes = (
"286 -10 OFFCURVE",
"337 76 OFFCURVE",
"370 154 CURVE",
"302 178 LINE",
"269 101 OFFCURVE",
"233 64 OFFCURVE",
"177 64 CURVE SMOOTH",
"140 64 OFFCURVE",
"108 89 OFFCURVE",
"108 142 CURVE SMOOTH",
"108 195 OFFCURVE",
"144 220 OFFCURVE",
"177 243 CURVE SMOOTH",
"206 263 OFFCURVE",
"233 282 OFFCURVE",
"235 317 CURVE SMOOTH",
"239 379 LINE SMOOTH",
"242 420 OFFCURVE",
"253 437 OFFCURVE",
"278 461 CURVE",
"223 509 LINE",
"190 485 OFFCURVE",
"173 467 OFFCURVE",
"168 401 CURVE SMOOTH",
"164 346 LINE SMOOTH",
"163 326 OFFCURVE",
"155 313 OFFCURVE",
"137 302 CURVE SMOOTH",
"70 261 OFFCURVE",
"30 220 OFFCURVE",
"30 141 CURVE SMOOTH",
"30 56 OFFCURVE",
"84 -10 OFFCURVE",
"176 -10 CURVE SMOOTH"
);
}
);
width = 380;
}
);
unicode = 118D2;
category = Letter;
},
{
glyphname = uni118D3;
lastChange = "2018-04-10 19:53:07 +0000";
layers = (
{
layerId = UUID0;
paths = (
{
closed = 1;
nodes = (
"519 -10 OFFCURVE",
"567 48 OFFCURVE",
"607 114 CURVE",
"550 153 LINE",
"520 102 OFFCURVE",
"487 64 OFFCURVE",
"448 64 CURVE SMOOTH",
"356 64 OFFCURVE",
"319 262 OFFCURVE",
"316 481 CURVE",
"239 504 LINE",
"182 433 LINE SMOOTH",
"149 392 OFFCURVE",
"131 380 OFFCURVE",
"115 380 CURVE SMOOTH",
"96 380 OFFCURVE",
"81 393 OFFCURVE",
"63 444 CURVE",
"0 406 LINE",
"21 355 OFFCURVE",
"56 298 OFFCURVE",
"115 298 CURVE SMOOTH",
"152 298 OFFCURVE",
"187 326 OFFCURVE",
"233 384 CURVE SMOOTH",
"264 424 LINE",
"245 424 LINE",
"253 221 OFFCURVE",
"274 -10 OFFCURVE",
"446 -10 CURVE SMOOTH"
);
}
);
width = 592;
}
);
unicode = 118D3;
category = Letter;
},
{
glyphname = uni118D4;
lastChange = "2018-04-10 19:53:07 +0000";
layers = (
{
layerId = UUID0;
paths = (
{
closed = 1;
nodes = (
"548 -10 OFFCURVE",
"584 58 OFFCURVE",
"622 161 CURVE SMOOTH",
"646 227 LINE",
"651 227 LINE SMOOTH",
"753 227 OFFCURVE",
"826 270 OFFCURVE",
"826 366 CURVE SMOOTH",
"826 428 OFFCURVE",
"791 465 OFFCURVE",
"730 465 CURVE SMOOTH",
"662 465 OFFCURVE",
"629 422 OFFCURVE",
"595 318 CURVE",
"569 335 OFFCURVE",
"550 363 OFFCURVE",
"530 396 CURVE SMOOTH",
"500 445 OFFCURVE",
"462 504 OFFCURVE",
"354 504 CURVE SMOOTH",
"338 504 OFFCURVE",
"321 503 OFFCURVE",
"305 502 CURVE",
"305 429 LINE",
"317 430 OFFCURVE",
"339 430 OFFCURVE",
"351 430 CURVE SMOOTH",
"408 430 OFFCURVE",
"442 402 OFFCURVE",
"482 338 CURVE SMOOTH",
"506 299 OFFCURVE",
"530 263 OFFCURVE",
"571 243 CURVE",
"549 182 LINE SMOOTH",
"531 132 OFFCURVE",
"506 64 OFFCURVE",
"457 64 CURVE SMOOTH",
"411 64 OFFCURVE",
"385 106 OFFCURVE",
"360 151 CURVE SMOOTH",
"266 320 LINE SMOOTH",
"218 407 OFFCURVE",
"187 453 OFFCURVE",
"107 453 CURVE SMOOTH",
"64 453 OFFCURVE",
"22 423 OFFCURVE",
"-15 365 CURVE",
"40 318 LINE",
"56 343 OFFCURVE",
"81 379 OFFCURVE",
"109 379 CURVE SMOOTH",
"140 379 OFFCURVE",
"163 348 OFFCURVE",
"194 292 CURVE SMOOTH",
"288 123 LINE SMOOTH",
"328 51 OFFCURVE",
"373 -10 OFFCURVE",
"451 -10 CURVE SMOOTH"
);
},
{
closed = 1;
nodes = (
"676 320 LINE SMOOTH",
"693 372 OFFCURVE",
"710 395 OFFCURVE",
"728 395 CURVE SMOOTH",
"743 395 OFFCURVE",
"754 386 OFFCURVE",
"754 365 CURVE SMOOTH",
"754 330 OFFCURVE",
"729 298 OFFCURVE",
"664 298 CURVE",
"661 273 LINE"
);
}
);
width = 846;
}
);
unicode = 118D4;
category = Letter;
},
{
glyphname = uni118D5;
lastChange = "2018-04-10 19:53:07 +0000";
layers = (
{
layerId = UUID0;
paths = (
{
closed = 1;
nodes = (
"384 -10 OFFCURVE",
"467 63 OFFCURVE",
"467 180 CURVE SMOOTH",
"467 284 OFFCURVE",
"404 341 OFFCURVE",
"307 341 CURVE SMOOTH",
"272 341 OFFCURVE",
"234 331 OFFCURVE",
"198 308 CURVE",
"224 244 LINE",
"247 257 OFFCURVE",
"275 267 OFFCURVE",
"306 267 CURVE SMOOTH",
"357 267 OFFCURVE",
"389 234 OFFCURVE",
"389 172 CURVE SMOOTH",
"389 90 OFFCURVE",
"322 64 OFFCURVE",
"284 64 CURVE SMOOTH",
"177 64 OFFCURVE",
"118 136 OFFCURVE",
"118 246 CURVE SMOOTH",
"118 358 OFFCURVE",
"195 429 OFFCURVE",
"292 429 CURVE SMOOTH",
"371 429 OFFCURVE",
"438 399 OFFCURVE",
"489 368 CURVE",
"526 431 LINE",
"466 469 OFFCURVE",
"391 503 OFFCURVE",
"295 503 CURVE SMOOTH",
"153 503 OFFCURVE",
"40 396 OFFCURVE",
"40 246 CURVE SMOOTH",
"40 85 OFFCURVE",
"148 -10 OFFCURVE",
"280 -10 CURVE SMOOTH"
);
}
);
width = 536;
}
);
unicode = 118D5;
category = Letter;
},
{
glyphname = uni118D6;
lastChange = "2018-04-10 19:53:07 +0000";
layers = (
{
layerId = UUID0;
paths = (
{
closed = 1;
nodes = (
"230 -10 OFFCURVE",
"306 77 OFFCURVE",
"329 182 CURVE",
"347 183 OFFCURVE",
"365 185 OFFCURVE",
"383 187 CURVE",
"378 259 LINE",
"364 257 OFFCURVE",
"350 255 OFFCURVE",
"337 255 CURVE",
"344 384 LINE SMOOTH",
"345 405 OFFCURVE",
"345 430 OFFCURVE",
"345 447 CURVE SMOOTH",
"345 473 OFFCURVE",
"338 503 OFFCURVE",
"281 503 CURVE SMOOTH",
"181 503 OFFCURVE",
"112 428 OFFCURVE",
"112 327 CURVE SMOOTH",
"112 230 OFFCURVE",
"174 180 OFFCURVE",
"251 180 CURVE",
"233 106 OFFCURVE",
"187 64 OFFCURVE",
"131 64 CURVE SMOOTH",
"88 64 OFFCURVE",
"45 114 OFFCURVE",
"25 139 CURVE",
"-30 92 LINE",
"-4 47 OFFCURVE",
"56 -10 OFFCURVE",
"133 -10 CURVE SMOOTH"
);
},
{
closed = 1;
nodes = (
"208 253 OFFCURVE",
"190 282 OFFCURVE",
"190 336 CURVE SMOOTH",
"190 391 OFFCURVE",
"231 428 OFFCURVE",
"270 428 CURVE",
"260 252 LINE"
);
}
);
width = 413;
}
);
unicode = 118D6;
category = Letter;
},
{
glyphname = uni118D7;
lastChange = "2018-04-10 19:53:07 +0000";
layers = (
{
layerId = UUID0;
paths = (
{
closed = 1;
nodes = (
"442 30 OFFCURVE",
"599 161 OFFCURVE",
"599 241 CURVE SMOOTH",
"599 326 OFFCURVE",
"445 457 OFFCURVE",
"314 457 CURVE SMOOTH",
"184 457 OFFCURVE",
"30 326 OFFCURVE",
"30 243 CURVE SMOOTH",
"30 159 OFFCURVE",
"192 30 OFFCURVE",
"314 30 CURVE SMOOTH"
);
},
{
closed = 1;
nodes = (
"209 104 OFFCURVE",
"113 207 OFFCURVE",
"108 243 CURVE",
"113 279 OFFCURVE",
"209 383 OFFCURVE",
"316 383 CURVE SMOOTH",
"419 383 OFFCURVE",
"516 279 OFFCURVE",
"521 243 CURVE",
"516 207 OFFCURVE",
"419 104 OFFCURVE",
"316 104 CURVE SMOOTH"
);
}
);
width = 629;
}
);
unicode = 118D7;
category = Letter;
},
{
glyphname = uni118D8;
lastChange = "2018-04-10 19:53:07 +0000";
layers = (
{
layerId = UUID0;
paths = (
{
closed = 1;
nodes = (
"473 -10 OFFCURVE",
"537 51 OFFCURVE",
"552 142 CURVE SMOOTH",
"583 330 LINE SMOOTH",
"595 405 OFFCURVE",
"608 430 OFFCURVE",
"632 430 CURVE SMOOTH",
"665 430 OFFCURVE",
"689 394 OFFCURVE",
"705 369 CURVE",
"760 416 LINE",
"723 474 OFFCURVE",
"681 504 OFFCURVE",
"632 504 CURVE SMOOTH",
"558 504 OFFCURVE",
"530 450 OFFCURVE",
"513 352 CURVE SMOOTH",
"481 164 LINE SMOOTH",
"469 91 OFFCURVE",
"430 64 OFFCURVE",
"377 64 CURVE SMOOTH",
"324 64 OFFCURVE",
"291 112 OFFCURVE",
"278 202 CURVE SMOOTH",
"259 336 LINE SMOOTH",
"245 434 OFFCURVE",
"202 473 OFFCURVE",
"133 473 CURVE SMOOTH",
"79 473 OFFCURVE",
"37 443 OFFCURVE",
"0 385 CURVE",
"55 338 LINE",
"71 363 OFFCURVE",
"96 399 OFFCURVE",
"124 399 CURVE SMOOTH",
"155 399 OFFCURVE",
"178 387 OFFCURVE",
"187 324 CURVE SMOOTH",
"208 171 LINE SMOOTH",
"223 65 OFFCURVE",
"268 -10 OFFCURVE",
"377 -10 CURVE SMOOTH"
);
}
);
width = 770;
}
);
unicode = 118D8;
category = Letter;
},
{
glyphname = uni118D9;
lastChange = "2018-04-10 19:53:07 +0000";
layers = (
{
layerId = UUID0;
paths = (
{
closed = 1;
nodes = (
"618 54 OFFCURVE",
"657 135 OFFCURVE",
"657 236 CURVE SMOOTH",
"657 375 OFFCURVE",
"603 452 OFFCURVE",
"496 452 CURVE SMOOTH",
"379 452 OFFCURVE",
"352 339 OFFCURVE",
"330 235 CURVE SMOOTH",
"311 146 OFFCURVE",
"292 64 OFFCURVE",
"217 64 CURVE SMOOTH",
"150 64 OFFCURVE",
"108 136 OFFCURVE",
"108 230 CURVE SMOOTH",
"108 321 OFFCURVE",
"139 405 OFFCURVE",
"201 464 CURVE",
"142 509 LINE",
"70 434 OFFCURVE",
"30 336 OFFCURVE",
"30 231 CURVE SMOOTH",
"30 85 OFFCURVE",
"106 -10 OFFCURVE",
"213 -10 CURVE SMOOTH",
"353 -10 OFFCURVE",
"381 118 OFFCURVE",
"404 227 CURVE SMOOTH",
"421 308 OFFCURVE",
"436 378 OFFCURVE",
"492 378 CURVE SMOOTH",
"559 378 OFFCURVE",
"579 324 OFFCURVE",
"579 239 CURVE SMOOTH",
"579 151 OFFCURVE",
"550 88 OFFCURVE",
"506 30 CURVE",
"560 -19 LINE"
);
}
);
width = 687;
}
);
unicode = 118D9;
category = Letter;
},
{
glyphname = uni118DA;
lastChange = "2018-04-10 19:53:07 +0000";
layers = (
{
layerId = UUID0;
paths = (
{
closed = 1;
nodes = (
"369 -10 OFFCURVE",
"467 85 OFFCURVE",
"467 246 CURVE SMOOTH",
"467 406 OFFCURVE",
"354 507 OFFCURVE",
"181 507 CURVE",
"181 439 LINE",
"315 434 OFFCURVE",
"389 372 OFFCURVE",
"389 246 CURVE SMOOTH",
"389 136 OFFCURVE",
"340 64 OFFCURVE",
"233 64 CURVE SMOOTH",
"200 64 OFFCURVE",
"133 82 OFFCURVE",
"122 145 CURVE",
"105 127 LINE",
"214 128 OFFCURVE",
"288 192 OFFCURVE",
"288 277 CURVE SMOOTH",
"288 349 OFFCURVE",
"244 395 OFFCURVE",
"169 395 CURVE SMOOTH",
"144 395 OFFCURVE",
"84 384 OFFCURVE",
"47 330 CURVE",
"103 281 LINE",
"114 299 OFFCURVE",
"142 321 OFFCURVE",
"166 321 CURVE SMOOTH",
"192 321 OFFCURVE",
"210 308 OFFCURVE",
"210 280 CURVE SMOOTH",
"210 214 OFFCURVE",
"142 186 OFFCURVE",
"89 186 CURVE SMOOTH",
"72 186 OFFCURVE",
"52 188 OFFCURVE",
"40 190 CURVE",
"40 63 OFFCURVE",
"133 -10 OFFCURVE",
"237 -10 CURVE SMOOTH"
);
}
);
width = 497;
}
);
unicode = 118DA;
category = Letter;
},
{
glyphname = uni118DB;
lastChange = "2018-04-10 19:53:07 +0000";
layers = (
{
layerId = UUID0;
paths = (
{
closed = 1;
nodes = (
"205 0 OFFCURVE",
"370 43 OFFCURVE",
"370 186 CURVE SMOOTH",
"370 266 OFFCURVE",
"322 330 OFFCURVE",
"224 330 CURVE SMOOTH",
"201 330 OFFCURVE",
"182 324 OFFCURVE",
"165 316 CURVE",
"178 379 OFFCURVE",
"194 430 OFFCURVE",
"254 430 CURVE SMOOTH",
"290 430 OFFCURVE",
"319 418 OFFCURVE",
"340 408 CURVE",
"363 479 LINE",
"344 488 OFFCURVE",
"303 504 OFFCURVE",
"251 504 CURVE SMOOTH",
"151 504 OFFCURVE",
"113 423 OFFCURVE",
"92 335 CURVE SMOOTH",
"68 233 LINE",
"143 210 LINE",
"159 246 OFFCURVE",
"192 256 OFFCURVE",
"218 256 CURVE SMOOTH",
"269 256 OFFCURVE",
"292 226 OFFCURVE",
"292 189 CURVE SMOOTH",
"292 103 OFFCURVE",
"200 74 OFFCURVE",
"72 74 CURVE SMOOTH",
"57 74 OFFCURVE",
"42 75 OFFCURVE",
"27 77 CURVE",
"20 3 LINE",
"42 1 OFFCURVE",
"62 0 OFFCURVE",
"81 0 CURVE SMOOTH"
);
}
);
width = 400;
}
);
unicode = 118DB;
category = Letter;
},
{
glyphname = uni118DC;
lastChange = "2018-04-10 19:53:07 +0000";
layers = (
{
layerId = UUID0;
paths = (
{
closed = 1;
nodes = (
"266 -10 OFFCURVE",
"313 51 OFFCURVE",
"313 136 CURVE SMOOTH",
"313 175 OFFCURVE",
"308 255 OFFCURVE",
"248 341 CURVE",
"288 376 OFFCURVE",
"341 400 OFFCURVE",
"408 400 CURVE SMOOTH",
"423 400 LINE",
"434 474 LINE",
"428 475 OFFCURVE",
"423 475 OFFCURVE",
"417 475 CURVE SMOOTH",
"338 475 OFFCURVE",
"263 444 OFFCURVE",
"203 395 CURVE",
"165 433 OFFCURVE",
"115 470 OFFCURVE",
"48 504 CURVE",
"10 444 LINE",
"72 410 OFFCURVE",
"117 375 OFFCURVE",
"150 343 CURVE",
"100 284 OFFCURVE",
"70 210 OFFCURVE",
"70 136 CURVE SMOOTH",
"70 51 OFFCURVE",
"117 -10 OFFCURVE",
"190 -10 CURVE SMOOTH"
);
},
{
closed = 1;
nodes = (
"166 64 OFFCURVE",
"148 99 OFFCURVE",
"148 144 CURVE SMOOTH",
"148 180 OFFCURVE",
"164 235 OFFCURVE",
"197 284 CURVE",
"233 227 OFFCURVE",
"235 177 OFFCURVE",
"235 144 CURVE SMOOTH",
"235 99 OFFCURVE",
"217 64 OFFCURVE",
"192 64 CURVE SMOOTH"
);
}
);
width = 454;
}
);
unicode = 118DC;
category = Letter;
},
{
glyphname = uni118DD;
lastChange = "2018-04-10 19:53:07 +0000";
layers = (
{
layerId = UUID0;
paths = (
{
closed = 1;
nodes = (
"371 -10 OFFCURVE",
"421 87 OFFCURVE",
"421 185 CURVE SMOOTH",
"421 494 LINE",
"342 494 LINE",
"342 191 LINE SMOOTH",
"342 140 OFFCURVE",
"324 64 OFFCURVE",
"261 64 CURVE SMOOTH",
"224 64 OFFCURVE",
"198 97 OFFCURVE",
"198 155 CURVE SMOOTH",
"198 196 OFFCURVE",
"215 227 OFFCURVE",
"263 227 CURVE SMOOTH",
"277 227 OFFCURVE",
"292 226 OFFCURVE",
"307 223 CURVE",
"307 300 LINE",
"291 301 OFFCURVE",
"274 301 OFFCURVE",
"260 301 CURVE",
"208 328 OFFCURVE",
"187 374 OFFCURVE",
"171 415 CURVE SMOOTH",
"152 463 OFFCURVE",
"135 504 OFFCURVE",
"74 504 CURVE SMOOTH",
"55 504 OFFCURVE",
"38 503 OFFCURVE",
"27 501 CURVE",
"20 427 LINE",
"30 429 OFFCURVE",
"40 430 OFFCURVE",
"51 430 CURVE SMOOTH",
"80 430 OFFCURVE",
"95 411 OFFCURVE",
"116 360 CURVE SMOOTH",
"133 318 OFFCURVE",
"150 278 OFFCURVE",
"206 259 CURVE",
"207 284 LINE",
"140 256 OFFCURVE",
"120 201 OFFCURVE",
"120 147 CURVE SMOOTH",
"120 62 OFFCURVE",
"168 -10 OFFCURVE",
"263 -10 CURVE SMOOTH"
);
}
);
width = 471;
}
);
unicode = 118DD;
category = Letter;
},
{
glyphname = uni118DE;
lastChange = "2018-04-10 19:53:07 +0000";
layers = (
{
layerId = UUID0;
paths = (
{
closed = 1;
nodes = (
"361 -10 OFFCURVE",
"388 -8 OFFCURVE",
"416 -4 CURVE",
"416 71 LINE",
"392 66 OFFCURVE",
"368 64 OFFCURVE",
"345 64 CURVE SMOOTH",
"203 64 OFFCURVE",
"108 131 OFFCURVE",
"108 203 CURVE SMOOTH",
"108 234 OFFCURVE",
"126 244 OFFCURVE",
"152 244 CURVE SMOOTH",
"173 244 OFFCURVE",
"198 228 OFFCURVE",
"198 190 CURVE SMOOTH",
"198 185 OFFCURVE",
"198 180 OFFCURVE",
"197 174 CURVE",
"254 141 LINE",
"273 158 OFFCURVE",
"288 180 OFFCURVE",
"295 205 CURVE",
"277 203 LINE",
"306 164 OFFCURVE",
"346 142 OFFCURVE",
"390 142 CURVE SMOOTH",
"468 142 OFFCURVE",
"541 212 OFFCURVE",
"566 384 CURVE",
"493 401 LINE",
"476 291 OFFCURVE",
"436 216 OFFCURVE",
"391 216 CURVE SMOOTH",
"376 216 OFFCURVE",
"344 225 OFFCURVE",
"321 253 CURVE",
"324 268 OFFCURVE",
"326 284 OFFCURVE",
"326 301 CURVE SMOOTH",
"326 393 OFFCURVE",
"260 465 OFFCURVE",
"170 510 CURVE",
"127 446 LINE",
"183 421 OFFCURVE",
"248 371 OFFCURVE",
"248 301 CURVE SMOOTH",
"248 282 OFFCURVE",
"246 265 OFFCURVE",
"242 250 CURVE",
"227 303 OFFCURVE",
"184 318 OFFCURVE",
"149 318 CURVE SMOOTH",
"74 318 OFFCURVE",
"30 272 OFFCURVE",
"30 200 CURVE SMOOTH",
"30 118 OFFCURVE",
"127 -10 OFFCURVE",
"336 -10 CURVE SMOOTH"
);
}
);
width = 576;
}
);
unicode = 118DE;
category = Letter;
},
{
glyphname = uni118DF;
lastChange = "2018-04-10 19:53:07 +0000";
layers = (
{
layerId = UUID0;
paths = (
{
closed = 1;
nodes = (
"426 19 OFFCURVE",
"456 77 OFFCURVE",
"456 145 CURVE SMOOTH",
"456 226 OFFCURVE",
"407 275 OFFCURVE",
"311 281 CURVE",
"325 321 LINE SMOOTH",
"353 398 OFFCURVE",
"367 430 OFFCURVE",
"395 430 CURVE SMOOTH",
"417 430 OFFCURVE",
"427 417 OFFCURVE",
"440 371 CURVE",
"504 406 LINE",
"480 473 OFFCURVE",
"448 504 OFFCURVE",
"391 504 CURVE SMOOTH",
"327 504 OFFCURVE",
"288 436 OFFCURVE",
"255 343 CURVE SMOOTH",
"195 173 LINE SMOOTH",
"171 105 OFFCURVE",
"155 64 OFFCURVE",
"119 64 CURVE SMOOTH",
"89 64 OFFCURVE",
"66 78 OFFCURVE",
"33 104 CURVE",
"0 38 LINE",
"42 9 OFFCURVE",
"71 -10 OFFCURVE",
"124 -10 CURVE SMOOTH",
"199 -10 OFFCURVE",
"232 58 OFFCURVE",
"265 151 CURVE SMOOTH",
"286 211 LINE",
"334 209 OFFCURVE",
"378 199 OFFCURVE",
"378 137 CURVE SMOOTH",
"378 88 OFFCURVE",
"354 51 OFFCURVE",
"326 27 CURVE",
"381 -19 LINE"
);
}
);
width = 524;
}
);
unicode = 118DF;
category = Letter;
},
{
glyphname = uni118E0;
lastChange = "2018-04-10 19:53:07 +0000";
layers = (
{
layerId = UUID0;
paths = (
{
closed = 1;
nodes = (
"392 -10 OFFCURVE",
"493 144 OFFCURVE",
"493 337 CURVE SMOOTH",
"493 530 OFFCURVE",
"392 684 OFFCURVE",
"277 684 CURVE SMOOTH",
"161 684 OFFCURVE",
"60 530 OFFCURVE",
"60 337 CURVE SMOOTH",
"60 144 OFFCURVE",
"161 -10 OFFCURVE",
"277 -10 CURVE SMOOTH"
);
},
{
closed = 1;
nodes = (
"213 65 OFFCURVE",
"148 164 OFFCURVE",
"148 335 CURVE SMOOTH",
"148 506 OFFCURVE",
"213 609 OFFCURVE",
"277 609 CURVE SMOOTH",
"340 609 OFFCURVE",
"405 506 OFFCURVE",
"405 335 CURVE SMOOTH",
"405 164 OFFCURVE",
"340 65 OFFCURVE",
"277 65 CURVE SMOOTH"
);
}
);
width = 553;
}
);
unicode = 118E0;
category = Letter;
},
{
glyphname = uni118E1;
lastChange = "2018-04-10 19:53:07 +0000";
layers = (
{
layerId = UUID0;
paths = (
{
closed = 1;
nodes = (
"230 -10 OFFCURVE",
"316 95 OFFCURVE",
"316 252 CURVE SMOOTH",
"316 290 OFFCURVE",
"311 316 OFFCURVE",
"305 343 CURVE SMOOTH",
"299 371 OFFCURVE",
"294 399 OFFCURVE",
"294 444 CURVE SMOOTH",
"294 525 OFFCURVE",
"305 572 OFFCURVE",
"403 631 CURVE",
"361 698 LINE",
"228 619 OFFCURVE",
"206 527 OFFCURVE",
"206 445 CURVE SMOOTH",
"206 407 OFFCURVE",
"209 383 OFFCURVE",
"213 353 CURVE",
"119 313 OFFCURVE",
"30 228 OFFCURVE",
"30 110 CURVE SMOOTH",
"30 38 OFFCURVE",
"67 -10 OFFCURVE",
"133 -10 CURVE SMOOTH"
);
},
{
closed = 1;
nodes = (
"123 65 OFFCURVE",
"116 79 OFFCURVE",
"116 100 CURVE SMOOTH",
"116 184 OFFCURVE",
"156 244 OFFCURVE",
"225 273 CURVE",
"227 264 OFFCURVE",
"228 255 OFFCURVE",
"228 250 CURVE SMOOTH",
"228 109 OFFCURVE",
"157 65 OFFCURVE",
"138 65 CURVE SMOOTH"
);
}
);
width = 413;
}
);
unicode = 118E1;
category = Letter;
},
{
glyphname = uni118E2;
lastChange = "2018-04-10 19:53:07 +0000";
layers = (
{
layerId = UUID0;
paths = (
{
closed = 1;
nodes = (
"236 -10 OFFCURVE",
"316 76 OFFCURVE",
"316 242 CURVE SMOOTH",
"316 289 OFFCURVE",
"312 314 OFFCURVE",
"307 341 CURVE SMOOTH",
"299 382 OFFCURVE",
"294 414 OFFCURVE",
"294 457 CURVE SMOOTH",
"294 555 OFFCURVE",
"327 609 OFFCURVE",
"378 609 CURVE SMOOTH",
"427 609 OFFCURVE",
"459 553 OFFCURVE",
"459 457 CURVE SMOOTH",
"459 414 OFFCURVE",
"453 380 OFFCURVE",
"446 341 CURVE SMOOTH",
"441 314 OFFCURVE",
"437 289 OFFCURVE",
"437 242 CURVE SMOOTH",
"437 76 OFFCURVE",
"517 -10 OFFCURVE",
"610 -10 CURVE SMOOTH",
"684 -10 OFFCURVE",
"723 45 OFFCURVE",
"723 120 CURVE SMOOTH",
"723 246 OFFCURVE",
"620 323 OFFCURVE",
"518 361 CURVE",
"532 334 LINE",
"540 369 OFFCURVE",
"547 409 OFFCURVE",
"547 455 CURVE SMOOTH",
"547 599 OFFCURVE",
"466 684 OFFCURVE",
"378 684 CURVE SMOOTH",
"287 684 OFFCURVE",
"206 599 OFFCURVE",
"206 455 CURVE SMOOTH",
"206 409 OFFCURVE",
"213 369 OFFCURVE",
"221 334 CURVE",
"235 361 LINE",
"132 323 OFFCURVE",
"30 246 OFFCURVE",
"30 120 CURVE SMOOTH",
"30 45 OFFCURVE",
"69 -10 OFFCURVE",
"143 -10 CURVE SMOOTH"
);
},
{
closed = 1;
nodes = (
"132 68 OFFCURVE",
"118 83 OFFCURVE",
"118 114 CURVE SMOOTH",
"118 196 OFFCURVE",
"177 260 OFFCURVE",
"244 280 CURVE",
"220 293 LINE",
"227 273 OFFCURVE",
"228 265 OFFCURVE",
"228 240 CURVE SMOOTH",
"228 128 OFFCURVE",
"189 68 OFFCURVE",
"150 68 CURVE SMOOTH"
);
},
{
closed = 1;
nodes = (
"561 68 OFFCURVE",
"525 130 OFFCURVE",
"525 240 CURVE SMOOTH",
"525 265 OFFCURVE",
"526 273 OFFCURVE",
"529 293 CURVE",
"507 280 LINE",
"576 260 OFFCURVE",
"635 196 OFFCURVE",
"635 114 CURVE SMOOTH",
"635 83 OFFCURVE",
"621 68 OFFCURVE",
"603 68 CURVE SMOOTH"
);
}
);
width = 753;
}
);
unicode = 118E2;
category = Letter;
},
{
glyphname = uni118E3;
lastChange = "2018-04-10 19:53:07 +0000";
layers = (
{
layerId = UUID0;
paths = (
{
closed = 1;
nodes = (
"373 0 LINE",
"373 484 LINE SMOOTH",
"373 653 OFFCURVE",
"350 684 OFFCURVE",
"287 684 CURVE SMOOTH",
"229 684 OFFCURVE",
"187 616 OFFCURVE",
"154 563 CURVE",
"168 446 LINE",
"180 499 OFFCURVE",
"248 608 OFFCURVE",
"270 608 CURVE SMOOTH",
"285 608 OFFCURVE",
"291 590 OFFCURVE",
"291 523 CURVE SMOOTH",
"291 0 LINE"
);
},
{
closed = 1;
nodes = (
"195 0 LINE",
"195 484 LINE SMOOTH",
"195 616 OFFCURVE",
"185 684 OFFCURVE",
"99 684 CURVE SMOOTH",
"40 684 OFFCURVE",
"12 629 OFFCURVE",
"0 600 CURVE",
"59 575 LINE",
"69 595 OFFCURVE",
"78 608 OFFCURVE",
"89 608 CURVE SMOOTH",
"109 608 OFFCURVE",
"113 590 OFFCURVE",
"113 523 CURVE SMOOTH",
"113 0 LINE"
);
},
{
closed = 1;
nodes = (
"639 -10 OFFCURVE",
"672 64 OFFCURVE",
"711 205 CURVE",
"636 230 LINE",
"608 131 OFFCURVE",
"587 65 OFFCURVE",
"571 65 CURVE SMOOTH",
"553 65 OFFCURVE",
"551 94 OFFCURVE",
"551 150 CURVE SMOOTH",
"551 374 LINE",
"469 374 LINE",
"469 180 LINE SMOOTH",
"469 48 OFFCURVE",
"494 -10 OFFCURVE",
"563 -10 CURVE SMOOTH"
);
},
{
closed = 1;
nodes = (
"551 300 LINE",
"551 484 LINE SMOOTH",
"551 656 OFFCURVE",
"525 684 OFFCURVE",
"465 684 CURVE SMOOTH",
"407 684 OFFCURVE",
"365 617 OFFCURVE",
"332 563 CURVE",
"346 446 LINE",
"358 499 OFFCURVE",
"426 608 OFFCURVE",
"448 608 CURVE SMOOTH",
"463 608 OFFCURVE",
"469 590 OFFCURVE",
"469 523 CURVE SMOOTH",
"469 300 LINE"
);
}
);
width = 711;
}
);
unicode = 118E3;
category = Letter;
},
{
glyphname = uni118E4;
lastChange = "2018-04-10 19:53:07 +0000";
layers = (
{
layerId = UUID0;
paths = (
{
closed = 1;
nodes = (
"334 0 LINE",
"334 508 LINE SMOOTH",
"334 618 OFFCURVE",
"276 684 OFFCURVE",
"178 684 CURVE SMOOTH",
"91 684 OFFCURVE",
"30 615 OFFCURVE",
"30 529 CURVE SMOOTH",
"30 430 OFFCURVE",
"94 368 OFFCURVE",
"202 368 CURVE SMOOTH",
"490 368 LINE",
"490 443 LINE",
"208 443 LINE SMOOTH",
"142 443 OFFCURVE",
"116 477 OFFCURVE",
"116 530 CURVE SMOOTH",
"116 575 OFFCURVE",
"139 609 OFFCURVE",
"178 609 CURVE SMOOTH",
"222 609 OFFCURVE",
"252 583 OFFCURVE",
"252 510 CURVE SMOOTH",
"252 0 LINE"
);
}
);
width = 500;
}
);
unicode = 118E4;
category = Letter;
},
{
glyphname = uni118E5;
lastChange = "2018-04-10 19:53:07 +0000";
layers = (
{
layerId = UUID0;
paths = (
{
closed = 1;
nodes = (
"197 -10 OFFCURVE",
"231 28 OFFCURVE",
"271 100 CURVE",
"338 50 OFFCURVE",
"419 -10 OFFCURVE",
"502 -10 CURVE SMOOTH",
"568 -10 OFFCURVE",
"615 37 OFFCURVE",
"618 121 CURVE",
"546 141 LINE",
"545 88 OFFCURVE",
"529 65 OFFCURVE",
"499 65 CURVE SMOOTH",
"449 65 OFFCURVE",
"358 128 OFFCURVE",
"285 182 CURVE",
"293 138 LINE",
"441 470 LINE",
"473 457 OFFCURVE",
"504 449 OFFCURVE",
"533 449 CURVE SMOOTH",
"608 449 OFFCURVE",
"658 498 OFFCURVE",
"658 575 CURVE SMOOTH",
"658 639 OFFCURVE",
"623 684 OFFCURVE",
"549 684 CURVE SMOOTH",
"486 684 OFFCURVE",
"447 645 OFFCURVE",
"406 574 CURVE",
"327 629 OFFCURVE",
"248 684 OFFCURVE",
"176 684 CURVE SMOOTH",
"107 684 OFFCURVE",
"63 637 OFFCURVE",
"60 553 CURVE",
"132 533 LINE",
"133 596 OFFCURVE",
"159 609 OFFCURVE",
"179 609 CURVE SMOOTH",
"215 609 OFFCURVE",
"290 559 OFFCURVE",
"371 505 CURVE",
"236 203 LINE",
"205 216 OFFCURVE",
"176 225 OFFCURVE",
"148 225 CURVE SMOOTH",
"68 225 OFFCURVE",
"20 175 OFFCURVE",
"20 103 CURVE SMOOTH",
"20 42 OFFCURVE",
"59 -10 OFFCURVE",
"129 -10 CURVE SMOOTH"
);
},
{
closed = 1;
nodes = (
"113 62 OFFCURVE",
"100 80 OFFCURVE",
"100 107 CURVE SMOOTH",
"100 136 OFFCURVE",
"121 153 OFFCURVE",
"146 153 CURVE SMOOTH",
"172 153 OFFCURVE",
"191 144 OFFCURVE",
"203 136 CURVE",
"175 85 OFFCURVE",
"156 62 OFFCURVE",
"134 62 CURVE SMOOTH"
);
},
{
closed = 1;
nodes = (
"518 521 OFFCURVE",
"497 527 OFFCURVE",
"474 537 CURVE",
"502 589 OFFCURVE",
"524 612 OFFCURVE",
"547 612 CURVE SMOOTH",
"568 612 OFFCURVE",
"578 591 OFFCURVE",
"578 567 CURVE SMOOTH",
"578 541 OFFCURVE",
"565 521 OFFCURVE",
"537 521 CURVE SMOOTH"
);
}
);
width = 678;
}
);
unicode = 118E5;
category = Letter;
},
{
glyphname = uni118E6;
lastChange = "2018-04-10 19:53:07 +0000";
layers = (
{
layerId = UUID0;
paths = (
{
closed = 1;
nodes = (
"319 0 LINE",
"376 461 LINE",
"434 0 LINE",
"516 0 LINE",
"576 510 LINE SMOOTH",
"584 582 OFFCURVE",
"593 609 OFFCURVE",
"624 609 CURVE SMOOTH",
"640 609 OFFCURVE",
"653 596 OFFCURVE",
"653 570 CURVE SMOOTH",
"653 543 OFFCURVE",
"646 508 OFFCURVE",
"628 474 CURVE",
"700 452 LINE",
"713 473 OFFCURVE",
"733 518 OFFCURVE",
"733 568 CURVE SMOOTH",
"733 645 OFFCURVE",
"683 684 OFFCURVE",
"627 684 CURVE SMOOTH",
"539 684 OFFCURVE",
"506 637 OFFCURVE",
"494 508 CURVE SMOOTH",
"466 206 LINE",
"474 206 LINE",
"414 674 LINE",
"339 674 LINE",
"279 206 LINE",
"287 206 LINE",
"259 508 LINE SMOOTH",
"247 637 OFFCURVE",
"214 684 OFFCURVE",
"129 684 CURVE SMOOTH",
"70 684 OFFCURVE",
"20 645 OFFCURVE",
"20 568 CURVE SMOOTH",
"20 518 OFFCURVE",
"40 473 OFFCURVE",
"53 452 CURVE",
"125 474 LINE",
"107 508 OFFCURVE",
"100 543 OFFCURVE",
"100 570 CURVE SMOOTH",
"100 596 OFFCURVE",
"113 609 OFFCURVE",
"129 609 CURVE SMOOTH",
"160 609 OFFCURVE",
"169 582 OFFCURVE",
"177 510 CURVE SMOOTH",
"237 0 LINE"
);
}
);
width = 753;
}
);
unicode = 118E6;
category = Letter;
},
{
glyphname = uni118E7;
lastChange = "2018-04-10 19:53:07 +0000";
layers = (
{
layerId = UUID0;
paths = (
{
closed = 1;
nodes = (
"439 -6 OFFCURVE",
"583 108 OFFCURVE",
"583 345 CURVE SMOOTH",
"583 474 OFFCURVE",
"538 610 OFFCURVE",
"473 701 CURVE",
"400 663 LINE",
"450 590 OFFCURVE",
"495 468 OFFCURVE",
"495 345 CURVE SMOOTH",
"495 134 OFFCURVE",
"367 69 OFFCURVE",
"290 69 CURVE SMOOTH",
"183 69 OFFCURVE",
"117 138 OFFCURVE",
"117 259 CURVE",
"104 236 LINE",
"122 229 OFFCURVE",
"131 226 OFFCURVE",
"149 226 CURVE SMOOTH",
"230 226 OFFCURVE",
"297 288 OFFCURVE",
"297 387 CURVE SMOOTH",
"297 473 OFFCURVE",
"240 542 OFFCURVE",
"153 542 CURVE SMOOTH",
"82 542 OFFCURVE",
"40 503 OFFCURVE",
"20 447 CURVE",
"85 411 LINE",
"95 452 OFFCURVE",
"123 467 OFFCURVE",
"149 467 CURVE SMOOTH",
"188 467 OFFCURVE",
"211 433 OFFCURVE",
"211 388 CURVE SMOOTH",
"211 328 OFFCURVE",
"182 301 OFFCURVE",
"141 301 CURVE SMOOTH",
"117 301 OFFCURVE",
"96 309 OFFCURVE",
"82 323 CURVE",
"33 289 LINE",
"35 80 OFFCURVE",
"142 -6 OFFCURVE",
"286 -6 CURVE SMOOTH"
);
}
);
width = 623;
}
);
unicode = 118E7;
category = Letter;
},
{
glyphname = uni118E8;
lastChange = "2018-04-10 19:53:07 +0000";
layers = (
{
layerId = UUID0;
paths = (
{
closed = 1;
nodes = (
"251 41 OFFCURVE",
"495 230 OFFCURVE",
"495 474 CURVE SMOOTH",
"495 615 OFFCURVE",
"389 684 OFFCURVE",
"283 684 CURVE SMOOTH",
"225 684 OFFCURVE",
"168 667 OFFCURVE",
"120 634 CURVE",
"163 563 LINE",
"201 596 OFFCURVE",
"245 609 OFFCURVE",
"279 609 CURVE SMOOTH",
"356 609 OFFCURVE",
"407 546 OFFCURVE",
"407 464 CURVE SMOOTH",
"407 257 OFFCURVE",
"180 110 OFFCURVE",
"0 62 CURVE",
"20 -17 LINE"
);
}
);
width = 535;
}
);
unicode = 118E8;
category = Letter;
},
{
glyphname = uni118E9;
lastChange = "2018-04-10 19:53:07 +0000";
layers = (
{
layerId = UUID0;
paths = (
{
closed = 1;
nodes = (
"525 62 LINE",
"345 110 OFFCURVE",
"128 210 OFFCURVE",
"128 417 CURVE SMOOTH",
"128 499 OFFCURVE",
"179 572 OFFCURVE",
"256 572 CURVE SMOOTH",
"290 572 OFFCURVE",
"317 565 OFFCURVE",
"354 541 CURVE",
"436 565 LINE",
"436 684 LINE",
"354 684 LINE",
"354 596 LINE",
"375 611 LINE",
"335 638 OFFCURVE",
"294 647 OFFCURVE",
"252 647 CURVE SMOOTH",
"146 647 OFFCURVE",
"40 568 OFFCURVE",
"40 427 CURVE SMOOTH",
"40 183 OFFCURVE",
"274 41 OFFCURVE",
"505 -17 CURVE"
);
}
);
width = 525;
}
);
unicode = 118E9;
category = Letter;
},
{
glyphname = uni118EA;
lastChange = "2018-04-10 19:53:07 +0000";
layers = (
{
layerId = UUID0;
paths = (
{
closed = 1;
nodes = (
"466 -10 OFFCURVE",
"601 157 OFFCURVE",
"658 328 CURVE",
"587 362 LINE",
"542 207 OFFCURVE",
"428 65 OFFCURVE",
"368 65 CURVE SMOOTH",
"314 65 OFFCURVE",
"127 255 OFFCURVE",
"118 408 CURVE",
"208 403 OFFCURVE",
"272 354 OFFCURVE",
"388 231 CURVE",
"449 258 LINE",
"449 674 LINE",
"367 674 LINE",
"367 331 LINE",
"383 334 LINE",
"305 443 OFFCURVE",
"167 494 OFFCURVE",
"83 494 CURVE SMOOTH",
"52 494 OFFCURVE",
"30 469 OFFCURVE",
"30 423 CURVE SMOOTH",
"30 215 OFFCURVE",
"282 -10 OFFCURVE",
"370 -10 CURVE SMOOTH"
);
}
);
width = 678;
}
);
unicode = 118EA;
category = Letter;
},
{
glyphname = uni118EB;
lastChange = "2018-04-10 19:53:07 +0000";
layers = (
{
layerId = UUID0;
paths = (
{
closed = 1;
nodes = (
"102 175 OFFCURVE",
"118 212 OFFCURVE",
"137 245 CURVE",
"188 191 OFFCURVE",
"251 156 OFFCURVE",
"326 156 CURVE SMOOTH",
"396 156 OFFCURVE",
"457 191 OFFCURVE",
"507 246 CURVE",
"526 212 OFFCURVE",
"542 175 OFFCURVE",
"555 136 CURVE",
"624 166 LINE",
"606 217 OFFCURVE",
"584 267 OFFCURVE",
"556 310 CURVE",
"584 354 OFFCURVE",
"606 403 OFFCURVE",
"624 455 CURVE",
"555 485 LINE",
"542 445 OFFCURVE",
"526 408 OFFCURVE",
"507 375 CURVE",
"457 430 OFFCURVE",
"396 465 OFFCURVE",
"326 465 CURVE SMOOTH",
"251 465 OFFCURVE",
"188 430 OFFCURVE",
"137 375 CURVE",
"118 408 OFFCURVE",
"102 445 OFFCURVE",
"89 485 CURVE",
"20 455 LINE",
"37 403 OFFCURVE",
"59 354 OFFCURVE",
"87 310 CURVE",
"59 267 OFFCURVE",
"37 217 OFFCURVE",
"20 166 CURVE",
"89 136 LINE"
);
},
{
closed = 1;
nodes = (
"267 227 OFFCURVE",
"211 268 OFFCURVE",
"165 330 CURVE",
"165 289 LINE",
"211 363 OFFCURVE",
"267 394 OFFCURVE",
"327 394 CURVE SMOOTH",
"382 394 OFFCURVE",
"437 363 OFFCURVE",
"481 289 CURVE",
"481 331 LINE",
"437 268 OFFCURVE",
"382 227 OFFCURVE",
"327 227 CURVE SMOOTH"
);
}
);
width = 644;
}
);
unicode = 118EB;
category = Letter;
},
{
glyphname = uni118EC;
lastChange = "2018-04-10 19:53:07 +0000";
layers = (
{
layerId = UUID0;
paths = (
{
closed = 1;
nodes = (
"150 187 OFFCURVE",
"248 304 OFFCURVE",
"336 304 CURVE SMOOTH",
"410 304 OFFCURVE",
"502 226 OFFCURVE",
"584 -15 CURVE",
"653 11 LINE",
"606 168 OFFCURVE",
"531 285 OFFCURVE",
"448 341 CURVE",
"531 397 OFFCURVE",
"606 514 OFFCURVE",
"653 672 CURVE",
"584 698 LINE",
"502 457 OFFCURVE",
"410 379 OFFCURVE",
"336 379 CURVE SMOOTH",
"248 379 OFFCURVE",
"150 496 OFFCURVE",
"89 698 CURVE",
"20 672 LINE",
"68 504 OFFCURVE",
"145 394 OFFCURVE",
"226 341 CURVE",
"145 288 OFFCURVE",
"68 178 OFFCURVE",
"20 11 CURVE",
"89 -15 LINE"
);
}
);
width = 673;
}
);
unicode = 118EC;
category = Letter;
},
{
glyphname = uni118ED;
lastChange = "2018-04-10 19:53:07 +0000";
layers = (
{
layerId = UUID0;
paths = (
{
closed = 1;
nodes = (
"607 -10 OFFCURVE",
"644 19 OFFCURVE",
"680 74 CURVE",
"616 117 LINE",
"593 79 OFFCURVE",
"575 62 OFFCURVE",
"555 62 CURVE SMOOTH",
"528 62 OFFCURVE",
"513 81 OFFCURVE",
"513 107 CURVE SMOOTH",
"513 134 OFFCURVE",
"518 154 OFFCURVE",
"524 174 CURVE SMOOTH",
"531 198 OFFCURVE",
"537 232 OFFCURVE",
"537 268 CURVE SMOOTH",
"537 376 OFFCURVE",
"463 443 OFFCURVE",
"355 443 CURVE SMOOTH",
"334 443 LINE",
"334 508 LINE SMOOTH",
"334 618 OFFCURVE",
"276 684 OFFCURVE",
"178 684 CURVE SMOOTH",
"91 684 OFFCURVE",
"30 615 OFFCURVE",
"30 529 CURVE SMOOTH",
"30 430 OFFCURVE",
"89 368 OFFCURVE",
"197 368 CURVE SMOOTH",
"252 368 LINE",
"252 0 LINE",
"334 0 LINE",
"334 368 LINE",
"352 368 LINE SMOOTH",
"419 368 OFFCURVE",
"453 329 OFFCURVE",
"453 258 CURVE SMOOTH",
"453 228 OFFCURVE",
"448 207 OFFCURVE",
"442 184 CURVE SMOOTH",
"435 159 OFFCURVE",
"429 137 OFFCURVE",
"429 107 CURVE SMOOTH",
"429 30 OFFCURVE",
"484 -10 OFFCURVE",
"553 -10 CURVE SMOOTH"
);
},
{
closed = 1;
nodes = (
"132 443 OFFCURVE",
"116 477 OFFCURVE",
"116 530 CURVE SMOOTH",
"116 575 OFFCURVE",
"139 609 OFFCURVE",
"178 609 CURVE SMOOTH",
"222 609 OFFCURVE",
"252 583 OFFCURVE",
"252 510 CURVE SMOOTH",
"252 443 LINE",
"198 443 LINE SMOOTH"
);
}
);
width = 690;
}
);
unicode = 118ED;
category = Letter;
},
{
glyphname = uni118EE;
lastChange = "2018-04-10 19:53:07 +0000";
layers = (
{
layerId = UUID0;
paths = (
{
closed = 1;
nodes = (
"192 -10 OFFCURVE",
"236 28 OFFCURVE",
"271 100 CURVE",
"351 47 OFFCURVE",
"439 -10 OFFCURVE",
"512 -10 CURVE SMOOTH",
"587 -10 OFFCURVE",
"622 45 OFFCURVE",
"622 103 CURVE SMOOTH",
"622 161 OFFCURVE",
"566 206 OFFCURVE",
"517 245 CURVE SMOOTH",
"387 348 LINE",
"441 470 LINE",
"473 457 OFFCURVE",
"504 449 OFFCURVE",
"533 449 CURVE SMOOTH",
"615 449 OFFCURVE",
"658 501 OFFCURVE",
"658 575 CURVE SMOOTH",
"658 639 OFFCURVE",
"614 684 OFFCURVE",
"545 684 CURVE SMOOTH",
"478 684 OFFCURVE",
"447 645 OFFCURVE",
"406 574 CURVE",
"327 626 OFFCURVE",
"238 684 OFFCURVE",
"166 684 CURVE SMOOTH",
"91 684 OFFCURVE",
"56 629 OFFCURVE",
"56 571 CURVE SMOOTH",
"56 513 OFFCURVE",
"111 466 OFFCURVE",
"160 428 CURVE SMOOTH",
"291 326 LINE",
"236 203 LINE",
"205 216 OFFCURVE",
"173 225 OFFCURVE",
"145 225 CURVE SMOOTH",
"71 225 OFFCURVE",
"20 176 OFFCURVE",
"20 104 CURVE SMOOTH",
"20 40 OFFCURVE",
"60 -10 OFFCURVE",
"131 -10 CURVE SMOOTH"
);
},
{
closed = 1;
nodes = (
"118 62 OFFCURVE",
"100 78 OFFCURVE",
"100 107 CURVE SMOOTH",
"100 137 OFFCURVE",
"119 153 OFFCURVE",
"141 153 CURVE SMOOTH",
"159 153 OFFCURVE",
"181 146 OFFCURVE",
"203 136 CURVE",
"175 85 OFFCURVE",
"158 62 OFFCURVE",
"136 62 CURVE SMOOTH"
);
},
{
closed = 1;
nodes = (
"463 65 OFFCURVE",
"387 114 OFFCURVE",
"306 168 CURVE",
"355 276 LINE",
"483 179 LINE SMOOTH",
"510 158 OFFCURVE",
"542 133 OFFCURVE",
"542 106 CURVE SMOOTH",
"542 82 OFFCURVE",
"530 65 OFFCURVE",
"499 65 CURVE SMOOTH"
);
},
{
closed = 1;
nodes = (
"195 495 LINE SMOOTH",
"168 516 OFFCURVE",
"136 541 OFFCURVE",
"136 568 CURVE SMOOTH",
"136 592 OFFCURVE",
"148 609 OFFCURVE",
"179 609 CURVE SMOOTH",
"215 609 OFFCURVE",
"292 558 OFFCURVE",
"371 505 CURVE",
"322 397 LINE"
);
},
{
closed = 1;
nodes = (
"518 521 OFFCURVE",
"497 527 OFFCURVE",
"474 537 CURVE",
"502 589 OFFCURVE",
"519 612 OFFCURVE",
"542 612 CURVE SMOOTH",
"562 612 OFFCURVE",
"578 597 OFFCURVE",
"578 567 CURVE SMOOTH",
"578 539 OFFCURVE",
"560 521 OFFCURVE",
"537 521 CURVE SMOOTH"
);
}
);
width = 678;
}
);
unicode = 118EE;
category = Letter;
},
{
glyphname = uni118EF;
lastChange = "2018-04-10 19:53:07 +0000";
layers = (
{
layerId = UUID0;
paths = (
{
closed = 1;
nodes = (
"319 0 LINE",
"380 524 LINE",
"372 524 LINE",
"434 0 LINE",
"516 0 LINE",
"576 510 LINE SMOOTH",
"584 582 OFFCURVE",
"593 609 OFFCURVE",
"624 609 CURVE SMOOTH",
"640 609 OFFCURVE",
"653 596 OFFCURVE",
"653 567 CURVE SMOOTH",
"653 480 OFFCURVE",
"615 434 OFFCURVE",
"550 414 CURVE",
"539 338 LINE",
"655 369 OFFCURVE",
"733 439 OFFCURVE",
"733 562 CURVE SMOOTH",
"733 639 OFFCURVE",
"689 684 OFFCURVE",
"629 684 CURVE SMOOTH",
"539 684 OFFCURVE",
"503 617 OFFCURVE",
"494 508 CURVE SMOOTH",
"481 354 LINE",
"471 139 LINE",
"476 139 LINE",
"414 674 LINE",
"339 674 LINE",
"278 139 LINE",
"283 139 LINE",
"272 350 LINE",
"259 508 LINE SMOOTH",
"250 617 OFFCURVE",
"214 684 OFFCURVE",
"124 684 CURVE SMOOTH",
"59 684 OFFCURVE",
"20 637 OFFCURVE",
"20 562 CURVE SMOOTH",
"20 439 OFFCURVE",
"96 369 OFFCURVE",
"214 338 CURVE",
"203 413 LINE",
"138 434 OFFCURVE",
"100 480 OFFCURVE",
"100 566 CURVE SMOOTH",
"100 596 OFFCURVE",
"113 609 OFFCURVE",
"129 609 CURVE SMOOTH",
"160 609 OFFCURVE",
"169 582 OFFCURVE",
"177 510 CURVE SMOOTH",
"237 0 LINE"
);
},
{
closed = 1;
nodes = (
"418 318 OFFCURVE",
"465 322 OFFCURVE",
"495 326 CURVE",
"503 401 LINE",
"478 395 OFFCURVE",
"424 390 OFFCURVE",
"376 390 CURVE SMOOTH",
"328 390 OFFCURVE",
"275 395 OFFCURVE",
"252 401 CURVE",
"256 327 LINE",
"290 321 OFFCURVE",
"332 318 OFFCURVE",
"375 318 CURVE SMOOTH"
);
}
);
width = 753;
}
);
unicode = 118EF;
category = Letter;
},
{
glyphname = uni118F0;
lastChange = "2018-04-10 19:53:07 +0000";
layers = (
{
layerId = UUID0;
paths = (
{
closed = 1;
nodes = (
"461 -6 OFFCURVE",
"603 98 OFFCURVE",
"603 335 CURVE SMOOTH",
"603 416 OFFCURVE",
"567 489 OFFCURVE",
"539 537 CURVE SMOOTH",
"525 561 OFFCURVE",
"517 576 OFFCURVE",
"517 589 CURVE SMOOTH",
"517 600 OFFCURVE",
"522 609 OFFCURVE",
"534 609 CURVE SMOOTH",
"561 609 OFFCURVE",
"591 575 OFFCURVE",
"628 483 CURVE",
"699 509 LINE",
"653 625 OFFCURVE",
"609 684 OFFCURVE",
"521 684 CURVE SMOOTH",
"461 684 OFFCURVE",
"429 645 OFFCURVE",
"429 596 CURVE SMOOTH",
"429 566 OFFCURVE",
"445 536 OFFCURVE",
"464 501 CURVE SMOOTH",
"488 456 OFFCURVE",
"515 404 OFFCURVE",
"515 335 CURVE SMOOTH",
"515 124 OFFCURVE",
"392 69 OFFCURVE",
"300 69 CURVE SMOOTH",
"204 69 OFFCURVE",
"118 126 OFFCURVE",
"118 259 CURVE",
"104 233 LINE",
"122 226 OFFCURVE",
"131 226 OFFCURVE",
"149 226 CURVE SMOOTH",
"230 226 OFFCURVE",
"297 288 OFFCURVE",
"297 387 CURVE SMOOTH",
"297 473 OFFCURVE",
"240 542 OFFCURVE",
"153 542 CURVE SMOOTH",
"82 542 OFFCURVE",
"40 503 OFFCURVE",
"20 447 CURVE",
"85 411 LINE",
"95 452 OFFCURVE",
"123 467 OFFCURVE",
"149 467 CURVE SMOOTH",
"188 467 OFFCURVE",
"211 433 OFFCURVE",
"211 388 CURVE SMOOTH",
"211 335 OFFCURVE",
"193 301 OFFCURVE",
"144 301 CURVE SMOOTH",
"130 301 OFFCURVE",
"97 308 OFFCURVE",
"82 323 CURVE",
"33 289 LINE",
"35 80 OFFCURVE",
"142 -6 OFFCURVE",
"297 -6 CURVE SMOOTH"
);
}
);
width = 699;
}
);
unicode = 118F0;
category = Letter;
},
{
glyphname = uni118F1;
lastChange = "2018-04-10 19:53:07 +0000";
layers = (
{
layerId = UUID0;
paths = (
{
closed = 1;
nodes = (
"311 72 OFFCURVE",
"466 241 OFFCURVE",
"466 407 CURVE SMOOTH",
"466 525 OFFCURVE",
"382 587 OFFCURVE",
"301 587 CURVE SMOOTH",
"237 587 OFFCURVE",
"189 555 OFFCURVE",
"163 520 CURVE",
"172 507 LINE",
"172 674 LINE",
"90 674 LINE",
"90 318 LINE",
"172 318 LINE",
"172 408 LINE",
"187 487 OFFCURVE",
"239 512 OFFCURVE",
"286 512 CURVE SMOOTH",
"340 512 OFFCURVE",
"378 479 OFFCURVE",
"378 401 CURVE SMOOTH",
"378 242 OFFCURVE",
"181 105 OFFCURVE",
"20 62 CURVE",
"40 -17 LINE"
);
}
);
width = 506;
}
);
unicode = 118F1;
category = Letter;
},
{
glyphname = uni118F2;
lastChange = "2018-04-10 19:53:07 +0000";
layers = (
{
layerId = UUID0;
paths = (
{
closed = 1;
nodes = (
"353 50 LINE",
"231 135 OFFCURVE",
"128 258 OFFCURVE",
"128 387 CURVE SMOOTH",
"128 474 OFFCURVE",
"164 512 OFFCURVE",
"220 512 CURVE SMOOTH",
"267 512 OFFCURVE",
"319 487 OFFCURVE",
"334 408 CURVE",
"334 388 LINE",
"416 388 LINE",
"416 674 LINE",
"334 674 LINE",
"334 507 LINE",
"351 520 LINE",
"328 558 OFFCURVE",
"269 587 OFFCURVE",
"205 587 CURVE SMOOTH",
"115 587 OFFCURVE",
"40 522 OFFCURVE",
"40 397 CURVE SMOOTH",
"40 241 OFFCURVE",
"157 90 OFFCURVE",
"301 -14 CURVE"
);
}
);
width = 476;
}
);
unicode = 118F2;
category = Letter;
},
{
glyphname = uni118FF;
lastChange = "2018-04-10 19:53:07 +0000";
layers = (
{
layerId = UUID0;
paths = (
{
closed = 1;
nodes = (
"488 -65 OFFCURVE",
"601 152 OFFCURVE",
"601 357 CURVE SMOOTH",
"601 496 OFFCURVE",
"548 542 OFFCURVE",
"469 542 CURVE SMOOTH",
"403 542 OFFCURVE",
"369 496 OFFCURVE",
"355 440 CURVE",
"334 465 OFFCURVE",
"305 483 OFFCURVE",
"270 483 CURVE SMOOTH",
"213 483 OFFCURVE",
"169 442 OFFCURVE",
"169 349 CURVE SMOOTH",
"169 225 OFFCURVE",
"224 120 OFFCURVE",
"306 38 CURVE",
"338 70 LINE",
"270 138 OFFCURVE",
"223 228 OFFCURVE",
"223 340 CURVE SMOOTH",
"223 390 OFFCURVE",
"236 433 OFFCURVE",
"274 433 CURVE SMOOTH",
"327 433 OFFCURVE",
"343 388 OFFCURVE",
"349 340 CURVE",
"349 86 LINE",
"399 86 LINE",
"399 349 LINE SMOOTH",
"399 405 OFFCURVE",
"408 492 OFFCURVE",
"469 492 CURVE SMOOTH",
"519 492 OFFCURVE",
"547 455 OFFCURVE",
"547 348 CURVE SMOOTH",
"547 164 OFFCURVE",
"444 -15 OFFCURVE",
"346 -15 CURVE SMOOTH",
"222 -15 OFFCURVE",
"114 212 OFFCURVE",
"114 409 CURVE SMOOTH",
"114 523 OFFCURVE",
"141 560 OFFCURVE",
"201 560 CURVE SMOOTH",
"234 560 OFFCURVE",
"256 550 OFFCURVE",
"276 537 CURVE SMOOTH",
"293 526 OFFCURVE",
"309 520 OFFCURVE",
"326 520 CURVE SMOOTH",
"372 520 OFFCURVE",
"376 571 OFFCURVE",
"376 609 CURVE SMOOTH",
"376 879 LINE",
"326 879 LINE",
"326 610 LINE SMOOTH",
"326 587 OFFCURVE",
"322 570 OFFCURVE",
"315 570 CURVE SMOOTH",
"309 570 OFFCURVE",
"302 573 OFFCURVE",
"289 582 CURVE SMOOTH",
"268 596 OFFCURVE",
"238 610 OFFCURVE",
"202 610 CURVE SMOOTH",
"111 610 OFFCURVE",
"60 553 OFFCURVE",
"60 413 CURVE SMOOTH",
"60 149 OFFCURVE",
"200 -65 OFFCURVE",
"343 -65 CURVE SMOOTH"
);
}
);
width = 661;
}
);
unicode = 118FF;
category = Letter;
},
{
glyphname = uni118AA.sm;
lastChange = "2018-04-10 19:53:07 +0000";
layers = (
{
layerId = UUID0;
paths = (
{
closed = 1;
nodes = (
"347 -8 OFFCURVE",
"475 137 OFFCURVE",
"475 290 CURVE SMOOTH",
"475 377 OFFCURVE",
"419 428 OFFCURVE",
"346 428 CURVE SMOOTH",
"313 428 OFFCURVE",
"281 420 OFFCURVE",
"258 410 CURVE",
"266 393 LINE",
"319 514 LINE",
"274 568 LINE",
"25 448 LINE",
"84 318 LINE",
"151 346 LINE",
"123 412 LINE",
"250 479 LINE",
"232 489 LINE",
"176 360 LINE",
"229 327 LINE",
"245 339 OFFCURVE",
"274 357 OFFCURVE",
"318 357 CURVE SMOOTH",
"356 357 OFFCURVE",
"387 337 OFFCURVE",
"387 285 CURVE SMOOTH",
"387 194 OFFCURVE",
"298 64 OFFCURVE",
"185 64 CURVE SMOOTH",
"150 64 OFFCURVE",
"133 83 OFFCURVE",
"133 111 CURVE SMOOTH",
"133 175 OFFCURVE",
"221 218 OFFCURVE",
"302 253 CURVE",
"271 316 LINE",
"114 250 OFFCURVE",
"44 180 OFFCURVE",
"44 104 CURVE SMOOTH",
"44 41 OFFCURVE",
"93 -8 OFFCURVE",
"180 -8 CURVE SMOOTH"
);
}
);
width = 522;
}
);
category = Letter;
},
{
glyphname = uni118AB.sm;
lastChange = "2018-04-10 19:53:07 +0000";
layers = (
{
layerId = UUID0;
paths = (
{
closed = 1;
nodes = (
"148 0 LINE",
"148 341 LINE",
"377 461 LINE",
"377 0 LINE",
"461 0 LINE",
"461 506 LINE",
"412 565 LINE",
"64 381 LINE",
"64 0 LINE"
);
}
);
width = 525;
}
);
category = Letter;
},
{
glyphname = uni118AC.sm;
lastChange = "2018-04-10 19:53:07 +0000";
layers = (
{
layerId = UUID0;
paths = (
{
closed = 1;
nodes = (
"399 0 LINE",
"399 285 LINE",
"491 285 LINE",
"491 357 LINE",
"399 357 LINE",
"399 557 LINE",
"64 557 LINE",
"64 285 LINE",
"315 285 LINE",
"315 72 LINE",
"64 72 LINE",
"64 0 LINE"
);
},
{
closed = 1;
nodes = (
"148 484 LINE",
"315 484 LINE",
"315 357 LINE",
"148 357 LINE"
);
}
);
width = 523;
}
);
category = Letter;
},
{
glyphname = uni118AD.sm;
lastChange = "2018-04-10 19:53:07 +0000";
layers = (
{
layerId = UUID0;
paths = (
{
closed = 1;
nodes = (
"246 -8 OFFCURVE",
"290 13 OFFCURVE",
"319 48 CURVE",
"348 13 OFFCURVE",
"391 -8 OFFCURVE",
"444 -8 CURVE SMOOTH",
"543 -8 OFFCURVE",
"608 69 OFFCURVE",
"608 162 CURVE SMOOTH",
"608 256 OFFCURVE",
"543 333 OFFCURVE",
"444 333 CURVE SMOOTH",
"413 333 OFFCURVE",
"385 325 OFFCURVE",
"362 312 CURVE",
"362 557 LINE",
"277 557 LINE",
"277 312 LINE",
"253 325 OFFCURVE",
"225 333 OFFCURVE",
"194 333 CURVE SMOOTH",
"96 333 OFFCURVE",
"30 256 OFFCURVE",
"30 162 CURVE SMOOTH",
"30 69 OFFCURVE",
"96 -8 OFFCURVE",
"194 -8 CURVE SMOOTH"
);
},
{
closed = 1;
nodes = (
"142 61 OFFCURVE",
"109 106 OFFCURVE",
"109 162 CURVE SMOOTH",
"109 219 OFFCURVE",
"142 264 OFFCURVE",
"194 264 CURVE SMOOTH",
"244 264 OFFCURVE",
"276 222 OFFCURVE",
"279 169 CURVE SMOOTH",
"279 162 LINE SMOOTH",
"279 106 OFFCURVE",
"246 61 OFFCURVE",
"194 61 CURVE SMOOTH"
);
},
{
closed = 1;
nodes = (
"392 61 OFFCURVE",
"359 106 OFFCURVE",
"359 162 CURVE",
"359 169 LINE SMOOTH",
"361 222 OFFCURVE",
"394 264 OFFCURVE",
"444 264 CURVE SMOOTH",
"496 264 OFFCURVE",
"529 219 OFFCURVE",
"529 162 CURVE SMOOTH",
"529 106 OFFCURVE",
"496 61 OFFCURVE",
"444 61 CURVE SMOOTH"
);
}
);
width = 638;
}
);
category = Letter;
},
{
glyphname = uni118AE.sm;
lastChange = "2018-04-10 19:53:07 +0000";
layers = (
{
layerId = UUID0;
paths = (
{
closed = 1;
nodes = (
"452 0 LINE",
"452 72 LINE",
"148 72 LINE",
"148 285 LINE",
"452 285 LINE",
"452 357 LINE",
"148 357 LINE",
"148 484 LINE",
"452 484 LINE",
"452 557 LINE",
"64 557 LINE",
"64 0 LINE"
);
}
);
width = 482;
}
);
category = Letter;
},
{
glyphname = uni118AF.sm;
lastChange = "2018-04-10 19:53:07 +0000";
layers = (
{
layerId = UUID0;
paths = (
{
closed = 1;
nodes = (
"498 0 LINE",
"498 557 LINE",
"414 557 LINE",
"414 357 LINE",
"148 357 LINE",
"148 484 LINE",
"347 484 LINE",
"347 557 LINE",
"64 557 LINE",
"64 285 LINE",
"414 285 LINE",
"414 0 LINE"
);
}
);
width = 562;
}
);
category = Letter;
},
{
glyphname = uni118B0.sm;
lastChange = "2018-04-10 19:53:07 +0000";
layers = (
{
layerId = UUID0;
paths = (
{
closed = 1;
nodes = (
"478 -8 OFFCURVE",
"513 48 OFFCURVE",
"513 179 CURVE SMOOTH",
"513 557 LINE",
"430 557 LINE",
"430 181 LINE SMOOTH",
"430 109 OFFCURVE",
"426 64 OFFCURVE",
"379 64 CURVE SMOOTH",
"334 64 OFFCURVE",
"331 104 OFFCURVE",
"331 181 CURVE SMOOTH",
"331 376 LINE SMOOTH",
"331 514 OFFCURVE",
"302 564 OFFCURVE",
"203 564 CURVE SMOOTH",
"100 564 OFFCURVE",
"64 509 OFFCURVE",
"64 378 CURVE SMOOTH",
"64 0 LINE",
"148 0 LINE",
"148 376 LINE SMOOTH",
"148 448 OFFCURVE",
"151 493 OFFCURVE",
"199 493 CURVE SMOOTH",
"244 493 OFFCURVE",
"247 453 OFFCURVE",
"247 376 CURVE SMOOTH",
"247 181 LINE SMOOTH",
"247 42 OFFCURVE",
"275 -8 OFFCURVE",
"375 -8 CURVE SMOOTH"
);
}
);
width = 577;
}
);
category = Letter;
},
{
glyphname = uni118B1.sm;
lastChange = "2018-04-10 19:53:07 +0000";
layers = (
{
layerId = UUID0;
paths = (
{
closed = 1;
nodes = (
"148 0 LINE",
"148 348 LINE",
"173 348 LINE SMOOTH",
"308 348 OFFCURVE",
"396 456 OFFCURVE",
"396 557 CURVE",
"313 561 LINE",
"311 495 OFFCURVE",
"258 421 OFFCURVE",
"174 421 CURVE SMOOTH",
"91 421 LINE",
"64 365 LINE",
"64 0 LINE"
);
}
);
width = 418;
}
);
category = Letter;
},
{
glyphname = uni118B2.sm;
lastChange = "2018-04-10 19:53:07 +0000";
layers = (
{
layerId = UUID0;
paths = (
{
closed = 1;
nodes = (
"481 0 LINE",
"532 237 LINE",
"450 237 LINE",
"413 72 LINE",
"194 72 LINE",
"194 557 LINE",
"110 557 LINE",
"110 72 LINE",
"26 72 LINE",
"26 0 LINE"
);
}
);
width = 556;
}
);
category = Letter;
},
{
glyphname = uni118B3.sm;
lastChange = "2018-04-10 19:53:07 +0000";
layers = (
{
layerId = UUID0;
paths = (
{
closed = 1;
nodes = (
"532 170 LINE",
"480 227 LINE",
"309 80 LINE",
"328 68 LINE",
"331 111 OFFCURVE",
"334 154.003 OFFCURVE",
"334 207 CURVE SMOOTH",
"334 543 LINE",
"273 564 LINE",
"24 446 LINE",
"20 418 LINE",
"104 278 LINE",
"173 319 LINE",
"118 408 LINE",
"279 486 LINE",
"255 505 LINE",
"252 472 OFFCURVE",
"249 440 OFFCURVE",
"249 387 CURVE SMOOTH",
"249 18 LINE",
"329 -9 LINE"
);
}
);
width = 562;
}
);
category = Letter;
},
{
glyphname = uni118B4.sm;
lastChange = "2018-04-10 19:53:07 +0000";
layers = (
{
layerId = UUID0;
paths = (
{
closed = 1;
nodes = (
"429 -8 OFFCURVE",
"499 82 OFFCURVE",
"499 199 CURVE SMOOTH",
"499 557 LINE",
"416 557 LINE",
"416 357 LINE",
"217 357 LINE",
"217 285 LINE",
"416 285 LINE",
"416 199 LINE SMOOTH",
"416 119 OFFCURVE",
"376 64 OFFCURVE",
"283 64 CURVE SMOOTH",
"193 64 OFFCURVE",
"148 112 OFFCURVE",
"148 198 CURVE SMOOTH",
"148 557 LINE",
"64 557 LINE",
"64 200 LINE SMOOTH",
"64 74 OFFCURVE",
"139 -8 OFFCURVE",
"279 -8 CURVE SMOOTH"
);
}
);
width = 563;
}
);
category = Letter;
},
{
glyphname = uni118B5.sm;
lastChange = "2018-04-10 19:53:07 +0000";
layers = (
{
layerId = UUID0;
paths = (
{
closed = 1;
nodes = (
"502 -8 OFFCURVE",
"623 122 OFFCURVE",
"623 280 CURVE SMOOTH",
"623 437 OFFCURVE",
"502 565 OFFCURVE",
"334 565 CURVE SMOOTH",
"167 565 OFFCURVE",
"48 437 OFFCURVE",
"48 280 CURVE SMOOTH",
"48 122 OFFCURVE",
"167 -8 OFFCURVE",
"334 -8 CURVE SMOOTH"
);
},
{
closed = 1;
nodes = (
"217 64 OFFCURVE",
"134 158 OFFCURVE",
"134 278 CURVE SMOOTH",
"134 398 OFFCURVE",
"217 494 OFFCURVE",
"334 494 CURVE SMOOTH",
"453 494 OFFCURVE",
"536 398 OFFCURVE",
"536 278 CURVE SMOOTH",
"536 158 OFFCURVE",
"453 64 OFFCURVE",
"334 64 CURVE SMOOTH"
);
}
);
width = 671;
}
);
category = Letter;
},
{
glyphname = uni118B6.sm;
lastChange = "2018-04-10 19:53:07 +0000";
layers = (
{
layerId = UUID0;
paths = (
{
closed = 1;
nodes = (
"381 0 LINE",
"381 125 LINE",
"485 44 LINE",
"536 102 LINE",
"381 222 LINE",
"381 533 LINE",
"303 567 LINE",
"73 394 LINE",
"73 366 LINE",
"297 191 LINE",
"297 72 LINE",
"26 72 LINE",
"26 0 LINE"
);
},
{
closed = 1;
nodes = (
"178 380 LINE",
"297 470 LINE",
"297 289 LINE"
);
}
);
width = 563;
}
);
category = Letter;
},
{
glyphname = uni118B7.sm;
lastChange = "2018-04-10 19:53:07 +0000";
layers = (
{
layerId = UUID0;
paths = (
{
closed = 1;
nodes = (
"339 -6 LINE",
"609 266 LINE",
"609 290 LINE",
"339 562 LINE",
"295 562 LINE",
"24 290 LINE",
"24 266 LINE",
"295 -6 LINE"
);
},
{
closed = 1;
nodes = (
"121 278 LINE",
"317 473 LINE",
"512 278 LINE",
"317 83 LINE"
);
}
);
width = 633;
}
);
category = Letter;
},
{
glyphname = uni118B8.sm;
lastChange = "2018-04-10 19:53:07 +0000";
layers = (
{
layerId = UUID0;
paths = (
{
closed = 1;
nodes = (
"451 -8 OFFCURVE",
"522 82 OFFCURVE",
"522 199 CURVE SMOOTH",
"522 484 LINE",
"583 484 LINE",
"583 557 LINE",
"368 557 LINE",
"368 484 LINE",
"438 484 LINE",
"438 199 LINE SMOOTH",
"438 119 OFFCURVE",
"398 64 OFFCURVE",
"305 64 CURVE SMOOTH",
"215 64 OFFCURVE",
"170 112 OFFCURVE",
"170 198 CURVE SMOOTH",
"170 484 LINE",
"241 484 LINE",
"241 557 LINE",
"26 557 LINE",
"26 484 LINE",
"86 484 LINE",
"86 200 LINE SMOOTH",
"86 74 OFFCURVE",
"161 -8 OFFCURVE",
"302 -8 CURVE SMOOTH"
);
}
);
width = 609;
}
);
category = Letter;
},
{
glyphname = uni118B9.sm;
lastChange = "2018-04-10 19:53:07 +0000";
layers = (
{
layerId = UUID0;
paths = (
{
closed = 1;
nodes = (
"447 -8 OFFCURVE",
"518 82 OFFCURVE",
"518 199 CURVE SMOOTH",
"518 406 LINE SMOOTH",
"518 454 OFFCURVE",
"522 493 OFFCURVE",
"554 493 CURVE SMOOTH",
"579 493 OFFCURVE",
"595 459 OFFCURVE",
"602 384 CURVE",
"686 398 LINE",
"674 494 OFFCURVE",
"637 564 OFFCURVE",
"553 564 CURVE SMOOTH",
"470 564 OFFCURVE",
"434 517 OFFCURVE",
"434 405 CURVE SMOOTH",
"434 199 LINE SMOOTH",
"434 119 OFFCURVE",
"395 64 OFFCURVE",
"302 64 CURVE SMOOTH",
"211 64 OFFCURVE",
"145 112 OFFCURVE",
"145 230 CURVE SMOOTH",
"145 336 OFFCURVE",
"194 419 OFFCURVE",
"358 484 CURVE",
"358 557 LINE",
"26 557 LINE",
"26 484 LINE",
"234 484 LINE",
"233 496 LINE",
"112 440 OFFCURVE",
"61 334 OFFCURVE",
"61 229 CURVE SMOOTH",
"61 63 OFFCURVE",
"165 -8 OFFCURVE",
"298 -8 CURVE SMOOTH"
);
}
);
width = 712;
}
);
category = Letter;
},
{
glyphname = uni118BA.sm;
lastChange = "2018-04-10 19:53:07 +0000";
layers = (
{
layerId = UUID0;
paths = (
{
closed = 1;
nodes = (
"462 -8 OFFCURVE",
"525 102 OFFCURVE",
"525 219 CURVE SMOOTH",
"525 362 OFFCURVE",
"384 498 OFFCURVE",
"177 579 CURVE",
"144 509 LINE",
"304 437 OFFCURVE",
"437 340 OFFCURVE",
"437 213 CURVE SMOOTH",
"437 138 OFFCURVE",
"404 64 OFFCURVE",
"306 64 CURVE SMOOTH",
"230 64 OFFCURVE",
"185 108 OFFCURVE",
"185 163 CURVE SMOOTH",
"185 220 OFFCURVE",
"209 266 OFFCURVE",
"283 285 CURVE",
"283 357 LINE",
"25 357 LINE",
"25 285 LINE",
"178 285 LINE",
"171 299 LINE",
"120 268 OFFCURVE",
"97 218 OFFCURVE",
"97 162 CURVE SMOOTH",
"97 69 OFFCURVE",
"166 -8 OFFCURVE",
"299 -8 CURVE SMOOTH"
);
}
);
width = 573;
}
);
category = Letter;
},
{
glyphname = uni118BB.sm;
lastChange = "2018-04-10 19:53:07 +0000";
layers = (
{
layerId = UUID0;
paths = (
{
closed = 1;
nodes = (
"233 16 OFFCURVE",
"432 110 OFFCURVE",
"432 234 CURVE SMOOTH",
"432 311 OFFCURVE",
"374 346 OFFCURVE",
"298 346 CURVE SMOOTH",
"257 346 OFFCURVE",
"210 331 OFFCURVE",
"170 305 CURVE",
"195 294 LINE",
"214 425 LINE",
"440 497 LINE",
"416 568 LINE",
"141 483 LINE",
"107 269 LINE",
"163 218 LINE",
"198 249 OFFCURVE",
"242 275 OFFCURVE",
"290 275 CURVE SMOOTH",
"326 275 OFFCURVE",
"343 259 OFFCURVE",
"343 234 CURVE SMOOTH",
"343 150 OFFCURVE",
"126 65 OFFCURVE",
"24 47 CURVE",
"42 -23 LINE"
);
}
);
width = 500;
}
);
category = Letter;
},
{
glyphname = uni118BC.sm;
lastChange = "2018-04-10 19:53:07 +0000";
layers = (
{
layerId = UUID0;
paths = (
{
closed = 1;
nodes = (
"267 0 LINE",
"267 484 LINE",
"428 484 LINE",
"428 557 LINE",
"20 557 LINE",
"20 484 LINE",
"183 484 LINE",
"183 0 LINE"
);
}
);
width = 448;
}
);
category = Letter;
},
{
glyphname = uni118BD.sm;
lastChange = "2018-04-10 19:53:07 +0000";
layers = (
{
layerId = UUID0;
paths = (
{
closed = 1;
nodes = (
"493 -8 OFFCURVE",
"563 82 OFFCURVE",
"563 199 CURVE SMOOTH",
"563 557 LINE",
"480 557 LINE",
"480 303 LINE",
"212 303 LINE",
"212 557 LINE",
"26 557 LINE",
"26 485 LINE",
"128 485 LINE",
"128 200 LINE SMOOTH",
"128 74 OFFCURVE",
"203 -8 OFFCURVE",
"343 -8 CURVE SMOOTH"
);
},
{
closed = 1;
nodes = (
"257 64 OFFCURVE",
"212 112 OFFCURVE",
"212 198 CURVE SMOOTH",
"212 231 LINE",
"480 231 LINE",
"480 199 LINE SMOOTH",
"480 119 OFFCURVE",
"440 64 OFFCURVE",
"347 64 CURVE SMOOTH"
);
}
);
width = 627;
}
);
category = Letter;
},
{
glyphname = uni118BE.sm;
lastChange = "2018-04-10 19:53:07 +0000";
layers = (
{
layerId = UUID0;
paths = (
{
closed = 1;
nodes = (
"405 57 LINE",
"233 136 LINE",
"538 325 LINE",
"499 387 LINE",
"194 198 LINE",
"194 456 LINE",
"77 569 LINE",
"20 516 LINE",
"110 430 LINE",
"110 105 LINE",
"370 -8 LINE"
);
}
);
width = 566;
}
);
category = Letter;
},
{
glyphname = uni118BF.sm;
lastChange = "2018-04-10 19:53:07 +0000";
layers = (
{
layerId = UUID0;
paths = (
{
closed = 1;
nodes = (
"558 25 OFFCURVE",
"584 88 OFFCURVE",
"584 145 CURVE SMOOTH",
"584 249 OFFCURVE",
"497 357 OFFCURVE",
"342 357 CURVE SMOOTH",
"293 357 LINE",
"293 484 LINE",
"497 484 LINE",
"497 557 LINE",
"209 557 LINE",
"209 72 LINE",
"26 72 LINE",
"26 0 LINE",
"293 0 LINE",
"293 285 LINE",
"335 285 LINE SMOOTH",
"446 285 OFFCURVE",
"500 209 OFFCURVE",
"500 142 CURVE SMOOTH",
"500 102 OFFCURVE",
"487 68 OFFCURVE",
"459 48 CURVE",
"504 -13 LINE"
);
}
);
width = 625;
}
);
category = Letter;
},
{
glyphname = uni118CA.sm;
lastChange = "2018-04-10 19:53:07 +0000";
layers = (
{
layerId = UUID0;
paths = (
{
closed = 1;
nodes = (
"271 -8 OFFCURVE",
"324 81 OFFCURVE",
"324 154 CURVE SMOOTH",
"324 210 OFFCURVE",
"300 252 OFFCURVE",
"248 278 CURVE",
"200 232 LINE",
"233 220 OFFCURVE",
"249 196 OFFCURVE",
"251 168 CURVE",
"286 190 LINE",
"111 185 OFFCURVE",
"40 135 OFFCURVE",
"40 71 CURVE SMOOTH",
"40 15 OFFCURVE",
"92 -8 OFFCURVE",
"138 -8 CURVE SMOOTH"
);
},
{
closed = 1;
nodes = (
"128 58 OFFCURVE",
"116 67 OFFCURVE",
"116 80 CURVE SMOOTH",
"116 105 OFFCURVE",
"169 132 OFFCURVE",
"295 132 CURVE",
"251 147 LINE",
"245 102 OFFCURVE",
"212 58 OFFCURVE",
"147 58 CURVE SMOOTH"
);
},
{
closed = 1;
nodes = (
"141 191 OFFCURVE",
"274 220 OFFCURVE",
"274 333 CURVE SMOOTH",
"274 383 OFFCURVE",
"234 422 OFFCURVE",
"168 422 CURVE SMOOTH",
"111 422 OFFCURVE",
"57 382 OFFCURVE",
"24 307 CURVE",
"79 274 LINE",
"103 328 OFFCURVE",
"132 358 OFFCURVE",
"162 358 CURVE SMOOTH",
"187 358 OFFCURVE",
"201 347 OFFCURVE",
"201 325 CURVE SMOOTH",
"201 283 OFFCURVE",
"147 250 OFFCURVE",
"98 238 CURVE",
"108 187 LINE"
);
}
);
width = 360;
}
);
category = Letter;
},
{
glyphname = uni118CB.sm;
lastChange = "2018-04-10 19:53:07 +0000";
layers = (
{
layerId = UUID0;
paths = (
{
closed = 1;
nodes = (
"172 -8 OFFCURVE",
"199 37 OFFCURVE",
"199 120 CURVE SMOOTH",
"199 195 LINE SMOOTH",
"199 254 OFFCURVE",
"219 279 OFFCURVE",
"255 279 CURVE SMOOTH",
"293 279 OFFCURVE",
"318 250 OFFCURVE",
"334 225 CURVE",
"312 0 LINE",
"386 0 LINE",
"411 260 LINE SMOOTH",
"416 313 OFFCURVE",
"421 363 OFFCURVE",
"480 378 CURVE",
"457 433 LINE",
"387 431 OFFCURVE",
"349 367 OFFCURVE",
"343 278 CURVE",
"356 292 LINE",
"336 323 OFFCURVE",
"303 345 OFFCURVE",
"251 345 CURVE SMOOTH",
"190 345 OFFCURVE",
"134 305 OFFCURVE",
"134 208 CURVE SMOOTH",
"134 128 LINE SMOOTH",
"134 72 OFFCURVE",
"123 58 OFFCURVE",
"107 58 CURVE SMOOTH",
"93 58 OFFCURVE",
"79 69 OFFCURVE",
"53 90 CURVE",
"21 32 LINE",
"49 11 OFFCURVE",
"78 -8 OFFCURVE",
"111 -8 CURVE SMOOTH"
);
}
);
width = 494;
}
);
category = Letter;
},
{
glyphname = uni118CC.sm;
lastChange = "2018-04-10 19:53:07 +0000";
layers = (
{
layerId = UUID0;
paths = (
{
closed = 1;
nodes = (
"252 -8 OFFCURVE",
"332 73 OFFCURVE",
"332 207 CURVE",
"332 221 LINE",
"357 233 OFFCURVE",
"380 245 OFFCURVE",
"399 257 CURVE",
"369 315 LINE",
"356 307 OFFCURVE",
"338 297 OFFCURVE",
"319 287 CURVE",
"291 374 OFFCURVE",
"216 422 OFFCURVE",
"147 422 CURVE SMOOTH",
"74 422 OFFCURVE",
"26 369 OFFCURVE",
"26 293 CURVE SMOOTH",
"26 206 OFFCURVE",
"79 169 OFFCURVE",
"143 169 CURVE SMOOTH",
"178 169 OFFCURVE",
"219 177 OFFCURVE",
"258 191 CURVE",
"251 112 OFFCURVE",
"201 58 OFFCURVE",
"153 58 CURVE SMOOTH",
"122 58 OFFCURVE",
"100 77 OFFCURVE",
"82 107 CURVE",
"32 67 LINE",
"57 21 OFFCURVE",
"98 -8 OFFCURVE",
"151 -8 CURVE SMOOTH"
);
},
{
closed = 1;
nodes = (
"120 232 OFFCURVE",
"99 249 OFFCURVE",
"99 296 CURVE SMOOTH",
"99 335 OFFCURVE",
"115 357 OFFCURVE",
"149 357 CURVE SMOOTH",
"195 357 OFFCURVE",
"238 319 OFFCURVE",
"253 256 CURVE",
"217 242 OFFCURVE",
"181 232 OFFCURVE",
"153 232 CURVE SMOOTH"
);
}
);
width = 419;
}
);
category = Letter;
},
{
glyphname = uni118CD.sm;
lastChange = "2018-04-10 19:53:07 +0000";
layers = (
{
layerId = UUID0;
paths = (
{
closed = 1;
nodes = (
"184 -8 OFFCURVE",
"216 8 OFFCURVE",
"242 34 CURVE",
"256 7 OFFCURVE",
"284 -8 OFFCURVE",
"326 -8 CURVE SMOOTH",
"404 -8 OFFCURVE",
"479 61 OFFCURVE",
"479 140 CURVE SMOOTH",
"479 210 OFFCURVE",
"420 243 OFFCURVE",
"365 243 CURVE SMOOTH",
"361 243 OFFCURVE",
"357 243 OFFCURVE",
"353 242 CURVE",
"422 403 LINE",
"357 426 LINE",
"266 213 LINE",
"241 231 OFFCURVE",
"205 248 OFFCURVE",
"155 248 CURVE SMOOTH",
"68 248 OFFCURVE",
"26 183 OFFCURVE",
"26 117 CURVE SMOOTH",
"26 46 OFFCURVE",
"67 -8 OFFCURVE",
"143 -8 CURVE SMOOTH"
);
},
{
closed = 1;
nodes = (
"119 58 OFFCURVE",
"99 76 OFFCURVE",
"99 119 CURVE SMOOTH",
"99 157 OFFCURVE",
"120 183 OFFCURVE",
"158 183 CURVE SMOOTH",
"182 183 OFFCURVE",
"213 174 OFFCURVE",
"237 148 CURVE",
"210 89 OFFCURVE",
"183 58 OFFCURVE",
"148 58 CURVE SMOOTH"
);
},
{
closed = 1;
nodes = (
"306 58 OFFCURVE",
"293 70 OFFCURVE",
"293 91 CURVE SMOOTH",
"293 98 OFFCURVE",
"295 109 OFFCURVE",
"300 119 CURVE SMOOTH",
"319 162 LINE SMOOTH",
"323 170 OFFCURVE",
"338 178 OFFCURVE",
"356 178 CURVE SMOOTH",
"376 178 OFFCURVE",
"406 174 OFFCURVE",
"406 136 CURVE SMOOTH",
"406 88 OFFCURVE",
"360 58 OFFCURVE",
"332 58 CURVE SMOOTH"
);
}
);
width = 507;
}
);
category = Letter;
},
{
glyphname = uni118CE.sm;
lastChange = "2018-04-10 19:53:07 +0000";
layers = (
{
layerId = UUID0;
paths = (
{
closed = 1;
nodes = (
"276 -8 OFFCURVE",
"312 47 OFFCURVE",
"349 133 CURVE",
"283 152 LINE",
"255 88 OFFCURVE",
"226 58 OFFCURVE",
"182 58 CURVE SMOOTH",
"154 58 OFFCURVE",
"123 75 OFFCURVE",
"123 119 CURVE SMOOTH",
"123 168 OFFCURVE",
"165 177 OFFCURVE",
"177 179 CURVE",
"173 240 LINE",
"165 238 OFFCURVE",
"154 236 OFFCURVE",
"141 236 CURVE SMOOTH",
"118 236 OFFCURVE",
"99 256 OFFCURVE",
"99 294 CURVE SMOOTH",
"99 335 OFFCURVE",
"121 357 OFFCURVE",
"174 357 CURVE SMOOTH",
"242 357 OFFCURVE",
"287 306 OFFCURVE",
"298 234 CURVE",
"365 255 LINE",
"344 357 OFFCURVE",
"271 422 OFFCURVE",
"178 422 CURVE SMOOTH",
"89 422 OFFCURVE",
"26 376 OFFCURVE",
"26 295 CURVE SMOOTH",
"26 237 OFFCURVE",
"54 203 OFFCURVE",
"110 187 CURVE",
"105 211 LINE",
"68 190 OFFCURVE",
"50 153 OFFCURVE",
"50 116 CURVE SMOOTH",
"50 45 OFFCURVE",
"103 -8 OFFCURVE",
"178 -8 CURVE SMOOTH"
);
}
);
width = 377;
}
);
category = Letter;
},
{
glyphname = uni118CF.sm;
lastChange = "2018-04-10 19:53:07 +0000";
layers = (
{
layerId = UUID0;
paths = (
{
closed = 1;
nodes = (
"195 -8 OFFCURVE",
"248 40 OFFCURVE",
"252 124 CURVE SMOOTH",
"254 173 LINE",
"324 193 OFFCURVE",
"386 241 OFFCURVE",
"386 308 CURVE SMOOTH",
"386 355 OFFCURVE",
"355 381 OFFCURVE",
"310 381 CURVE SMOOTH",
"247 381 OFFCURVE",
"195 320 OFFCURVE",
"187 225 CURVE",
"179 225 LINE SMOOTH",
"132 225 OFFCURVE",
"99 252 OFFCURVE",
"99 296 CURVE SMOOTH",
"99 333 OFFCURVE",
"121 358 OFFCURVE",
"159 358 CURVE SMOOTH",
"172 358 OFFCURVE",
"185 356 OFFCURVE",
"201 349 CURVE",
"223 413 LINE",
"205 419 OFFCURVE",
"182 422 OFFCURVE",
"156 422 CURVE SMOOTH",
"69 422 OFFCURVE",
"26 359 OFFCURVE",
"26 293 CURVE SMOOTH",
"26 221 OFFCURVE",
"84 162 OFFCURVE",
"178 162 CURVE SMOOTH",
"184 162 LINE",
"184 155 OFFCURVE",
"184 149 OFFCURVE",
"183 142 CURVE SMOOTH",
"177 99 OFFCURVE",
"164 58 OFFCURVE",
"117 58 CURVE SMOOTH",
"102 58 OFFCURVE",
"75 62 OFFCURVE",
"52 72 CURVE",
"35 8 LINE",
"63 -2 OFFCURVE",
"95 -8 OFFCURVE",
"123 -8 CURVE SMOOTH"
);
},
{
closed = 1;
nodes = (
"267 281 OFFCURVE",
"279 319 OFFCURVE",
"307 319 CURVE SMOOTH",
"313 319 OFFCURVE",
"317 314 OFFCURVE",
"317 308 CURVE SMOOTH",
"317 283 OFFCURVE",
"295 260 OFFCURVE",
"261 244 CURVE"
);
}
);
width = 404;
}
);
category = Letter;
},
{
glyphname = uni118D0.sm;
lastChange = "2018-04-10 19:53:07 +0000";
layers = (
{
layerId = UUID0;
paths = (
{
closed = 1;
nodes = (
"174 -8 OFFCURVE",
"199 37 OFFCURVE",
"204 120 CURVE SMOOTH",
"212 260 LINE SMOOTH",
"216 327 OFFCURVE",
"233 358 OFFCURVE",
"262 358 CURVE SMOOTH",
"294 358 OFFCURVE",
"306 330 OFFCURVE",
"321 248 CURVE SMOOTH",
"344 124 LINE SMOOTH",
"365 8 OFFCURVE",
"397 -8 OFFCURVE",
"443 -8 CURVE SMOOTH",
"500 -8 OFFCURVE",
"523 37 OFFCURVE",
"527 120 CURVE SMOOTH",
"535 277 LINE SMOOTH",
"538 334 OFFCURVE",
"549 358 OFFCURVE",
"566 358 CURVE SMOOTH",
"589 358 OFFCURVE",
"606 333 OFFCURVE",
"621 309 CURVE",
"672 349 LINE",
"642 399 OFFCURVE",
"606 422 OFFCURVE",
"568 422 CURVE SMOOTH",
"505 422 OFFCURVE",
"472 379 OFFCURVE",
"468 296 CURVE SMOOTH",
"460 139 LINE SMOOTH",
"457 75 OFFCURVE",
"452 58 OFFCURVE",
"443 58 CURVE SMOOTH",
"431 58 OFFCURVE",
"420 86 OFFCURVE",
"410 142 CURVE SMOOTH",
"388 260 LINE SMOOTH",
"373 338 OFFCURVE",
"353 422 OFFCURVE",
"262 422 CURVE SMOOTH",
"190 422 OFFCURVE",
"149 372 OFFCURVE",
"144 279 CURVE SMOOTH",
"137 139 LINE SMOOTH",
"135 95 OFFCURVE",
"132 58 OFFCURVE",
"109 58 CURVE SMOOTH",
"88 58 OFFCURVE",
"72 78 OFFCURVE",
"52 107 CURVE",
"-1 67 LINE",
"30 17 OFFCURVE",
"67 -8 OFFCURVE",
"105 -8 CURVE SMOOTH"
);
}
);
width = 671;
}
);
category = Letter;
},
{
glyphname = uni118D1.sm;
lastChange = "2018-04-10 19:53:07 +0000";
layers = (
{
layerId = UUID0;
paths = (
{
closed = 1;
nodes = (
"107 0 LINE",
"136 211 LINE",
"266 218 OFFCURVE",
"297 294 OFFCURVE",
"307 415 CURVE",
"240 422 LINE",
"232 335 OFFCURVE",
"223 277 OFFCURVE",
"115 277 CURVE SMOOTH",
"84 277 OFFCURVE",
"72 263 OFFCURVE",
"66 221 CURVE SMOOTH",
"34 0 LINE"
);
}
);
width = 327;
}
);
category = Letter;
},
{
glyphname = uni118D2.sm;
lastChange = "2018-04-10 19:53:07 +0000";
layers = (
{
layerId = UUID0;
paths = (
{
closed = 1;
nodes = (
"247 -8 OFFCURVE",
"289 65 OFFCURVE",
"317 129 CURVE",
"253 152 LINE",
"225 88 OFFCURVE",
"196 58 OFFCURVE",
"153 58 CURVE SMOOTH",
"119 58 OFFCURVE",
"99 83 OFFCURVE",
"99 120 CURVE SMOOTH",
"99 156 OFFCURVE",
"118 179 OFFCURVE",
"160 206 CURVE SMOOTH",
"186 223 OFFCURVE",
"202 236 OFFCURVE",
"204 266 CURVE SMOOTH",
"208 318 LINE SMOOTH",
"211 352 OFFCURVE",
"220 366 OFFCURVE",
"240 385 CURVE",
"188 429 LINE",
"159 407 OFFCURVE",
"145 391 OFFCURVE",
"141 336 CURVE SMOOTH",
"137 281 LINE SMOOTH",
"136 270 OFFCURVE",
"130 262 OFFCURVE",
"111 251 CURVE SMOOTH",
"57 220 OFFCURVE",
"25 173 OFFCURVE",
"25 118 CURVE SMOOTH",
"25 46 OFFCURVE",
"73 -8 OFFCURVE",
"148 -8 CURVE SMOOTH"
);
}
);
width = 327;
}
);
category = Letter;
},
{
glyphname = uni118D3.sm;
lastChange = "2018-04-10 19:53:07 +0000";
layers = (
{
layerId = UUID0;
paths = (
{
closed = 1;
nodes = (
"437 -8 OFFCURVE",
"487 35 OFFCURVE",
"511 98 CURVE",
"461 130 LINE",
"436 88 OFFCURVE",
"416 58 OFFCURVE",
"377 58 CURVE SMOOTH",
"305 58 OFFCURVE",
"275 211 OFFCURVE",
"272 403 CURVE",
"205 424 LINE",
"159 369 LINE SMOOTH",
"135 340 OFFCURVE",
"117 321 OFFCURVE",
"98 321 CURVE SMOOTH",
"84 321 OFFCURVE",
"71 340 OFFCURVE",
"59 371 CURVE",
"3 339 LINE",
"21 297 OFFCURVE",
"49 248 OFFCURVE",
"98 248 CURVE SMOOTH",
"149 248 OFFCURVE",
"195 307 OFFCURVE",
"223 344 CURVE",
"203 349 LINE",
"211 181 OFFCURVE",
"240 -8 OFFCURVE",
"377 -8 CURVE SMOOTH"
);
}
);
width = 505;
}
);
category = Letter;
},
{
glyphname = uni118D4.sm;
lastChange = "2018-04-10 19:53:07 +0000";
layers = (
{
layerId = UUID0;
paths = (
{
closed = 1;
nodes = (
"466 -8 OFFCURVE",
"495 50 OFFCURVE",
"527 135 CURVE SMOOTH",
"548 190 LINE",
"636 190 OFFCURVE",
"698 226 OFFCURVE",
"698 309 CURVE SMOOTH",
"698 356 OFFCURVE",
"666 392 OFFCURVE",
"613 392 CURVE SMOOTH",
"556 392 OFFCURVE",
"524 357 OFFCURVE",
"499 272 CURVE",
"481 286 OFFCURVE",
"467 308 OFFCURVE",
"454 329 CURVE SMOOTH",
"426 375 OFFCURVE",
"393 422 OFFCURVE",
"300 422 CURVE SMOOTH",
"287 422 OFFCURVE",
"273 422 OFFCURVE",
"259 421 CURVE",
"259 355 LINE",
"269 356 OFFCURVE",
"280 356 OFFCURVE",
"290 356 CURVE SMOOTH",
"348 356 OFFCURVE",
"383 316 OFFCURVE",
"407 279 CURVE SMOOTH",
"425 251 OFFCURVE",
"444 222 OFFCURVE",
"478 205 CURVE",
"460 155 LINE SMOOTH",
"445 114 OFFCURVE",
"422 58 OFFCURVE",
"386 58 CURVE SMOOTH",
"352 58 OFFCURVE",
"330 91 OFFCURVE",
"309 129 CURVE SMOOTH",
"231 270 LINE SMOOTH",
"193 339 OFFCURVE",
"162 382 OFFCURVE",
"95 382 CURVE SMOOTH",
"57 382 OFFCURVE",
"20 356 OFFCURVE",
"-11 308 CURVE",
"42 266 LINE",
"60 295 OFFCURVE",
"79 316 OFFCURVE",
"97 316 CURVE SMOOTH",
"119 316 OFFCURVE",
"137 290 OFFCURVE",
"163 244 CURVE SMOOTH",
"241 103 LINE SMOOTH",
"274 43 OFFCURVE",
"312 -8 OFFCURVE",
"381 -8 CURVE SMOOTH"
);
},
{
closed = 1;
nodes = (
"562 236 OFFCURVE",
"567 257 OFFCURVE",
"569 265 CURVE SMOOTH",
"583 315 OFFCURVE",
"598 330 OFFCURVE",
"613 330 CURVE SMOOTH",
"624 330 OFFCURVE",
"630 322 OFFCURVE",
"630 308 CURVE SMOOTH",
"630 275 OFFCURVE",
"610 252 OFFCURVE",
"563 252 CURVE",
"556 207 LINE"
);
}
);
width = 719;
}
);
category = Letter;
},
{
glyphname = uni118D5.sm;
lastChange = "2018-04-10 19:53:07 +0000";
layers = (
{
layerId = UUID0;
paths = (
{
closed = 1;
nodes = (
"327 -8 OFFCURVE",
"398 54 OFFCURVE",
"398 151 CURVE SMOOTH",
"398 247 OFFCURVE",
"337 288 OFFCURVE",
"261 288 CURVE SMOOTH",
"230 288 OFFCURVE",
"198 280 OFFCURVE",
"168 261 CURVE",
"193 203 LINE",
"212 214 OFFCURVE",
"239 222 OFFCURVE",
"264 222 CURVE SMOOTH",
"304 222 OFFCURVE",
"325 197 OFFCURVE",
"325 151 CURVE SMOOTH",
"325 79 OFFCURVE",
"272 58 OFFCURVE",
"232 58 CURVE SMOOTH",
"156 58 OFFCURVE",
"107 116 OFFCURVE",
"107 207 CURVE SMOOTH",
"107 300 OFFCURVE",
"170 357 OFFCURVE",
"248 357 CURVE SMOOTH",
"323 357 OFFCURVE",
"370 333 OFFCURVE",
"411 307 CURVE",
"446 363 LINE",
"397 395 OFFCURVE",
"342 424 OFFCURVE",
"251 424 CURVE SMOOTH",
"131 424 OFFCURVE",
"35 334 OFFCURVE",
"35 207 CURVE SMOOTH",
"35 71 OFFCURVE",
"126 -8 OFFCURVE",
"228 -8 CURVE SMOOTH"
);
}
);
width = 467;
}
);
category = Letter;
},
{
glyphname = uni118D6.sm;
lastChange = "2018-04-10 19:53:07 +0000";
layers = (
{
layerId = UUID0;
paths = (
{
closed = 1;
nodes = (
"215 -8 OFFCURVE",
"274 77 OFFCURVE",
"286 175 CURVE",
"263 146 LINE",
"289 148 OFFCURVE",
"307 151 OFFCURVE",
"328 158 CURVE",
"323 220 LINE",
"307 217 OFFCURVE",
"293 215 OFFCURVE",
"277 214 CURVE",
"287 183 LINE",
"295 323 LINE SMOOTH",
"296 341 OFFCURVE",
"296 352 OFFCURVE",
"296 374 CURVE SMOOTH",
"296 397 OFFCURVE",
"290 424 OFFCURVE",
"239 424 CURVE SMOOTH",
"153 424 OFFCURVE",
"94 362 OFFCURVE",
"94 279 CURVE SMOOTH",
"94 206 OFFCURVE",
"145 152 OFFCURVE",
"209 150 CURVE",
"194 91 OFFCURVE",
"168 58 OFFCURVE",
"124 58 CURVE SMOOTH",
"80 58 OFFCURVE",
"47 93 OFFCURVE",
"28 119 CURVE",
"-23 77 LINE",
"-1 40 OFFCURVE",
"51 -8 OFFCURVE",
"122 -8 CURVE SMOOTH"
);
},
{
closed = 1;
nodes = (
"180 216 OFFCURVE",
"167 239 OFFCURVE",
"167 282 CURVE SMOOTH",
"167 326 OFFCURVE",
"196 355 OFFCURVE",
"226 357 CURVE",
"218 214 LINE"
);
}
);
width = 355;
}
);
category = Letter;
},
{
glyphname = uni118D7.sm;
lastChange = "2018-04-10 19:53:07 +0000";
layers = (
{
layerId = UUID0;
paths = (
{
closed = 1;
nodes = (
"375 25 OFFCURVE",
"508 135 OFFCURVE",
"508 202 CURVE SMOOTH",
"508 275 OFFCURVE",
"378 385 OFFCURVE",
"267 385 CURVE SMOOTH",
"157 385 OFFCURVE",
"26 275 OFFCURVE",
"26 204 CURVE SMOOTH",
"26 134 OFFCURVE",
"163 25 OFFCURVE",
"267 25 CURVE SMOOTH"
);
},
{
closed = 1;
nodes = (
"182 90 OFFCURVE",
"103 176 OFFCURVE",
"99 204 CURVE",
"103 233 OFFCURVE",
"182 320 OFFCURVE",
"268 320 CURVE SMOOTH",
"350 320 OFFCURVE",
"428 235 OFFCURVE",
"436 204 CURVE",
"428 173 OFFCURVE",
"350 90 OFFCURVE",
"268 90 CURVE SMOOTH"
);
}
);
width = 536;
}
);
category = Letter;
},
{
glyphname = uni118D8.sm;
lastChange = "2018-04-10 19:53:07 +0000";
layers = (
{
layerId = UUID0;
paths = (
{
closed = 1;
nodes = (
"392 -8 OFFCURVE",
"457 45 OFFCURVE",
"470 119 CURVE SMOOTH",
"497 276 LINE SMOOTH",
"505 324 OFFCURVE",
"512 358 OFFCURVE",
"532 358 CURVE SMOOTH",
"553 358 OFFCURVE",
"569 338 OFFCURVE",
"590 309 CURVE",
"641 349 LINE",
"611 399 OFFCURVE",
"575 422 OFFCURVE",
"537 422 CURVE SMOOTH",
"468 422 OFFCURVE",
"442 370 OFFCURVE",
"429 296 CURVE SMOOTH",
"402 139 LINE SMOOTH",
"392 79 OFFCURVE",
"351 58 OFFCURVE",
"320 58 CURVE SMOOTH",
"258 58 OFFCURVE",
"248 120 OFFCURVE",
"239 179 CURVE SMOOTH",
"224 278 LINE SMOOTH",
"211 361 OFFCURVE",
"176 398 OFFCURVE",
"116 398 CURVE SMOOTH",
"69 398 OFFCURVE",
"33 373 OFFCURVE",
"2 324 CURVE",
"54 283 LINE",
"75 313 OFFCURVE",
"92 333 OFFCURVE",
"108 333 CURVE SMOOTH",
"132 333 OFFCURVE",
"149 323 OFFCURVE",
"157 272 CURVE SMOOTH",
"175 153 LINE SMOOTH",
"187 77 OFFCURVE",
"214 -8 OFFCURVE",
"317 -8 CURVE SMOOTH"
);
}
);
width = 655;
}
);
category = Letter;
},
{
glyphname = uni118D9.sm;
lastChange = "2018-04-10 19:53:07 +0000";
layers = (
{
layerId = UUID0;
paths = (
{
closed = 1;
nodes = (
"524 47 OFFCURVE",
"557 114 OFFCURVE",
"557 199 CURVE SMOOTH",
"557 316 OFFCURVE",
"511 381 OFFCURVE",
"419 381 CURVE SMOOTH",
"318 381 OFFCURVE",
"296 287 OFFCURVE",
"277 200 CURVE SMOOTH",
"261 126 OFFCURVE",
"245 58 OFFCURVE",
"186 58 CURVE SMOOTH",
"132 58 OFFCURVE",
"99 116 OFFCURVE",
"99 194 CURVE SMOOTH",
"99 270 OFFCURVE",
"125 339 OFFCURVE",
"176 388 CURVE",
"120 428 LINE",
"60 364 OFFCURVE",
"26 282 OFFCURVE",
"26 195 CURVE SMOOTH",
"26 71 OFFCURVE",
"91 -8 OFFCURVE",
"183 -8 CURVE SMOOTH",
"303 -8 OFFCURVE",
"328 100 OFFCURVE",
"346 193 CURVE SMOOTH",
"359 260 OFFCURVE",
"372 316 OFFCURVE",
"415 316 CURVE SMOOTH",
"469 316 OFFCURVE",
"483 271 OFFCURVE",
"483 199 CURVE SMOOTH",
"483 127 OFFCURVE",
"460 75 OFFCURVE",
"424 28 CURVE",
"475 -15 LINE"
);
}
);
width = 585;
}
);
category = Letter;
},
{
glyphname = uni118DA.sm;
lastChange = "2018-04-10 19:53:07 +0000";
layers = (
{
layerId = UUID0;
paths = (
{
closed = 1;
nodes = (
"314 -8 OFFCURVE",
"398 71 OFFCURVE",
"398 207 CURVE SMOOTH",
"398 341 OFFCURVE",
"302 425 OFFCURVE",
"156 425 CURVE",
"150 366 LINE",
"261 362 OFFCURVE",
"325 314 OFFCURVE",
"325 207 CURVE SMOOTH",
"325 116 OFFCURVE",
"286 58 OFFCURVE",
"199 58 CURVE SMOOTH",
"146 58 OFFCURVE",
"113 81 OFFCURVE",
"107 127 CURVE",
"93 103 LINE",
"186 103 OFFCURVE",
"249 161 OFFCURVE",
"249 233 CURVE SMOOTH",
"249 290 OFFCURVE",
"207 334 OFFCURVE",
"146 334 CURVE SMOOTH",
"104 334 OFFCURVE",
"68 318 OFFCURVE",
"41 278 CURVE",
"91 235 LINE",
"103 255 OFFCURVE",
"123 268 OFFCURVE",
"143 268 CURVE SMOOTH",
"163 268 OFFCURVE",
"176 255 OFFCURVE",
"176 235 CURVE SMOOTH",
"176 192 OFFCURVE",
"148 159 OFFCURVE",
"76 159 CURVE SMOOTH",
"59 159 OFFCURVE",
"47 160 OFFCURVE",
"35 161 CURVE",
"35 64 OFFCURVE",
"100 -8 OFFCURVE",
"198 -8 CURVE SMOOTH"
);
}
);
width = 425;
}
);
category = Letter;
},
{
glyphname = uni118DB.sm;
lastChange = "2018-04-10 19:53:07 +0000";
layers = (
{
layerId = UUID0;
paths = (
{
closed = 1;
nodes = (
"177 0 OFFCURVE",
"317 36 OFFCURVE",
"317 157 CURVE SMOOTH",
"317 224 OFFCURVE",
"276 279 OFFCURVE",
"191 279 CURVE SMOOTH",
"166 279 OFFCURVE",
"147 270 OFFCURVE",
"132 252 CURVE",
"136 242 LINE",
"155 325 OFFCURVE",
"172 358 OFFCURVE",
"216 358 CURVE SMOOTH",
"245 358 OFFCURVE",
"269 348 OFFCURVE",
"287 340 CURVE",
"309 403 LINE",
"293 411 OFFCURVE",
"260 422 OFFCURVE",
"214 422 CURVE SMOOTH",
"141 422 OFFCURVE",
"100 377 OFFCURVE",
"77 281 CURVE SMOOTH",
"57 197 LINE",
"127 177 LINE",
"143 200 OFFCURVE",
"166 213 OFFCURVE",
"186 213 CURVE SMOOTH",
"226 213 OFFCURVE",
"244 190 OFFCURVE",
"244 160 CURVE SMOOTH",
"244 89 OFFCURVE",
"169 66 OFFCURVE",
"64 66 CURVE SMOOTH",
"53 66 OFFCURVE",
"40 67 OFFCURVE",
"28 68 CURVE",
"21 3 LINE",
"39 1 OFFCURVE",
"56 0 OFFCURVE",
"72 0 CURVE SMOOTH"
);
}
);
width = 344;
}
);
category = Letter;
},
{
glyphname = uni118DC.sm;
lastChange = "2018-04-10 19:53:07 +0000";
layers = (
{
layerId = UUID0;
paths = (
{
closed = 1;
nodes = (
"231 -8 OFFCURVE",
"270 47 OFFCURVE",
"270 115 CURVE SMOOTH",
"270 148 OFFCURVE",
"266 215 OFFCURVE",
"216 287 CURVE",
"249 315 OFFCURVE",
"291 334 OFFCURVE",
"345 334 CURVE SMOOTH",
"350 334 OFFCURVE",
"355 334 OFFCURVE",
"360 333 CURVE",
"371 397 LINE",
"366 399 OFFCURVE",
"356 399 OFFCURVE",
"352 399 CURVE SMOOTH",
"287 399 OFFCURVE",
"225 374 OFFCURVE",
"175 335 CURVE",
"143 366 OFFCURVE",
"101 396 OFFCURVE",
"46 424 CURVE",
"11 370 LINE",
"62 342 OFFCURVE",
"98 314 OFFCURVE",
"125 287 CURVE",
"84 238 OFFCURVE",
"59 177 OFFCURVE",
"59 115 CURVE SMOOTH",
"59 44 OFFCURVE",
"100 -8 OFFCURVE",
"164 -8 CURVE SMOOTH"
);
},
{
closed = 1;
nodes = (
"145 58 OFFCURVE",
"132 85 OFFCURVE",
"132 122 CURVE SMOOTH",
"132 166 OFFCURVE",
"149 209 OFFCURVE",
"183 261 CURVE",
"150 266 LINE",
"193 203 OFFCURVE",
"196 164 OFFCURVE",
"196 122 CURVE SMOOTH",
"196 85 OFFCURVE",
"183 58 OFFCURVE",
"164 58 CURVE SMOOTH"
);
}
);
width = 389;
}
);
category = Letter;
},
{
glyphname = uni118DD.sm;
lastChange = "2018-04-10 19:53:07 +0000";
layers = (
{
layerId = UUID0;
paths = (
{
closed = 1;
nodes = (
"306 -8 OFFCURVE",
"360 51 OFFCURVE",
"360 156 CURVE SMOOTH",
"360 412 LINE",
"286 412 LINE",
"286 161 LINE SMOOTH",
"286 85 OFFCURVE",
"261 58 OFFCURVE",
"222 58 CURVE SMOOTH",
"191 58 OFFCURVE",
"173 87 OFFCURVE",
"173 126 CURVE SMOOTH",
"173 170 OFFCURVE",
"194 190 OFFCURVE",
"224 190 CURVE SMOOTH",
"235 190 OFFCURVE",
"247 189 OFFCURVE",
"260 186 CURVE",
"260 254 LINE",
"246 255 OFFCURVE",
"234 255 OFFCURVE",
"223 255 CURVE",
"181 277 OFFCURVE",
"165 315 OFFCURVE",
"152 349 CURVE SMOOTH",
"137 388 OFFCURVE",
"120 422 OFFCURVE",
"66 422 CURVE SMOOTH",
"50 422 OFFCURVE",
"45 422 OFFCURVE",
"28 420 CURVE",
"22 356 LINE",
"30 357 OFFCURVE",
"39 358 OFFCURVE",
"47 358 CURVE SMOOTH",
"74 358 OFFCURVE",
"89 330 OFFCURVE",
"100 297 CURVE SMOOTH",
"114 256 OFFCURVE",
"137 232 OFFCURVE",
"181 215 CURVE",
"180 241 LINE",
"128 218 OFFCURVE",
"101 178 OFFCURVE",
"101 120 CURVE SMOOTH",
"101 45 OFFCURVE",
"147 -8 OFFCURVE",
"224 -8 CURVE SMOOTH"
);
}
);
width = 404;
}
);
category = Letter;
},
{
glyphname = uni118DE.sm;
lastChange = "2018-04-10 19:53:07 +0000";
layers = (
{
layerId = UUID0;
paths = (
{
closed = 1;
nodes = (
"307 -8 OFFCURVE",
"331 -6 OFFCURVE",
"351 -3 CURVE",
"351 64 LINE",
"331 60 OFFCURVE",
"311 58 OFFCURVE",
"293 58 CURVE SMOOTH",
"177 58 OFFCURVE",
"99 112 OFFCURVE",
"99 172 CURVE SMOOTH",
"99 196 OFFCURVE",
"112 203 OFFCURVE",
"132 203 CURVE SMOOTH",
"147 203 OFFCURVE",
"171 192 OFFCURVE",
"171 161 CURVE SMOOTH",
"171 154 OFFCURVE",
"171 152 OFFCURVE",
"170 146 CURVE",
"219 118 LINE",
"235 134 OFFCURVE",
"250 150 OFFCURVE",
"262 185 CURVE",
"234 184 LINE",
"257 136 OFFCURVE",
"293 118 OFFCURVE",
"330 118 CURVE SMOOTH",
"397 118 OFFCURVE",
"460 178 OFFCURVE",
"480 323 CURVE",
"412 336 LINE",
"398 245 OFFCURVE",
"366 184 OFFCURVE",
"330 184 CURVE SMOOTH",
"319 184 OFFCURVE",
"295 192 OFFCURVE",
"277 214 CURVE",
"279 226 OFFCURVE",
"281 239 OFFCURVE",
"281 253 CURVE SMOOTH",
"281 331 OFFCURVE",
"224 391 OFFCURVE",
"149 429 CURVE",
"109 372 LINE",
"155 352 OFFCURVE",
"207 311 OFFCURVE",
"207 253 CURVE SMOOTH",
"207 227 OFFCURVE",
"205 215 OFFCURVE",
"203 204 CURVE",
"213 198 LINE",
"205 254 OFFCURVE",
"162 269 OFFCURVE",
"129 269 CURVE SMOOTH",
"63 269 OFFCURVE",
"26 229 OFFCURVE",
"26 169 CURVE SMOOTH",
"26 99 OFFCURVE",
"108 -8 OFFCURVE",
"285 -8 CURVE SMOOTH"
);
}
);
width = 492;
}
);
category = Letter;
},
{
glyphname = uni118DF.sm;
lastChange = "2018-04-10 19:53:07 +0000";
layers = (
{
layerId = UUID0;
paths = (
{
closed = 1;
nodes = (
"364 17 OFFCURVE",
"389 66 OFFCURVE",
"389 123 CURVE SMOOTH",
"389 190 OFFCURVE",
"349 232 OFFCURVE",
"270 238 CURVE",
"280 269 LINE SMOOTH",
"302 337 OFFCURVE",
"315 358 OFFCURVE",
"330 358 CURVE SMOOTH",
"348 358 OFFCURVE",
"357 347 OFFCURVE",
"368 311 CURVE",
"425 341 LINE",
"404 398 OFFCURVE",
"380 424 OFFCURVE",
"333 424 CURVE SMOOTH",
"287 424 OFFCURVE",
"253 404 OFFCURVE",
"213 289 CURVE SMOOTH",
"164 147 LINE SMOOTH",
"141 80 OFFCURVE",
"123 58 OFFCURVE",
"98 58 CURVE SMOOTH",
"79 58 OFFCURVE",
"61 69 OFFCURVE",
"35 90 CURVE",
"3 32 LINE",
"28 13 OFFCURVE",
"62 -8 OFFCURVE",
"107 -8 CURVE SMOOTH",
"165 -8 OFFCURVE",
"199 38 OFFCURVE",
"230 127 CURVE SMOOTH",
"247 176 LINE",
"283 174 OFFCURVE",
"316 164 OFFCURVE",
"316 116 CURVE SMOOTH",
"316 76 OFFCURVE",
"297 46 OFFCURVE",
"274 27 CURVE",
"325 -16 LINE"
);
}
);
width = 448;
}
);
category = Letter;
},
{
glyphname = uni118A1.sm;
lastChange = "2018-04-10 19:53:07 +0000";
layers = (
{
layerId = UUID0;
paths = (
{
closed = 1;
nodes = (
"292 0 LINE",
"292 484 LINE",
"496 484 LINE",
"496 557 LINE",
"208 557 LINE",
"208 72 LINE",
"26 72 LINE",
"26 0 LINE"
);
}
);
width = 522;
}
);
category = Letter;
},
{
glyphname = uni118A2.sm;
lastChange = "2018-04-10 19:53:07 +0000";
layers = (
{
layerId = UUID0;
paths = (
{
closed = 1;
nodes = (
"223 0 LINE",
"223 284 LINE",
"461 284 LINE",
"461 357 LINE",
"223 357 LINE",
"223 484 LINE",
"462 484 LINE",
"462 557 LINE",
"139 557 LINE",
"139 357 LINE",
"26 357 LINE",
"26 284 LINE",
"139 284 LINE",
"139 0 LINE"
);
}
);
width = 490;
}
);
category = Letter;
},
{
glyphname = uni118A3.sm;
lastChange = "2018-04-10 19:53:07 +0000";
layers = (
{
layerId = UUID0;
paths = (
{
closed = 1;
nodes = (
"534 0 LINE",
"534 73 LINE",
"148 73 LINE",
"148 557 LINE",
"64 557 LINE",
"64 0 LINE"
);
}
);
width = 560;
}
);
category = Letter;
},
{
glyphname = uni118A4.sm;
lastChange = "2018-04-10 19:53:07 +0000";
layers = (
{
layerId = UUID0;
paths = (
{
closed = 1;
nodes = (
"292 0 LINE",
"292 320 LINE",
"475 516 LINE",
"417 562 LINE",
"250 383 LINE",
"83 562 LINE",
"24 516 LINE",
"208 320 LINE",
"208 72 LINE",
"25 72 LINE",
"25 0 LINE"
);
}
);
width = 501;
}
);
category = Letter;
},
{
glyphname = uni118A5.sm;
lastChange = "2018-04-10 19:53:07 +0000";
layers = (
{
layerId = UUID0;
paths = (
{
closed = 1;
nodes = (
"220 0 LINE",
"220 284 LINE",
"386 284 LINE",
"386 72 LINE",
"276 72 LINE",
"276 0 LINE",
"470 0 LINE",
"470 484 LINE",
"594 484 LINE",
"594 557 LINE",
"386 557 LINE",
"386 357 LINE",
"220 357 LINE",
"220 484 LINE",
"344 484 LINE",
"344 557 LINE",
"136 557 LINE",
"136 72 LINE",
"26 72 LINE",
"26 0 LINE"
);
}
);
width = 620;
}
);
category = Letter;
},
{
glyphname = uni118A6.sm;
lastChange = "2018-04-10 19:53:07 +0000";
layers = (
{
layerId = UUID0;
paths = (
{
closed = 1;
nodes = (
"534 0 LINE",
"534 73 LINE",
"218 73 LINE",
"218 284 LINE",
"521 284 LINE",
"521 357 LINE",
"218 357 LINE",
"218 484 LINE",
"534 484 LINE",
"534 557 LINE",
"134 557 LINE",
"134 357 LINE",
"26 357 LINE",
"26 284 LINE",
"134 284 LINE",
"134 0 LINE"
);
}
);
width = 562;
}
);
category = Letter;
},
{
glyphname = uni118A7.sm;
lastChange = "2018-04-10 19:53:07 +0000";
layers = (
{
layerId = UUID0;
paths = (
{
closed = 1;
nodes = (
"148 0 LINE",
"148 284 LINE",
"371 284 LINE",
"435 198 LINE",
"564 198 LINE",
"564 270 LINE",
"472 270 LINE",
"414 356 LINE",
"148 356 LINE",
"148 557 LINE",
"64 557 LINE",
"64 0 LINE"
);
}
);
width = 590;
}
);
category = Letter;
},
{
glyphname = uni118A8.sm;
lastChange = "2018-04-10 19:53:07 +0000";
layers = (
{
layerId = UUID0;
paths = (
{
closed = 1;
nodes = (
"203 0 LINE",
"514 557 LINE",
"12 557 LINE",
"129 0 LINE"
);
},
{
closed = 1;
nodes = (
"113 483 LINE",
"381 483 LINE",
"185 119 LINE"
);
}
);
width = 526;
}
);
category = Letter;
},
{
glyphname = uni118A9.sm;
lastChange = "2018-04-10 19:53:07 +0000";
layers = (
{
layerId = UUID0;
paths = (
{
closed = 1;
nodes = (
"487 0 LINE",
"487 165 LINE",
"403 165 LINE",
"403 73 LINE",
"157 73 LINE",
"470 497 LINE",
"470 557 LINE",
"38 557 LINE",
"38 383 LINE",
"122 383 LINE",
"122 484 LINE",
"366 484 LINE",
"54 59 LINE",
"54 0 LINE"
);
}
);
width = 525;
}
);
category = Letter;
},
{
glyphname = uni118C1.sm;
lastChange = "2018-04-10 19:53:07 +0000";
layers = (
{
layerId = UUID0;
paths = (
{
closed = 1;
nodes = (
"173 -8 OFFCURVE",
"204 52 OFFCURVE",
"230 127 CURVE SMOOTH",
"279 266 LINE SMOOTH",
"298 321 OFFCURVE",
"314 358 OFFCURVE",
"332 358 CURVE SMOOTH",
"350 358 OFFCURVE",
"357 347 OFFCURVE",
"368 311 CURVE",
"425 341 LINE",
"408 395 OFFCURVE",
"380 424 OFFCURVE",
"330 424 CURVE SMOOTH",
"283 424 OFFCURVE",
"246 383 OFFCURVE",
"213 289 CURVE SMOOTH",
"163 147 LINE SMOOTH",
"149 106 OFFCURVE",
"130 58 OFFCURVE",
"103 58 CURVE SMOOTH",
"81 58 OFFCURVE",
"61 69 OFFCURVE",
"35 90 CURVE",
"3 32 LINE",
"28 13 OFFCURVE",
"62 -8 OFFCURVE",
"104 -8 CURVE SMOOTH"
);
}
);
width = 448;
}
);
category = Letter;
},
{
glyphname = uni118C2.sm;
lastChange = "2018-04-10 19:53:07 +0000";
layers = (
{
layerId = UUID0;
paths = (
{
closed = 1;
nodes = (
"150 0 LINE",
"170 187 LINE",
"319 187 LINE",
"319 247 LINE",
"177 247 LINE",
"181 282 LINE SMOOTH",
"187 334 OFFCURVE",
"214 358 OFFCURVE",
"267 358 CURVE SMOOTH",
"307 358 OFFCURVE",
"340 353 OFFCURVE",
"352 351 CURVE",
"361 411 LINE",
"346 416 OFFCURVE",
"308 424 OFFCURVE",
"267 424 CURVE SMOOTH",
"177 424 OFFCURVE",
"119 374 OFFCURVE",
"107 281 CURVE SMOOTH",
"103 247 LINE",
"12 247 LINE",
"12 187 LINE",
"97 187 LINE",
"77 0 LINE"
);
}
);
width = 376;
}
);
category = Letter;
},
{
glyphname = uni118C3.sm;
lastChange = "2018-04-10 19:53:07 +0000";
layers = (
{
layerId = UUID0;
paths = (
{
closed = 1;
nodes = (
"218 -8 OFFCURVE",
"249 42 OFFCURVE",
"278 98 CURVE",
"226 135 LINE",
"208 101 OFFCURVE",
"185 58 OFFCURVE",
"150 58 CURVE SMOOTH",
"117 58 OFFCURVE",
"103 76 OFFCURVE",
"103 118 CURVE SMOOTH",
"103 130 OFFCURVE",
"104 145 OFFCURVE",
"107 171 CURVE SMOOTH",
"131 418 LINE",
"59 418 LINE",
"35 183 LINE SMOOTH",
"33 162 OFFCURVE",
"30 130 OFFCURVE",
"30 111 CURVE SMOOTH",
"30 31 OFFCURVE",
"85 -8 OFFCURVE",
"146 -8 CURVE SMOOTH"
);
}
);
width = 294;
}
);
category = Letter;
},
{
glyphname = uni118C4.sm;
lastChange = "2018-04-10 19:53:07 +0000";
layers = (
{
layerId = UUID0;
paths = (
{
closed = 1;
nodes = (
"238 -8 OFFCURVE",
"328 117 OFFCURVE",
"349 404 CURVE",
"282 417 LINE",
"275 351 OFFCURVE",
"266 288 OFFCURVE",
"254 242 CURVE",
"225 234 OFFCURVE",
"201 233 OFFCURVE",
"183 233 CURVE SMOOTH",
"154 233 OFFCURVE",
"146 243 OFFCURVE",
"146 259 CURVE SMOOTH",
"146 273 OFFCURVE",
"154 293 OFFCURVE",
"163 312 CURVE SMOOTH",
"173 333 OFFCURVE",
"178 352 OFFCURVE",
"178 369 CURVE SMOOTH",
"178 404 OFFCURVE",
"153 424 OFFCURVE",
"100 424 CURVE SMOOTH",
"81 424 OFFCURVE",
"60 421 OFFCURVE",
"44 416 CURVE",
"55 354 LINE",
"63 356 OFFCURVE",
"81 358 OFFCURVE",
"86 358 CURVE SMOOTH",
"93 358 OFFCURVE",
"105 358 OFFCURVE",
"105 347 CURVE SMOOTH",
"105 342 OFFCURVE",
"102 333 OFFCURVE",
"95 320 CURVE SMOOTH",
"89 309 OFFCURVE",
"74 277 OFFCURVE",
"74 249 CURVE SMOOTH",
"74 194 OFFCURVE",
"112 168 OFFCURVE",
"180 168 CURVE SMOOTH",
"200 168 OFFCURVE",
"226 168 OFFCURVE",
"258 180 CURVE",
"246 212 LINE",
"215 96 OFFCURVE",
"172 58 OFFCURVE",
"138 58 CURVE SMOOTH",
"108 58 OFFCURVE",
"86 91 OFFCURVE",
"69 133 CURVE",
"15 96 LINE",
"39 40 OFFCURVE",
"70 -8 OFFCURVE",
"142 -8 CURVE SMOOTH"
);
}
);
width = 365;
}
);
category = Letter;
},
{
glyphname = uni118C5.sm;
lastChange = "2018-04-10 19:53:07 +0000";
layers = (
{
layerId = UUID0;
paths = (
{
closed = 1;
nodes = (
"167 -8 OFFCURVE",
"186 37 OFFCURVE",
"190 120 CURVE SMOOTH",
"191 138 LINE",
"313 197 LINE",
"311 139 LINE SMOOTH",
"309 85 OFFCURVE",
"305 58 OFFCURVE",
"289 58 CURVE SMOOTH",
"275 58 OFFCURVE",
"261 69 OFFCURVE",
"235 90 CURVE",
"203 32 LINE",
"230 10 OFFCURVE",
"261 -8 OFFCURVE",
"294 -8 CURVE SMOOTH",
"361 -8 OFFCURVE",
"373 37 OFFCURVE",
"377 120 CURVE SMOOTH",
"384 260 LINE SMOOTH",
"387 317 OFFCURVE",
"396 358 OFFCURVE",
"441 358 CURVE SMOOTH",
"460 358 OFFCURVE",
"474 355 OFFCURVE",
"490 350 CURVE",
"502 416 LINE",
"491 419 OFFCURVE",
"461 424 OFFCURVE",
"435 424 CURVE SMOOTH",
"363 424 OFFCURVE",
"322 372 OFFCURVE",
"317 279 CURVE SMOOTH",
"316 264 LINE",
"194 205 LINE",
"197 260 LINE SMOOTH",
"200 317 OFFCURVE",
"209 358 OFFCURVE",
"254 358 CURVE SMOOTH",
"273 358 OFFCURVE",
"287 355 OFFCURVE",
"303 350 CURVE",
"315 416 LINE",
"300 421 OFFCURVE",
"274 424 OFFCURVE",
"248 424 CURVE SMOOTH",
"176 424 OFFCURVE",
"134 372 OFFCURVE",
"130 279 CURVE SMOOTH",
"124 139 LINE SMOOTH",
"122 85 OFFCURVE",
"118 58 OFFCURVE",
"102 58 CURVE SMOOTH",
"88 58 OFFCURVE",
"74 69 OFFCURVE",
"48 90 CURVE",
"16 32 LINE",
"43 10 OFFCURVE",
"74 -8 OFFCURVE",
"107 -8 CURVE SMOOTH"
);
}
);
width = 514;
}
);
category = Letter;
},
{
glyphname = uni118C6.sm;
lastChange = "2018-04-10 19:53:07 +0000";
layers = (
{
layerId = UUID0;
paths = (
{
closed = 1;
nodes = (
"205 0 LINE",
"247 187 LINE",
"363 187 LINE",
"363 247 LINE",
"262 247 LINE",
"269 277 OFFCURVE",
"273 305 OFFCURVE",
"273 322 CURVE SMOOTH",
"273 381 OFFCURVE",
"240 424 OFFCURVE",
"124 424 CURVE SMOOTH",
"81 424 OFFCURVE",
"32 418 OFFCURVE",
"16 413 CURVE",
"23 350 LINE",
"36 353 OFFCURVE",
"79 358 OFFCURVE",
"114 358 CURVE SMOOTH",
"182 358 OFFCURVE",
"200 342 OFFCURVE",
"200 312 CURVE SMOOTH",
"200 295 OFFCURVE",
"196 272 OFFCURVE",
"189 247 CURVE",
"25 247 LINE",
"25 187 LINE",
"175 187 LINE",
"134 0 LINE"
);
}
);
width = 382;
}
);
category = Letter;
},
{
glyphname = uni118C7.sm;
lastChange = "2018-04-10 19:53:07 +0000";
layers = (
{
layerId = UUID0;
paths = (
{
closed = 1;
nodes = (
"173 0 LINE",
"233 161 LINE SMOOTH",
"246 195 OFFCURVE",
"262 238 OFFCURVE",
"262 285 CURVE SMOOTH",
"262 369 OFFCURVE",
"198 424 OFFCURVE",
"68 424 CURVE SMOOTH",
"52 424 OFFCURVE",
"35 424 OFFCURVE",
"17 422 CURVE",
"21 357 LINE",
"33 358 OFFCURVE",
"48 358 OFFCURVE",
"60 358 CURVE SMOOTH",
"164 358 OFFCURVE",
"189 333 OFFCURVE",
"189 273 CURVE SMOOTH",
"189 253 OFFCURVE",
"178 219 OFFCURVE",
"161 171 CURVE SMOOTH",
"100 0 LINE"
);
}
);
width = 293;
}
);
category = Letter;
},
{
glyphname = uni118C8.sm;
lastChange = "2018-04-10 19:53:07 +0000";
layers = (
{
layerId = UUID0;
paths = (
{
closed = 1;
nodes = (
"268 -8 OFFCURVE",
"325 77 OFFCURVE",
"325 295 CURVE SMOOTH",
"325 372 LINE",
"302 418 LINE",
"30 418 LINE",
"30 371 LINE SMOOTH",
"30 162 OFFCURVE",
"64 -8 OFFCURVE",
"189 -8 CURVE SMOOTH"
);
},
{
closed = 1;
nodes = (
"134 58 OFFCURVE",
"103 164 OFFCURVE",
"102 355 CURVE",
"253 355 LINE",
"253 282 LINE SMOOTH",
"253 207 OFFCURVE",
"244 58 OFFCURVE",
"189 58 CURVE SMOOTH"
);
}
);
width = 361;
}
);
category = Letter;
},
{
glyphname = uni118C9.sm;
lastChange = "2018-04-10 19:53:07 +0000";
layers = (
{
layerId = UUID0;
paths = (
{
closed = 1;
nodes = (
"227 -8 OFFCURVE",
"287 14 OFFCURVE",
"336 44 CURVE",
"307 102 LINE",
"269 79 OFFCURVE",
"211 58 OFFCURVE",
"167 58 CURVE SMOOTH",
"124 58 OFFCURVE",
"101 71 OFFCURVE",
"101 114 CURVE SMOOTH",
"101 147 OFFCURVE",
"135 175 OFFCURVE",
"191 201 CURVE SMOOTH",
"254 230 OFFCURVE",
"307 257 OFFCURVE",
"307 322 CURVE SMOOTH",
"307 377 OFFCURVE",
"263 424 OFFCURVE",
"159 424 CURVE SMOOTH",
"118 424 OFFCURVE",
"73 417 OFFCURVE",
"33 400 CURVE",
"48 338 LINE",
"83 351 OFFCURVE",
"115 358 OFFCURVE",
"155 358 CURVE SMOOTH",
"196 358 OFFCURVE",
"235 346 OFFCURVE",
"235 319 CURVE SMOOTH",
"235 291 OFFCURVE",
"197 273 OFFCURVE",
"157 255 CURVE SMOOTH",
"62 212 OFFCURVE",
"28 167 OFFCURVE",
"28 110 CURVE SMOOTH",
"28 38 OFFCURVE",
"79 -8 OFFCURVE",
"167 -8 CURVE SMOOTH"
);
}
);
width = 364;
}
);
category = Letter;
},
{
glyphname = uni118C0.abv;
lastChange = "2018-04-10 19:53:07 +0000";
layers = (
{
layerId = UUID0;
paths = (
{
closed = 1;
nodes = (
"55 -8 OFFCURVE",
"78 53 OFFCURVE",
"104 127 CURVE SMOOTH",
"156 274 LINE SMOOTH",
"168 307 OFFCURVE",
"194 358 OFFCURVE",
"214 377 CURVE",
"158 419 LINE",
"128 393 OFFCURVE",
"107 345 OFFCURVE",
"89 294 CURVE SMOOTH",
"36 142 LINE SMOOTH",
"21 99 OFFCURVE",
"6 58 OFFCURVE",
"-22 58 CURVE SMOOTH",
"-40 58 OFFCURVE",
"-49 81 OFFCURVE",
"-49 118 CURVE SMOOTH",
"-49 130 OFFCURVE",
"-48 145 OFFCURVE",
"-46 161 CURVE SMOOTH",
"-34 273 LINE SMOOTH",
"-32 287 OFFCURVE",
"-31 304 OFFCURVE",
"-31 327 CURVE SMOOTH",
"-31 394 OFFCURVE",
"-66 422 OFFCURVE",
"-114 422 CURVE SMOOTH",
"-156 422 OFFCURVE",
"-192 398 OFFCURVE",
"-213 341 CURVE",
"-152 311 LINE",
"-141 348 OFFCURVE",
"-129 358 OFFCURVE",
"-120 358 CURVE SMOOTH",
"-111 358 OFFCURVE",
"-103 350 OFFCURVE",
"-103 328 CURVE SMOOTH",
"-103 313 OFFCURVE",
"-105 294 OFFCURVE",
"-108 267 CURVE SMOOTH",
"-120 156 LINE SMOOTH",
"-121 144 OFFCURVE",
"-122 129 OFFCURVE",
"-122 111 CURVE SMOOTH",
"-122 40 OFFCURVE",
"-86 -8 OFFCURVE",
"-22 -8 CURVE SMOOTH"
);
}
);
width = 0;
}
);
category = Mark;
},
{
glyphname = uni118D2.abv.flip;
lastChange = "2018-04-10 19:53:07 +0000";
layers = (
{
layerId = UUID0;
paths = (
{
closed = 1;
nodes = (
"12 14 OFFCURVE",
"26 30 OFFCURVE",
"30 85 CURVE SMOOTH",
"34 140 LINE SMOOTH",
"35 151 OFFCURVE",
"41 159 OFFCURVE",
"60 170 CURVE SMOOTH",
"114 201 OFFCURVE",
"146 248 OFFCURVE",
"146 303 CURVE SMOOTH",
"146 375 OFFCURVE",
"98 429 OFFCURVE",
"23 429 CURVE SMOOTH",
"-76 429 OFFCURVE",
"-118 356 OFFCURVE",
"-146 292 CURVE",
"-82 269 LINE",
"-54 333 OFFCURVE",
"-25 363 OFFCURVE",
"18 363 CURVE SMOOTH",
"52 363 OFFCURVE",
"72 338 OFFCURVE",
"72 301 CURVE SMOOTH",
"72 265 OFFCURVE",
"53 242 OFFCURVE",
"11 215 CURVE SMOOTH",
"-15 198 OFFCURVE",
"-31 185 OFFCURVE",
"-33 155 CURVE SMOOTH",
"-37 103 LINE SMOOTH",
"-40 69 OFFCURVE",
"-49 55 OFFCURVE",
"-69 36 CURVE",
"-17 -8 LINE"
);
}
);
width = 0;
}
);
category = Mark;
},
{
glyphname = uni118D8.abv.flip;
lastChange = "2018-04-10 19:53:07 +0000";
layers = (
{
layerId = UUID0;
paths = (
{
closed = 1;
nodes = (
"-147 -8 OFFCURVE",
"-121 44 OFFCURVE",
"-108 118 CURVE SMOOTH",
"-81 275 LINE SMOOTH",
"-71 335 OFFCURVE",
"-30 356 OFFCURVE",
"1 356 CURVE SMOOTH",
"63 356 OFFCURVE",
"73 294 OFFCURVE",
"82 235 CURVE SMOOTH",
"97 136 LINE SMOOTH",
"110 53 OFFCURVE",
"145 16 OFFCURVE",
"205 16 CURVE SMOOTH",
"252 16 OFFCURVE",
"288 41 OFFCURVE",
"319 90 CURVE",
"267 131 LINE",
"246 101 OFFCURVE",
"229 81 OFFCURVE",
"213 81 CURVE SMOOTH",
"189 81 OFFCURVE",
"172 91 OFFCURVE",
"164 142 CURVE SMOOTH",
"146 261 LINE SMOOTH",
"135 337 OFFCURVE",
"107 422 OFFCURVE",
"4 422 CURVE SMOOTH",
"-71 422 OFFCURVE",
"-136 369 OFFCURVE",
"-149 295 CURVE SMOOTH",
"-176 138 LINE SMOOTH",
"-184 90 OFFCURVE",
"-191 56 OFFCURVE",
"-211 56 CURVE SMOOTH",
"-232 56 OFFCURVE",
"-248 76 OFFCURVE",
"-269 105 CURVE",
"-320 65 LINE",
"-290 15 OFFCURVE",
"-254 -8 OFFCURVE",
"-216 -8 CURVE SMOOTH"
);
}
);
width = 0;
}
);
category = Mark;
},
{
glyphname = uni118DA.abv.flip;
lastChange = "2018-04-10 19:53:07 +0000";
layers = (
{
layerId = UUID0;
paths = (
{
closed = 1;
nodes = (
"68 51 LINE",
"-43 55 OFFCURVE",
"-107 103 OFFCURVE",
"-107 210 CURVE SMOOTH",
"-107 301 OFFCURVE",
"-68 359 OFFCURVE",
"19 359 CURVE SMOOTH",
"72 359 OFFCURVE",
"105 336 OFFCURVE",
"111 290 CURVE",
"125 314 LINE",
"32 314 OFFCURVE",
"-31 256 OFFCURVE",
"-31 184 CURVE SMOOTH",
"-31 127 OFFCURVE",
"11 83 OFFCURVE",
"72 83 CURVE SMOOTH",
"114 83 OFFCURVE",
"150 99 OFFCURVE",
"177 139 CURVE",
"127 182 LINE",
"115 162 OFFCURVE",
"95 149 OFFCURVE",
"75 149 CURVE SMOOTH",
"55 149 OFFCURVE",
"42 162 OFFCURVE",
"42 182 CURVE SMOOTH",
"42 225 OFFCURVE",
"70 258 OFFCURVE",
"142 258 CURVE SMOOTH",
"159 258 OFFCURVE",
"171 257 OFFCURVE",
"183 256 CURVE",
"183 353 OFFCURVE",
"118 425 OFFCURVE",
"20 425 CURVE SMOOTH",
"-96 425 OFFCURVE",
"-180 346 OFFCURVE",
"-180 210 CURVE SMOOTH",
"-180 76 OFFCURVE",
"-84 -8 OFFCURVE",
"62 -8 CURVE"
);
}
);
width = 0;
}
);
category = Mark;
},
{
glyphname = uni118DC.abv.flip;
lastChange = "2018-04-10 19:53:07 +0000";
layers = (
{
layerId = UUID0;
paths = (
{
closed = 1;
nodes = (
"180 46 LINE",
"129 74 OFFCURVE",
"93 102 OFFCURVE",
"66 129 CURVE",
"107 178 OFFCURVE",
"132 239 OFFCURVE",
"132 301 CURVE SMOOTH",
"132 372 OFFCURVE",
"91 424 OFFCURVE",
"27 424 CURVE SMOOTH",
"-40 424 OFFCURVE",
"-79 369 OFFCURVE",
"-79 301 CURVE SMOOTH",
"-79 268 OFFCURVE",
"-75 201 OFFCURVE",
"-25 129 CURVE",
"-58 101 OFFCURVE",
"-100 82 OFFCURVE",
"-154 82 CURVE SMOOTH",
"-159 82 OFFCURVE",
"-164 82 OFFCURVE",
"-169 83 CURVE",
"-180 19 LINE",
"-175 17 OFFCURVE",
"-165 17 OFFCURVE",
"-161 17 CURVE SMOOTH",
"-96 17 OFFCURVE",
"-34 42 OFFCURVE",
"16 81 CURVE",
"48 50 OFFCURVE",
"90 20 OFFCURVE",
"145 -8 CURVE"
);
},
{
closed = 1;
nodes = (
"-2 213 OFFCURVE",
"-5 252 OFFCURVE",
"-5 294 CURVE SMOOTH",
"-5 331 OFFCURVE",
"8 358 OFFCURVE",
"27 358 CURVE SMOOTH",
"46 358 OFFCURVE",
"59 331 OFFCURVE",
"59 294 CURVE SMOOTH",
"59 250 OFFCURVE",
"42 207 OFFCURVE",
"8 155 CURVE",
"41 150 LINE"
);
}
